Amstelvar-Roman-opsz14-wght100-wdth100.ufo
<glyph name="quotedbl" format="2">
  <advance width="743"/>
  <unicode hex="0022"/>
  <outline>
    <contour>
      <point x="233" y="964" type="line"/>
      <point x="187" y="1439" type="line"/>
      <point x="185" y="1492"/>
      <point x="208" y="1558"/>
      <point x="242" y="1558" type="qcurve" smooth="yes"/>
      <point x="276" y="1558"/>
      <point x="299" y="1492"/>
      <point x="298" y="1439" type="qcurve"/>
      <point x="251" y="964" type="line"/>
    </contour>
    <contour>
      <point x="491" y="964" type="line"/>
      <point x="444" y="1439" type="line"/>
      <point x="443" y="1492"/>
      <point x="466" y="1558"/>
      <point x="500" y="1558" type="qcurve" smooth="yes"/>
      <point x="534" y="1558"/>
      <point x="557" y="1492"/>
      <point x="556" y="1439" type="qcurve"/>
      <point x="509" y="964" type="line"/>
    </contour>
  </outline>
</glyph>
<glyph name="colon" format="2">
  <advance width="580"/>
  <unicode hex="003A"/>
  <outline>
    <contour>
      <point x="199" y="71" type="qcurve" smooth="yes"/>
      <point x="199" y="107"/>
      <point x="250" y="160"/>
      <point x="290" y="160" type="qcurve" smooth="yes"/>
      <point x="330" y="160"/>
      <point x="381" y="107"/>
      <point x="381" y="71" type="qcurve" smooth="yes"/>
      <point x="381" y="35"/>
      <point x="330" y="-18"/>
      <point x="290" y="-18" type="qcurve" smooth="yes"/>
      <point x="250" y="-18"/>
      <point x="199" y="35"/>
    </contour>
    <contour>
      <point x="199" y="933" type="qcurve" smooth="yes"/>
      <point x="199" y="969"/>
      <point x="250" y="1022"/>
      <point x="290" y="1022" type="qcurve" smooth="yes"/>
      <point x="330" y="1022"/>
      <point x="381" y="969"/>
      <point x="381" y="933" type="qcurve" smooth="yes"/>
      <point x="381" y="897"/>
      <point x="330" y="844"/>
      <point x="290" y="844" type="qcurve" smooth="yes"/>
      <point x="250" y="844"/>
      <point x="199" y="897"/>
    </contour>
  </outline>
</glyph>
<glyph name="less" format="2">
	<unicode hex="003C"/>
	<advance width="986"/>
	<outline>
		<contour>
			<point x="176" y="634" type="qcurve"/>
			<point x="176" y="634"/>
			<point x="650" y="1017"/>
			<point x="724" y="1077" type="qcurve" smooth="yes"/>
			<point x="751" y="1099"/>
			<point x="784" y="1051"/>
			<point x="756" y="1028" type="qcurve" smooth="yes"/>
			<point x="614" y="907"/>
			<point x="275" y="635"/>
			<point x="275" y="635" type="qcurve"/>
			<point x="275" y="635"/>
			<point x="612" y="366"/>
			<point x="754" y="244" type="qcurve" smooth="yes"/>
			<point x="782" y="221"/>
			<point x="752" y="173"/>
			<point x="725" y="194" type="qcurve" smooth="yes"/>
			<point x="651" y="255"/>
			<point x="176" y="634"/>
		</contour>
	</outline>
</glyph>
<glyph name="C" format="2">
  <advance width="1428"/>
  <unicode hex="0043"/>
  <guideline x="825" y="1128" angle="90" name="center" identifier="CLp4PsQ3qx"/>
  <anchor x="813.0" y="0" name="bottom"/>
  <anchor x="825.0" y="1500" name="top"/>
  <outline>
    <contour>
      <point x="85" y="706" type="qcurve" smooth="yes"/>
      <point x="85" y="1080"/>
      <point x="510" y="1519"/>
      <point x="840" y="1519" type="qcurve" smooth="yes"/>
      <point x="973" y="1519"/>
      <point x="1189" y="1459"/>
      <point x="1263" y="1411" type="qcurve"/>
      <point x="1284" y="1500" type="line"/>
      <point x="1342" y="1500" type="line"/>
      <point x="1342" y="1041" type="line"/>
      <point x="1286" y="1041" type="line"/>
      <point x="1259" y="1228" type="line" smooth="yes"/>
      <point x="1241" y="1353"/>
      <point x="995" y="1455"/>
      <point x="839" y="1455" type="qcurve" smooth="yes"/>
      <point x="544" y="1455"/>
      <point x="167" y="1079"/>
      <point x="170" y="728" type="qcurve" smooth="yes"/>
      <point x="172" y="420"/>
      <point x="559" y="43"/>
      <point x="852" y="43" type="qcurve" smooth="yes"/>
      <point x="1055" y="43"/>
      <point x="1320" y="184"/>
      <point x="1388" y="282" type="qcurve"/>
      <point x="1430" y="238" type="line"/>
      <point x="1344" y="118"/>
      <point x="1046" y="-29"/>
      <point x="812" y="-29" type="qcurve" smooth="yes"/>
      <point x="494" y="-29"/>
      <point x="85" y="398"/>
    </contour>
  </outline>
</glyph>
<glyph name="G" format="2">
  <advance width="1627"/>
  <unicode hex="0047"/>
  <anchor x="863" y="0" name="bottom"/>
  <anchor x="841" y="1500" name="top"/>
  <outline>
    <contour>
      <point x="85" y="730" type="qcurve" smooth="yes"/>
      <point x="85" y="1080"/>
      <point x="516" y="1519"/>
      <point x="843" y="1519" type="qcurve" smooth="yes"/>
      <point x="1015" y="1519"/>
      <point x="1237" y="1449"/>
      <point x="1293" y="1402" type="qcurve"/>
      <point x="1315" y="1500" type="line"/>
      <point x="1374" y="1500" type="line"/>
      <point x="1374" y="1050" type="line"/>
      <point x="1315" y="1050" type="line"/>
      <point x="1293" y="1220" type="line" smooth="yes"/>
      <point x="1277" y="1346"/>
      <point x="1026" y="1452"/>
      <point x="829" y="1452" type="qcurve" smooth="yes"/>
      <point x="540" y="1452"/>
      <point x="168" y="1080"/>
      <point x="170" y="745" type="qcurve" smooth="yes"/>
      <point x="171" y="424"/>
      <point x="549" y="35"/>
      <point x="860" y="35" type="qcurve" smooth="yes"/>
      <point x="1017" y="35"/>
      <point x="1268" y="122"/>
      <point x="1345" y="190" type="qcurve"/>
      <point x="1345" y="586" type="line"/>
      <point x="1106" y="613" type="line"/>
      <point x="1106" y="663" type="line"/>
      <point x="1609" y="663" type="line"/>
      <point x="1609" y="613" type="line"/>
      <point x="1422" y="586" type="line"/>
      <point x="1422" y="174" type="line"/>
      <point x="1348" y="94"/>
      <point x="1056" y="-29"/>
      <point x="863" y="-29" type="qcurve" smooth="yes"/>
      <point x="522" y="-29"/>
      <point x="85" y="379"/>
    </contour>
  </outline>
</glyph>
<glyph name="grave" format="2">
  <advance width="1024"/>
  <unicode hex="0060"/>
  <outline>
    <contour>
      <point x="340" y="1417" type="qcurve" smooth="yes"/>
      <point x="340" y="1431"/>
      <point x="365" y="1456"/>
      <point x="384" y="1456" type="qcurve" smooth="yes"/>
      <point x="403" y="1456"/>
      <point x="434" y="1433"/>
      <point x="452" y="1412" type="qcurve" smooth="yes"/>
      <point x="651" y="1176" type="line"/>
      <point x="628" y="1150" type="line"/>
      <point x="378" y="1357" type="line" smooth="yes"/>
      <point x="361" y="1371"/>
      <point x="340" y="1402"/>
    </contour>
  </outline>
</glyph>
<glyph name="c" format="2">
  <advance width="995"/>
  <unicode hex="0063"/>
  <guideline x="560" y="849" angle="90" name="center" identifier="z9oylieOPG"/>
  <anchor x="548" y="0" name="bottom"/>
  <anchor x="560" y="1000" name="top"/>
  <outline>
    <contour>
      <point x="68" y="488" type="qcurve" smooth="yes"/>
      <point x="68" y="718"/>
      <point x="345" y="1020"/>
      <point x="560" y="1020" type="qcurve" smooth="yes"/>
      <point x="657" y="1020"/>
      <point x="785" y="971"/>
      <point x="824" y="927" type="qcurve"/>
      <point x="849" y="1009" type="line"/>
      <point x="899" y="1009" type="line"/>
      <point x="909" y="679" type="line"/>
      <point x="858" y="679" type="line"/>
      <point x="834" y="767" type="line" smooth="yes"/>
      <point x="805" y="874"/>
      <point x="667" y="964"/>
      <point x="561" y="964" type="qcurve" smooth="yes"/>
      <point x="373" y="964"/>
      <point x="150" y="721"/>
      <point x="151" y="499" type="qcurve" smooth="yes"/>
      <point x="151" y="276"/>
      <point x="392" y="49"/>
      <point x="586" y="49" type="qcurve" smooth="yes"/>
      <point x="694" y="49"/>
      <point x="875" y="137"/>
      <point x="932" y="214" type="qcurve"/>
      <point x="958" y="185" type="line"/>
      <point x="902" y="93"/>
      <point x="688" y="-22"/>
      <point x="547" y="-22" type="qcurve" smooth="yes"/>
      <point x="337" y="-22"/>
      <point x="68" y="244"/>
    </contour>
  </outline>
</glyph>
<glyph name="e" format="2">
  <advance width="998"/>
  <unicode hex="0065"/>
  <outline>
    <contour>
      <point x="68" y="511" type="qcurve" smooth="yes"/>
      <point x="68" y="733"/>
      <point x="326" y="1022"/>
      <point x="532" y="1022" type="qcurve" smooth="yes"/>
      <point x="718" y="1022"/>
      <point x="945" y="787"/>
      <point x="964" y="590" type="qcurve"/>
      <point x="964" y="556" type="line"/>
      <point x="134" y="556" type="line"/>
      <point x="137" y="609" type="line"/>
      <point x="887" y="609" type="line"/>
      <point x="870" y="764"/>
      <point x="679" y="965"/>
      <point x="519" y="965" type="qcurve" smooth="yes"/>
      <point x="353" y="965"/>
      <point x="151" y="729"/>
      <point x="151" y="521" type="qcurve" smooth="yes"/>
      <point x="152" y="288"/>
      <point x="392" y="48"/>
      <point x="585" y="48" type="qcurve" smooth="yes"/>
      <point x="699" y="48"/>
      <point x="858" y="121"/>
      <point x="908" y="175" type="qcurve"/>
      <point x="934" y="150" type="line"/>
      <point x="886" y="81"/>
      <point x="701" y="-22"/>
      <point x="572" y="-22" type="qcurve" smooth="yes"/>
      <point x="342" y="-22"/>
      <point x="68" y="262"/>
    </contour>
  </outline>
</glyph>
<glyph name="g" format="2">
  <advance width="1045"/>
  <unicode hex="0067"/>
  <anchor x="522.5" y="-416" name="bottom"/>
  <anchor x="522.5" y="1000" name="top"/>
  <outline>
    <contour>
      <point x="22" y="-263" type="qcurve" smooth="yes"/>
      <point x="22" y="-180"/>
      <point x="145" y="-45"/>
      <point x="269" y="-2" type="qcurve"/>
      <point x="323" y="-22" type="line"/>
      <point x="205" y="-68"/>
      <point x="97" y="-180"/>
      <point x="97" y="-251" type="qcurve" smooth="yes"/>
      <point x="97" y="-348"/>
      <point x="317" y="-458"/>
      <point x="540" y="-458" type="qcurve" smooth="yes"/>
      <point x="760" y="-458"/>
      <point x="983" y="-343"/>
      <point x="983" y="-239" type="qcurve" smooth="yes"/>
      <point x="983" y="-145"/>
      <point x="811" y="-69"/>
      <point x="545" y="-57" type="qcurve" smooth="yes"/>
      <point x="305" y="-45"/>
      <point x="92" y="66"/>
      <point x="92" y="149" type="qcurve" smooth="yes"/>
      <point x="92" y="228"/>
      <point x="211" y="316"/>
      <point x="296" y="342" type="qcurve"/>
      <point x="324" y="308" type="line"/>
      <point x="255" y="284"/>
      <point x="174" y="218"/>
      <point x="174" y="164" type="qcurve" smooth="yes"/>
      <point x="174" y="98"/>
      <point x="336" y="22"/>
      <point x="565" y="12" type="qcurve" smooth="yes"/>
      <point x="830" y="1"/>
      <point x="1068" y="-96"/>
      <point x="1068" y="-212" type="qcurve" smooth="yes"/>
      <point x="1068" y="-340"/>
      <point x="820" y="-510"/>
      <point x="528" y="-510" type="qcurve" smooth="yes"/>
      <point x="282" y="-510"/>
      <point x="22" y="-381"/>
    </contour>
    <contour>
      <point x="126" y="636" type="qcurve" smooth="yes"/>
      <point x="126" y="803"/>
      <point x="351" y="1022"/>
      <point x="529" y="1022" type="qcurve" smooth="yes"/>
      <point x="707" y="1022"/>
      <point x="936" y="822"/>
      <point x="936" y="645" type="qcurve" smooth="yes"/>
      <point x="937" y="478"/>
      <point x="712" y="240"/>
      <point x="534" y="240" type="qcurve" smooth="yes"/>
      <point x="355" y="240"/>
      <point x="126" y="455"/>
    </contour>
    <contour>
      <point x="213" y="645" type="qcurve" smooth="yes"/>
      <point x="213" y="474"/>
      <point x="387" y="292"/>
      <point x="530" y="292" type="qcurve" smooth="yes"/>
      <point x="683" y="292"/>
      <point x="848" y="478"/>
      <point x="848" y="645" type="qcurve" smooth="yes"/>
      <point x="848" y="799"/>
      <point x="677" y="966"/>
      <point x="533" y="966" type="qcurve" smooth="yes"/>
      <point x="381" y="966"/>
      <point x="213" y="797"/>
    </contour>
    <contour>
      <point x="682" y="943" type="line"/>
      <point x="667" y="990" type="line"/>
      <point x="1075" y="991" type="line"/>
      <point x="1075" y="929" type="line"/>
    </contour>
  </outline>
</glyph>
<glyph name="p" format="2">
  <advance width="1175"/>
  <unicode hex="0070"/>
  <anchor x="587.5" y="0" name="bottom"/>
  <anchor x="587.5" y="1000" name="top"/>
  <outline>
    <contour>
      <point x="64" y="-480" type="line"/>
      <point x="64" y="-440" type="line"/>
      <point x="230" y="-413" type="line"/>
      <point x="234" y="427" type="line"/>
      <point x="232" y="912" type="line"/>
      <point x="52" y="932" type="line"/>
      <point x="52" y="986" type="line"/>
      <point x="270" y="1000" type="line"/>
      <point x="293" y="982" type="line"/>
      <point x="307" y="843" type="line"/>
      <point x="360" y="913"/>
      <point x="546" y="1020"/>
      <point x="669" y="1020" type="qcurve" smooth="yes"/>
      <point x="860" y="1020"/>
      <point x="1107" y="754"/>
      <point x="1107" y="530" type="qcurve" smooth="yes"/>
      <point x="1107" y="286"/>
      <point x="850" y="-12"/>
      <point x="634" y="-12" type="qcurve" smooth="yes"/>
      <point x="527" y="-12"/>
      <point x="357" y="48"/>
      <point x="310" y="89" type="qcurve"/>
      <point x="312" y="-413" type="line"/>
      <point x="497" y="-440" type="line"/>
      <point x="497" y="-480" type="line"/>
    </contour>
    <contour>
      <point x="310" y="200" type="line"/>
      <point x="351" y="132"/>
      <point x="528" y="39"/>
      <point x="639" y="39" type="qcurve" smooth="yes"/>
      <point x="806" y="39"/>
      <point x="1020" y="279"/>
      <point x="1020" y="501" type="qcurve" smooth="yes"/>
      <point x="1020" y="705"/>
      <point x="825" y="945"/>
      <point x="663" y="945" type="qcurve" smooth="yes"/>
      <point x="542" y="945"/>
      <point x="360" y="851"/>
      <point x="307" y="777" type="qcurve"/>
      <point x="307" y="427" type="line"/>
    </contour>
  </outline>
</glyph>
<glyph name="y" format="2">
  <advance width="1050"/>
  <unicode hex="0079"/>
  <anchor x="783.0" y="0" name="bottom"/>
  <anchor x="525.0" y="1000" name="top"/>
  <outline>
    <contour>
      <point x="-37" y="946" type="line"/>
      <point x="-37" y="1000" type="line"/>
      <point x="379" y="1000" type="line"/>
      <point x="379" y="946" type="line"/>
      <point x="220" y="923" type="line"/>
      <point x="367" y="515" type="line"/>
      <point x="522" y="83" type="line"/>
      <point x="687" y="522" type="line"/>
      <point x="838" y="923" type="line"/>
      <point x="661" y="946" type="line"/>
      <point x="661" y="1000" type="line"/>
      <point x="1067" y="1000" type="line"/>
      <point x="1067" y="946" type="line"/>
      <point x="905" y="923" type="line"/>
      <point x="740" y="495" type="line"/>
      <point x="463" y="-226" type="line" smooth="yes"/>
      <point x="412" y="-359"/>
      <point x="250" y="-488"/>
      <point x="160" y="-488" type="qcurve"/>
      <point x="9" y="-469" type="line"/>
      <point x="9" y="-418" type="line"/>
      <point x="105" y="-418" type="line" smooth="yes"/>
      <point x="223" y="-418"/>
      <point x="372" y="-305"/>
      <point x="417" y="-182" type="qcurve" smooth="yes"/>
      <point x="482" y="-4" type="line"/>
      <point x="482" y="-4" type="line"/>
      <point x="301" y="491" type="line"/>
      <point x="144" y="922" type="line"/>
    </contour>
  </outline>
</glyph>
<glyph name="cent" format="2">
	<unicode hex="00A2"/>
	<advance width="974"/>
	<outline>
		<contour>
			<point x="97" y="488" type="qcurve" smooth="yes"/>
			<point x="97" y="718"/>
			<point x="355" y="1020"/>
			<point x="556" y="1020" type="qcurve" smooth="yes"/>
			<point x="646" y="1020"/>
			<point x="762" y="979"/>
			<point x="801" y="942" type="qcurve"/>
			<point x="817" y="1013" type="line"/>
			<point x="872" y="1003" type="line"/>
			<point x="880" y="687" type="line"/>
			<point x="833" y="679" type="line"/>
			<point x="806" y="788" type="line" smooth="yes"/>
			<point x="783" y="878"/>
			<point x="651" y="964"/>
			<point x="557" y="964" type="qcurve" smooth="yes"/>
			<point x="382" y="964"/>
			<point x="174" y="721"/>
			<point x="175" y="499" type="qcurve" smooth="yes"/>
			<point x="175" y="276"/>
			<point x="399" y="49"/>
			<point x="580" y="49" type="qcurve" smooth="yes"/>
			<point x="681" y="49"/>
			<point x="849" y="137"/>
			<point x="902" y="214" type="qcurve"/>
			<point x="927" y="185" type="line"/>
			<point x="875" y="93"/>
			<point x="675" y="-22"/>
			<point x="543" y="-22" type="qcurve" smooth="yes"/>
			<point x="348" y="-22"/>
			<point x="97" y="244"/>
		</contour>
		<contour>
			<point x="516" y="-190" type="line"/>
			<point x="516" y="12" type="line"/>
			<point x="521" y="12" type="line"/>
			<point x="521" y="510" type="line"/>
			<point x="575" y="488" type="line"/>
			<point x="575" y="12" type="line"/>
			<point x="582" y="12" type="line"/>
			<point x="582" y="-160" type="line"/>
		</contour>
		<contour>
			<point x="515" y="1150" type="line"/>
			<point x="581" y="1169" type="line"/>
			<point x="581" y="988" type="line"/>
			<point x="575" y="988" type="line"/>
			<point x="575" y="488" type="line"/>
			<point x="521" y="510" type="line"/>
			<point x="521" y="988" type="line"/>
			<point x="515" y="988" type="line"/>
		</contour>
	</outline>
</glyph>
<glyph name="dieresis" format="2">
	<unicode hex="00A8"/>
	<advance width="1024"/>
	<outline>
		<contour>
			<point x="598" y="1229" type="qcurve" smooth="yes"/>
			<point x="598" y="1264"/>
			<point x="636" y="1303"/>
			<point x="672" y="1303" type="qcurve" smooth="yes"/>
			<point x="708" y="1303"/>
			<point x="749" y="1262"/>
			<point x="749" y="1229" type="qcurve" smooth="yes"/>
			<point x="749" y="1193"/>
			<point x="710" y="1154"/>
			<point x="672" y="1154" type="qcurve" smooth="yes"/>
			<point x="638" y="1154"/>
			<point x="598" y="1194"/>
		</contour>
		<contour>
			<point x="275" y="1229" type="qcurve" smooth="yes"/>
			<point x="275" y="1264"/>
			<point x="315" y="1303"/>
			<point x="352" y="1303" type="qcurve" smooth="yes"/>
			<point x="386" y="1303"/>
			<point x="426" y="1262"/>
			<point x="426" y="1229" type="qcurve" smooth="yes"/>
			<point x="426" y="1193"/>
			<point x="389" y="1154"/>
			<point x="352" y="1154" type="qcurve" smooth="yes"/>
			<point x="316" y="1154"/>
			<point x="275" y="1194"/>
		</contour>
	</outline>
	<guideline x="509" y="1228" angle="0" identifier="uEBPy8J9MP"/>
	<guideline x="510" y="1248" angle="90" identifier="bXBZ2zQaVN"/>
</glyph>
<glyph name="logicalnot" format="2">
	<unicode hex="00AC"/>
	<advance width="986"/>
	<outline>
		<contour>
			<point x="97" y="737" type="line"/>
			<point x="889" y="737" type="line"/>
			<point x="889" y="246" type="line"/>
			<point x="825" y="246" type="line"/>
			<point x="825" y="667" type="line"/>
			<point x="97" y="667" type="line"/>
		</contour>
	</outline>
</glyph>
<glyph name="macron" format="2">
	<unicode hex="00AF"/>
	<advance width="1024"/>
	<outline>
		<contour>
			<point x="256" y="1188" type="line"/>
			<point x="256" y="1267" type="line"/>
			<point x="768" y="1267" type="line"/>
			<point x="768" y="1188" type="line"/>
		</contour>
	</outline>
</glyph>
<glyph name="acute" format="2">
  <advance width="1024"/>
  <unicode hex="00B4"/>
  <outline>
    <contour>
      <point x="731" y="1417" type="qcurve" smooth="yes"/>
      <point x="731" y="1402"/>
      <point x="710" y="1371"/>
      <point x="693" y="1357" type="qcurve" smooth="yes"/>
      <point x="443" y="1150" type="line"/>
      <point x="420" y="1176" type="line"/>
      <point x="619" y="1412" type="line" smooth="yes"/>
      <point x="637" y="1433"/>
      <point x="668" y="1456"/>
      <point x="687" y="1456" type="qcurve" smooth="yes"/>
      <point x="706" y="1456"/>
      <point x="731" y="1431"/>
    </contour>
  </outline>
</glyph>
<glyph name="micro" format="2">
  <advance width="1198"/>
  <unicode hex="00B5"/>
  <outline>
    <contour>
      <point x="46" y="-337" type="line"/>
      <point x="82" y="-315" type="line"/>
      <point x="121.0" y="-157.00000000000003"/>
      <point x="195" y="192"/>
      <point x="215" y="281" type="qcurve" smooth="yes"/>
      <point x="352" y="906" type="line"/>
      <point x="174" y="906" type="line"/>
      <point x="174" y="952" type="line"/>
      <point x="390" y="1000" type="line"/>
      <point x="416" y="1000" type="line"/>
      <point x="437" y="947" type="line"/>
      <point x="288" y="254" type="line" smooth="yes"/>
      <point x="270" y="171"/>
      <point x="336" y="79"/>
      <point x="440" y="79" type="qcurve" smooth="yes"/>
      <point x="533" y="79"/>
      <point x="778" y="229"/>
      <point x="877" y="339" type="qcurve"/>
      <point x="1002" y="916" type="line"/>
      <point x="961" y="987" type="line"/>
      <point x="1049" y="1004" type="line"/>
      <point x="1081" y="925" type="line"/>
      <point x="963" y="392" type="line"/>
      <point x="916" y="97" type="line"/>
      <point x="1092" y="101" type="line"/>
      <point x="1089" y="53" type="line"/>
      <point x="880" y="-7" type="line"/>
      <point x="838" y="61" type="line"/>
      <point x="867" y="258" type="line"/>
      <point x="777" y="159"/>
      <point x="499" y="2"/>
      <point x="396" y="2" type="qcurve" smooth="yes"/>
      <point x="344" y="2"/>
      <point x="264" y="35"/>
      <point x="239" y="66" type="qcurve"/>
      <point x="169" y="-294" type="line"/>
      <point x="320" y="-302" type="line"/>
      <point x="312" y="-351" type="line"/>
      <point x="69" y="-379" type="line"/>
    </contour>
  </outline>
</glyph>
<glyph name="Schwa" format="2">
  <advance width="1455"/>
  <unicode hex="018F"/>
  <outline>
    <contour>
      <point x="79" y="1246" type="line"/>
      <point x="165" y="1366"/>
      <point x="456" y="1519"/>
      <point x="662" y="1519" type="qcurve" smooth="yes"/>
      <point x="981" y="1519"/>
      <point x="1370" y="1111"/>
      <point x="1370" y="750" type="qcurve" smooth="yes"/>
      <point x="1370" y="410"/>
      <point x="1001" y="-31"/>
      <point x="701" y="-31" type="qcurve" smooth="yes"/>
      <point x="425" y="-31"/>
      <point x="102" y="293.0"/>
      <point x="102" y="590" type="qcurve" smooth="yes"/>
      <point x="102" y="686" type="line"/>
      <point x="1318" y="686" type="line"/>
      <point x="1318" y="622" type="line"/>
      <point x="685" y="630" type="line"/>
      <point x="173" y="624" type="line"/>
      <point x="173" y="583" type="line" smooth="yes"/>
      <point x="173" y="315"/>
      <point x="460" y="35"/>
      <point x="699" y="35" type="qcurve" smooth="yes"/>
      <point x="979" y="35"/>
      <point x="1292" y="411"/>
      <point x="1292" y="732" type="qcurve" smooth="yes"/>
      <point x="1292" y="1078"/>
      <point x="946" y="1452"/>
      <point x="653" y="1452" type="qcurve" smooth="yes"/>
      <point x="450" y="1452"/>
      <point x="185" y="1306"/>
      <point x="117" y="1208" type="qcurve"/>
    </contour>
  </outline>
</glyph>
<glyph name="circumflex" format="2">
  <advance width="1024"/>
  <unicode hex="02C6"/>
  <outline>
    <contour>
      <point x="512" y="1464" type="qcurve" smooth="yes"/>
      <point x="536" y="1464"/>
      <point x="569" y="1432"/>
      <point x="602" y="1391" type="qcurve" smooth="yes"/>
      <point x="775" y="1179" type="line"/>
      <point x="747" y="1150" type="line"/>
      <point x="512" y="1365" type="line"/>
      <point x="277" y="1150" type="line"/>
      <point x="249" y="1179" type="line"/>
      <point x="422" y="1391" type="line" smooth="yes"/>
      <point x="462" y="1440"/>
      <point x="488" y="1464"/>
    </contour>
  </outline>
</glyph>
<glyph name="caron" format="2">
  <advance width="1024"/>
  <unicode hex="02C7"/>
  <outline>
    <contour>
      <point x="512.0" y="1122.0" type="qcurve" smooth="yes"/>
      <point x="488.0" y="1122.0"/>
      <point x="455.0" y="1154.0"/>
      <point x="422.0" y="1195.0" type="qcurve" smooth="yes"/>
      <point x="249.0" y="1407.0" type="line"/>
      <point x="277.0" y="1436.0" type="line"/>
      <point x="512.0" y="1221.0" type="line"/>
      <point x="747.0" y="1436.0" type="line"/>
      <point x="775.0" y="1407.0" type="line"/>
      <point x="602.0" y="1195.0" type="line" smooth="yes"/>
      <point x="562.0" y="1146.0"/>
      <point x="536.0" y="1122.0"/>
    </contour>
  </outline>
</glyph>
<glyph name="breve" format="2">
  <advance width="1024"/>
  <unicode hex="02D8"/>
  <outline>
    <contour>
      <point x="735" y="1368" type="qcurve"/>
      <point x="775" y="1359" type="line"/>
      <point x="759" y="1279"/>
      <point x="617" y="1143"/>
      <point x="513" y="1143" type="qcurve" smooth="yes"/>
      <point x="408" y="1143"/>
      <point x="267" y="1268"/>
      <point x="249" y="1357" type="qcurve"/>
      <point x="292" y="1369" type="line"/>
      <point x="318" y="1313"/>
      <point x="425" y="1225"/>
      <point x="514" y="1225" type="qcurve" smooth="yes"/>
      <point x="604" y="1225"/>
      <point x="714" y="1314"/>
    </contour>
  </outline>
</glyph>
<glyph name="dotaccent" format="2">
  <advance width="1024"/>
  <unicode hex="02D9"/>
  <outline>
    <contour>
      <point x="429.0" y="1232.0" type="qcurve" smooth="yes"/>
      <point x="429.0" y="1271.0"/>
      <point x="471.0" y="1314.0"/>
      <point x="511.0" y="1314.0" type="qcurve" smooth="yes"/>
      <point x="550.0" y="1314.0"/>
      <point x="595.0" y="1269.0"/>
      <point x="595.0" y="1232.0" type="qcurve" smooth="yes"/>
      <point x="595.0" y="1193.0"/>
      <point x="553.0" y="1150.0"/>
      <point x="511.0" y="1150.0" type="qcurve" smooth="yes"/>
      <point x="473.0" y="1150.0"/>
      <point x="429.0" y="1194.0"/>
    </contour>
  </outline>
</glyph>
<glyph name="ring" format="2">
  <advance width="1024"/>
  <unicode hex="02DA"/>
  <outline>
    <contour>
      <point x="320.0" y="1334.0" type="qcurve" smooth="yes"/>
      <point x="320.0" y="1411.0"/>
      <point x="431.0" y="1518.0"/>
      <point x="512.0" y="1518.0" type="qcurve" smooth="yes"/>
      <point x="593.0" y="1518.0"/>
      <point x="704.0" y="1411.0"/>
      <point x="704.0" y="1334.0" type="qcurve" smooth="yes"/>
      <point x="704.0" y="1257.0"/>
      <point x="593.0" y="1150.0"/>
      <point x="512.0" y="1150.0" type="qcurve" smooth="yes"/>
      <point x="431.0" y="1150.0"/>
      <point x="320.0" y="1257.0"/>
    </contour>
    <contour>
      <point x="388.0" y="1334.0" type="qcurve" smooth="yes"/>
      <point x="388.0" y="1278.0"/>
      <point x="455.0" y="1210.0"/>
      <point x="512.0" y="1210.0" type="qcurve" smooth="yes"/>
      <point x="572.0" y="1210.0"/>
      <point x="636.0" y="1273.0"/>
      <point x="636.0" y="1334.0" type="qcurve" smooth="yes"/>
      <point x="636.0" y="1390.0"/>
      <point x="569.0" y="1458.0"/>
      <point x="512.0" y="1458.0" type="qcurve" smooth="yes"/>
      <point x="452.0" y="1458.0"/>
      <point x="388.0" y="1395.0"/>
    </contour>
  </outline>
</glyph>
<glyph name="ogonek" format="2">
  <advance width="1024"/>
  <unicode hex="02DB"/>
  <outline>
    <contour>
      <point x="422.0" y="-246.0" type="qcurve" smooth="yes"/>
      <point x="422.0" y="-292.0"/>
      <point x="482.0" y="-359.0"/>
      <point x="559.0" y="-359.0" type="qcurve" smooth="yes"/>
      <point x="607.0" y="-359.0"/>
      <point x="696.0" y="-318.0"/>
      <point x="741.0" y="-278.0" type="qcurve"/>
      <point x="768.0" y="-311.0" type="line"/>
      <point x="729.0" y="-358.0"/>
      <point x="610.0" y="-426.0"/>
      <point x="536.0" y="-426.0" type="qcurve" smooth="yes"/>
      <point x="438.0" y="-426.0"/>
      <point x="334.0" y="-342.0"/>
      <point x="334.0" y="-268.0" type="qcurve" smooth="yes"/>
      <point x="334.0" y="-192.0"/>
      <point x="447.0" y="-53.0"/>
      <point x="525.0" y="6.0" type="qcurve" smooth="yes"/>
      <point x="553.0" y="27.0" type="line"/>
      <point x="588.0" y="0.0" type="line"/>
      <point x="564.0" y="-21.0" type="line" smooth="yes"/>
      <point x="493.0" y="-83.0"/>
      <point x="422.0" y="-181.0"/>
    </contour>
  </outline>
</glyph>
<glyph name="tilde" format="2">
  <advance width="1024"/>
  <unicode hex="02DC"/>
  <outline>
    <contour>
      <point x="237.0" y="1195.0" type="line"/>
      <point x="263.0" y="1240.0"/>
      <point x="349.0" y="1317.0"/>
      <point x="404.0" y="1317.0" type="qcurve" smooth="yes"/>
      <point x="437.0" y="1317.0"/>
      <point x="494.0" y="1296.0"/>
      <point x="525.0" y="1278.0" type="qcurve" smooth="yes"/>
      <point x="546.0" y="1265.0"/>
      <point x="615.0" y="1227.0"/>
      <point x="649.0" y="1227.0" type="qcurve" smooth="yes"/>
      <point x="680.0" y="1227.0"/>
      <point x="741.0" y="1266.0"/>
      <point x="760.0" y="1293.0" type="qcurve"/>
      <point x="787.0" y="1265.0" type="line"/>
      <point x="758.0" y="1210.0"/>
      <point x="679.0" y="1150.0"/>
      <point x="636.0" y="1150.0" type="qcurve" smooth="yes"/>
      <point x="597.0" y="1150.0"/>
      <point x="521.0" y="1182.0"/>
      <point x="499.0" y="1197.0" type="qcurve" smooth="yes"/>
      <point x="473.0" y="1214.0"/>
      <point x="414.0" y="1240.0"/>
      <point x="391.0" y="1240.0" type="qcurve" smooth="yes"/>
      <point x="353.0" y="1240.0"/>
      <point x="284.0" y="1187.0"/>
      <point x="269.0" y="1167.0" type="qcurve"/>
    </contour>
  </outline>
</glyph>
<glyph name="hungarumlaut" format="2">
  <advance width="1024"/>
  <unicode hex="02DD"/>
  <outline>
    <contour>
      <point x="631" y="1418" type="qcurve" smooth="yes"/>
      <point x="631" y="1403"/>
      <point x="610" y="1372"/>
      <point x="593" y="1358" type="qcurve" smooth="yes"/>
      <point x="343" y="1151" type="line"/>
      <point x="320" y="1177" type="line"/>
      <point x="519" y="1413" type="line" smooth="yes"/>
      <point x="537" y="1434"/>
      <point x="568" y="1457"/>
      <point x="587" y="1457" type="qcurve" smooth="yes"/>
      <point x="606" y="1457"/>
      <point x="631" y="1432"/>
    </contour>
    <contour>
      <point x="891" y="1418" type="qcurve" smooth="yes"/>
      <point x="891" y="1403"/>
      <point x="870" y="1372"/>
      <point x="853" y="1358" type="qcurve" smooth="yes"/>
      <point x="603" y="1151" type="line"/>
      <point x="580" y="1177" type="line"/>
      <point x="779" y="1413" type="line" smooth="yes"/>
      <point x="797" y="1434"/>
      <point x="828" y="1457"/>
      <point x="847" y="1457" type="qcurve" smooth="yes"/>
      <point x="866" y="1457"/>
      <point x="891" y="1432"/>
    </contour>
  </outline>
</glyph>
<glyph name="hookabovecomb" format="2">
  <advance width="1024"/>
  <unicode hex="0309"/>
  <anchor x="512.0" y="1000" name="_top"/>
  <anchor x="512.0" y="1571.0" name="top"/>
  <outline>
    <contour>
      <point x="433.0" y="1150.0" type="line"/>
      <point x="433.0" y="1284.0" type="line"/>
      <point x="461.0" y="1308.0" type="line"/>
      <point x="477.0" y="1303.0"/>
      <point x="528.0" y="1297.0"/>
      <point x="560.0" y="1297.0" type="qcurve" smooth="yes"/>
      <point x="628.0" y="1297.0"/>
      <point x="689.0" y="1362.0"/>
      <point x="689.0" y="1408.0" type="qcurve" smooth="yes"/>
      <point x="689.0" y="1468.0"/>
      <point x="595.0" y="1513.0"/>
      <point x="532.0" y="1513.0" type="qcurve" smooth="yes"/>
      <point x="488.0" y="1513.0"/>
      <point x="393.0" y="1492.0"/>
      <point x="356.0" y="1476.0" type="qcurve"/>
      <point x="338.0" y="1526.0" type="line"/>
      <point x="382.0" y="1546.0"/>
      <point x="486.0" y="1571.0"/>
      <point x="546.0" y="1571.0" type="qcurve" smooth="yes"/>
      <point x="653.0" y="1571.0"/>
      <point x="769.0" y="1498.0"/>
      <point x="769.0" y="1410.0" type="qcurve" smooth="yes"/>
      <point x="769.0" y="1327.0"/>
      <point x="651.0" y="1241.0"/>
      <point x="572.0" y="1241.0" type="qcurve" smooth="yes"/>
      <point x="546.0" y="1241.0"/>
      <point x="509.0" y="1245.0"/>
      <point x="496.0" y="1249.0" type="qcurve"/>
      <point x="496.0" y="1150.0" type="line"/>
    </contour>
  </outline>
</glyph>
<glyph name="breveinvertedcomb" format="2">
  <advance width="1024"/>
  <unicode hex="030F"/>
  <anchor x="512.0" y="1000" name="_top"/>
  <anchor x="512.0" y="1369" name="top"/>
  <outline>
    <contour>
      <point x="289" y="1144" type="qcurve"/>
      <point x="249" y="1153" type="line"/>
      <point x="265" y="1233"/>
      <point x="407" y="1369"/>
      <point x="511" y="1369" type="qcurve" smooth="yes"/>
      <point x="616" y="1369"/>
      <point x="757" y="1244"/>
      <point x="775" y="1155" type="qcurve"/>
      <point x="732" y="1143" type="line"/>
      <point x="706" y="1199"/>
      <point x="599" y="1287"/>
      <point x="510" y="1287" type="qcurve" smooth="yes"/>
      <point x="420" y="1287"/>
      <point x="310" y="1198"/>
    </contour>
  </outline>
</glyph>
<glyph name="dblgravecomb" format="2">
  <advance width="1024"/>
  <unicode hex="0311"/>
  <anchor x="512.0" y="1000" name="_top"/>
  <anchor x="512.0" y="1457" name="top"/>
  <outline>
    <contour>
      <point x="170" y="1418" type="qcurve" smooth="yes"/>
      <point x="170" y="1432"/>
      <point x="195" y="1457"/>
      <point x="214" y="1457" type="qcurve" smooth="yes"/>
      <point x="233" y="1457"/>
      <point x="264" y="1434"/>
      <point x="282" y="1413" type="qcurve" smooth="yes"/>
      <point x="481" y="1177" type="line"/>
      <point x="458" y="1151" type="line"/>
      <point x="208" y="1358" type="line" smooth="yes"/>
      <point x="191" y="1372"/>
      <point x="170" y="1403"/>
    </contour>
    <contour>
      <point x="430" y="1418" type="qcurve" smooth="yes"/>
      <point x="430" y="1432"/>
      <point x="455" y="1457"/>
      <point x="474" y="1457" type="qcurve" smooth="yes"/>
      <point x="493" y="1457"/>
      <point x="524" y="1434"/>
      <point x="542" y="1413" type="qcurve" smooth="yes"/>
      <point x="741" y="1177" type="line"/>
      <point x="718" y="1151" type="line"/>
      <point x="468" y="1358" type="line" smooth="yes"/>
      <point x="451" y="1372"/>
      <point x="430" y="1403"/>
    </contour>
  </outline>
</glyph>
<glyph name="horncomb" format="2">
  <advance width="1024"/>
  <unicode hex="031B"/>
  <anchor x="0" y="1000" name="_topright"/>
  <anchor x="0" y="1256" name="topright"/>
  <outline>
    <contour>
      <point x="0" y="1000" type="line"/>
      <point x="43" y="991"/>
      <point x="104" y="979"/>
      <point x="171" y="979" type="qcurve" smooth="yes"/>
      <point x="237" y="979"/>
      <point x="319" y="1033"/>
      <point x="319" y="1085" type="qcurve" smooth="yes"/>
      <point x="319" y="1120"/>
      <point x="309" y="1196"/>
      <point x="287" y="1256" type="qcurve"/>
      <point x="345" y="1256" type="line"/>
      <point x="361" y="1217"/>
      <point x="386" y="1126"/>
      <point x="386" y="1083" type="qcurve" smooth="yes"/>
      <point x="386" y="993"/>
      <point x="277" y="913"/>
      <point x="169" y="913" type="qcurve" smooth="yes"/>
      <point x="131" y="913"/>
      <point x="51" y="930"/>
      <point x="0" y="949" type="qcurve"/>
    </contour>
  </outline>
</glyph>
<glyph name="dotbelowcomb" format="2">
  <advance width="1024"/>
  <unicode hex="0323"/>
  <anchor x="512.0" y="0" name="_bottom"/>
  <anchor x="512.0" y="-355.0" name="bottom"/>
  <outline>
    <contour>
      <point x="429.0" y="-273.0" type="qcurve" smooth="yes"/>
      <point x="429.0" y="-234.0"/>
      <point x="471.0" y="-191.0"/>
      <point x="511.0" y="-191.0" type="qcurve" smooth="yes"/>
      <point x="550.0" y="-191.0"/>
      <point x="595.0" y="-236.0"/>
      <point x="595.0" y="-273.0" type="qcurve" smooth="yes"/>
      <point x="595.0" y="-312.0"/>
      <point x="553.0" y="-355.0"/>
      <point x="511.0" y="-355.0" type="qcurve" smooth="yes"/>
      <point x="473.0" y="-355.0"/>
      <point x="429.0" y="-311.0"/>
    </contour>
  </outline>
</glyph>
<glyph name="dieresisbelowcomb" format="2">
  <advance width="1024"/>
  <unicode hex="0324"/>
  <anchor x="512.0" y="0" name="_bottom"/>
  <anchor x="512.0" y="-364" name="bottom"/>
  <outline>
    <contour>
      <point x="275" y="-289" type="qcurve" smooth="yes"/>
      <point x="275" y="-254"/>
      <point x="315" y="-215"/>
      <point x="352" y="-215" type="qcurve" smooth="yes"/>
      <point x="386" y="-215"/>
      <point x="426" y="-256"/>
      <point x="426" y="-289" type="qcurve" smooth="yes"/>
      <point x="426" y="-325"/>
      <point x="389" y="-364"/>
      <point x="352" y="-364" type="qcurve" smooth="yes"/>
      <point x="316" y="-364"/>
      <point x="275" y="-324"/>
    </contour>
    <contour>
      <point x="598" y="-289" type="qcurve" smooth="yes"/>
      <point x="598" y="-254"/>
      <point x="636" y="-215"/>
      <point x="672" y="-215" type="qcurve" smooth="yes"/>
      <point x="708" y="-215"/>
      <point x="749" y="-256"/>
      <point x="749" y="-289" type="qcurve" smooth="yes"/>
      <point x="749" y="-325"/>
      <point x="710" y="-364"/>
      <point x="672" y="-364" type="qcurve" smooth="yes"/>
      <point x="638" y="-364"/>
      <point x="598" y="-324"/>
    </contour>
  </outline>
</glyph>
<glyph name="commaaccentcomb" format="2">
  <advance width="1024"/>
  <unicode hex="0326"/>
  <anchor x="512.0" y="0" name="_bottom"/>
  <anchor x="512.0" y="-536.0" name="bottom"/>
  <outline>
    <contour>
      <point x="420.0" y="-516.0" type="line"/>
      <point x="464.0" y="-480.0"/>
      <point x="532.0" y="-390.0"/>
      <point x="548.0" y="-334.0" type="qcurve"/>
      <point x="489.0" y="-343.0"/>
      <point x="435.0" y="-293.0"/>
      <point x="435.0" y="-254.0" type="qcurve" smooth="yes"/>
      <point x="435.0" y="-216.0"/>
      <point x="485.0" y="-165.0"/>
      <point x="524.0" y="-165.0" type="qcurve" smooth="yes"/>
      <point x="561.0" y="-165.0"/>
      <point x="613.0" y="-216.0"/>
      <point x="613.0" y="-262.0" type="qcurve" smooth="yes"/>
      <point x="613.0" y="-342.0"/>
      <point x="505.0" y="-490.0"/>
      <point x="434.0" y="-536.0" type="qcurve"/>
    </contour>
  </outline>
</glyph>
<glyph name="brevebelowcomb" format="2">
  <advance width="1024"/>
  <unicode hex="032E"/>
  <outline>
    <contour>
      <point x="735" y="-129" type="qcurve"/>
      <point x="775" y="-138" type="line"/>
      <point x="759" y="-218"/>
      <point x="617" y="-354"/>
      <point x="513" y="-354" type="qcurve" smooth="yes"/>
      <point x="408" y="-354"/>
      <point x="267" y="-229"/>
      <point x="249" y="-140" type="qcurve"/>
      <point x="292" y="-128" type="line"/>
      <point x="318" y="-184"/>
      <point x="425" y="-272"/>
      <point x="514" y="-272" type="qcurve" smooth="yes"/>
      <point x="604" y="-272"/>
      <point x="714" y="-183"/>
    </contour>
  </outline>
</glyph>
<glyph name="macronbelowcomb" format="2">
  <advance width="1024"/>
  <unicode hex="0331"/>
  <outline>
    <contour>
      <point x="256" y="-262" type="line"/>
      <point x="256" y="-183" type="line"/>
      <point x="768" y="-183" type="line"/>
      <point x="768" y="-262" type="line"/>
    </contour>
  </outline>
</glyph>
<glyph name="numeralsign" format="2">
	<unicode hex="0374"/>
	<advance width="349"/>
	<outline>
		<contour>
			<point x="71" y="1026" type="line"/>
			<point x="49" y="1034" type="line"/>
			<point x="170" y="1500" type="line"/>
			<point x="248" y="1491" type="line"/>
			<point x="261" y="1470" type="line"/>
		</contour>
	</outline>
</glyph>
<glyph name="lownumeralsign" format="2">
	<unicode hex="0375"/>
	<advance width="349"/>
	<outline>
		<contour>
			<point x="61" y="-209" type="line"/>
			<point x="-17" y="-200" type="line"/>
			<point x="-30" y="-179" type="line"/>
			<point x="160" y="265" type="line"/>
			<point x="182" y="257" type="line"/>
		</contour>
	</outline>
</glyph>
<glyph name="tonos" format="2">
	<unicode hex="0384"/>
	<advance width="888"/>
	<outline>
		<contour>
			<point x="412" y="1160" type="line"/>
			<point x="379" y="1171" type="line"/>
			<point x="493" y="1604" type="line"/>
			<point x="571" y="1595" type="line"/>
			<point x="584" y="1574" type="line"/>
		</contour>
	</outline>
	<guideline x="737" y="1160" angle="0" identifier="0EvbGaTcBw"/>
</glyph>
<glyph name="dieresistonos" format="2">
  <advance width="1138"/>
  <unicode hex="0385"/>
  <anchor x="562" y="1000" name="_GRKtop"/>
  <outline>
    <contour>
      <point x="342" y="1114" type="qcurve" smooth="yes"/>
      <point x="306" y="1114"/>
      <point x="265" y="1154"/>
      <point x="265" y="1189" type="qcurve" smooth="yes"/>
      <point x="265" y="1224"/>
      <point x="305" y="1263"/>
      <point x="342" y="1263" type="qcurve" smooth="yes"/>
      <point x="376" y="1263"/>
      <point x="416" y="1222"/>
      <point x="416" y="1189" type="qcurve" smooth="yes"/>
      <point x="416" y="1153"/>
      <point x="379" y="1114"/>
    </contour>
    <contour>
      <point x="564" y="1110" type="line"/>
      <point x="529" y="1116" type="line"/>
      <point x="581" y="1560" type="line"/>
      <point x="660" y="1562" type="line"/>
      <point x="676" y="1543" type="line"/>
    </contour>
    <contour>
      <point x="796" y="1114" type="qcurve" smooth="yes"/>
      <point x="762" y="1114"/>
      <point x="722" y="1154"/>
      <point x="722" y="1189" type="qcurve" smooth="yes"/>
      <point x="722" y="1224"/>
      <point x="760" y="1263"/>
      <point x="796" y="1263" type="qcurve" smooth="yes"/>
      <point x="832" y="1263"/>
      <point x="873" y="1222"/>
      <point x="873" y="1189" type="qcurve" smooth="yes"/>
      <point x="873" y="1153"/>
      <point x="834" y="1114"/>
    </contour>
  </outline>
</glyph>
<glyph name="Gamma" format="2">
  <advance width="1172"/>
  <unicode hex="0393"/>
  <outline>
    <contour>
      <point x="88" y="0" type="line"/>
      <point x="88" y="48" type="line"/>
      <point x="317" y="83" type="line"/>
      <point x="318" y="763" type="line"/>
      <point x="317" y="1419" type="line"/>
      <point x="88" y="1453" type="line"/>
      <point x="88" y="1500" type="line"/>
      <point x="1097" y="1500" type="line"/>
      <point x="1097" y="1150" type="line"/>
      <point x="1043" y="1150" type="line"/>
      <point x="1010" y="1443" type="line"/>
      <point x="421" y="1443" type="line"/>
      <point x="394" y="1417" type="line"/>
      <point x="393" y="763" type="line"/>
      <point x="394" y="83" type="line"/>
      <point x="660" y="48" type="line"/>
      <point x="660" y="0" type="line"/>
    </contour>
  </outline>
</glyph>
<glyph name="Delta" format="2">
	<unicode hex="0394"/>
	<advance width="1502"/>
	<outline>
		<contour>
			<point x="133" y="0" type="line"/>
			<point x="133" y="57" type="line"/>
			<point x="325" y="541" type="line"/>
			<point x="704" y="1508" type="line"/>
			<point x="782" y="1508" type="line"/>
			<point x="1154" y="539" type="line"/>
			<point x="1338" y="57" type="line"/>
			<point x="1338" y="0" type="line"/>
		</contour>
		<contour>
			<point x="209" y="66" type="line"/>
			<point x="723" y="62" type="line"/>
			<point x="1254" y="67" type="line"/>
			<point x="1081" y="518" type="line"/>
			<point x="737" y="1413" type="line"/>
			<point x="388" y="521" type="line"/>
		</contour>
	</outline>
</glyph>
<glyph name="Theta" format="2">
  <advance width="1664"/>
  <unicode hex="0398"/>
  <outline>
    <contour>
      <point x="372" y="791.0" type="line"/>
      <point x="833" y="776.0" type="line"/>
      <point x="1293" y="791.0" type="line"/>
      <point x="1293" y="698.0" type="line"/>
      <point x="833" y="713.0" type="line"/>
      <point x="372" y="698.0" type="line"/>
    </contour>
    <component base="O"/>
  </outline>
</glyph>
<glyph name="Xi" format="2">
  <advance width="1373"/>
  <unicode hex="039E"/>
  <guideline x="685" y="829" angle="90" identifier="k0HBKSVEYv"/>
  <outline>
    <contour>
      <point x="101" y="0" type="line"/>
      <point x="61" y="370" type="line"/>
      <point x="114" y="370" type="line"/>
      <point x="188" y="83" type="line"/>
      <point x="685" y="81" type="line"/>
      <point x="1185" y="83" type="line"/>
      <point x="1259" y="370" type="line"/>
      <point x="1312" y="370" type="line"/>
      <point x="1272" y="0" type="line"/>
    </contour>
    <contour>
      <point x="306" y="539" type="line"/>
      <point x="306" y="974" type="line"/>
      <point x="359" y="974" type="line"/>
      <point x="386" y="798" type="line"/>
      <point x="687" y="788" type="line"/>
      <point x="987" y="798" type="line"/>
      <point x="1014" y="974" type="line"/>
      <point x="1067" y="974" type="line"/>
      <point x="1067" y="539" type="line"/>
      <point x="1014" y="539" type="line"/>
      <point x="987" y="715" type="line"/>
      <point x="687" y="725" type="line"/>
      <point x="386" y="715" type="line"/>
      <point x="359" y="539" type="line"/>
    </contour>
    <contour>
      <point x="105" y="1142" type="line"/>
      <point x="105" y="1500" type="line"/>
      <point x="1268" y="1500" type="line"/>
      <point x="1268" y="1142" type="line"/>
      <point x="1214" y="1142" type="line"/>
      <point x="1174" y="1417" type="line"/>
      <point x="685" y="1419" type="line"/>
      <point x="199" y="1417" type="line"/>
      <point x="159" y="1142" type="line"/>
    </contour>
  </outline>
</glyph>
<glyph name="Pi" format="2">
  <advance width="1682"/>
  <unicode hex="03A0"/>
  <outline>
    <contour>
      <point x="88" y="0" type="line"/>
      <point x="88" y="48" type="line"/>
      <point x="316" y="83" type="line"/>
      <point x="318" y="754" type="line"/>
      <point x="316" y="1419" type="line"/>
      <point x="88" y="1453" type="line"/>
      <point x="88" y="1500" type="line"/>
      <point x="1594" y="1500" type="line"/>
      <point x="1594" y="1453" type="line"/>
      <point x="1366" y="1419" type="line"/>
      <point x="1364" y="754" type="line"/>
      <point x="1366" y="83" type="line"/>
      <point x="1594" y="48" type="line"/>
      <point x="1594" y="0" type="line"/>
      <point x="1048" y="0" type="line"/>
      <point x="1048" y="48" type="line"/>
      <point x="1286" y="83" type="line"/>
      <point x="1288" y="754" type="line"/>
      <point x="1286" y="1419" type="line"/>
      <point x="396" y="1419" type="line"/>
      <point x="394" y="754" type="line"/>
      <point x="396" y="83" type="line"/>
      <point x="634" y="48" type="line"/>
      <point x="634" y="0" type="line"/>
    </contour>
  </outline>
</glyph>
<glyph name="Sigma" format="2">
  <advance width="1217"/>
  <unicode hex="03A3"/>
  <outline>
    <contour>
      <point x="59" y="0" type="line"/>
      <point x="40" y="56" type="line"/>
      <point x="582" y="758" type="line"/>
      <point x="109" y="1441" type="line"/>
      <point x="109" y="1500" type="line"/>
      <point x="1143" y="1500" type="line"/>
      <point x="1143" y="1120" type="line"/>
      <point x="1095" y="1120" type="line"/>
      <point x="1043" y="1443" type="line"/>
      <point x="231" y="1443" type="line"/>
      <point x="225" y="1433" type="line"/>
      <point x="669" y="793" type="line"/>
      <point x="669" y="773" type="line"/>
      <point x="138" y="79" type="line"/>
      <point x="143" y="67" type="line"/>
      <point x="1012" y="67" type="line"/>
      <point x="1101" y="371" type="line"/>
      <point x="1156" y="371" type="line"/>
      <point x="1112" y="0" type="line"/>
    </contour>
  </outline>
</glyph>
<glyph name="Phi" format="2">
  <advance width="1508"/>
  <unicode hex="03A6"/>
  <outline>
    <contour>
      <point x="566" y="0" type="line"/>
      <point x="566" y="48" type="line"/>
      <point x="767" y="83" type="line"/>
      <point x="769" y="754" type="line"/>
      <point x="767" y="1419" type="line"/>
      <point x="566" y="1453" type="line"/>
      <point x="566" y="1500" type="line"/>
      <point x="1042" y="1500" type="line"/>
      <point x="1042" y="1453" type="line"/>
      <point x="842" y="1419" type="line"/>
      <point x="840" y="754" type="line"/>
      <point x="842" y="83" type="line"/>
      <point x="1042" y="48" type="line"/>
      <point x="1042" y="0" type="line"/>
    </contour>
    <contour>
      <point x="790" y="235" type="line"/>
      <point x="394" y="243"/>
      <point x="85" y="502"/>
      <point x="85" y="712" type="qcurve"/>
      <point x="85" y="964"/>
      <point x="421" y="1261"/>
      <point x="790" y="1261" type="qcurve"/>
      <point x="790" y="1197" type="line"/>
      <point x="456" y="1197"/>
      <point x="165" y="960"/>
      <point x="165" y="723" type="qcurve"/>
      <point x="165" y="513"/>
      <point x="434" y="310"/>
      <point x="790" y="299" type="qcurve"/>
    </contour>
    <contour>
      <point x="818" y="235" type="qcurve"/>
      <point x="818" y="299" type="line"/>
      <point x="1152" y="299"/>
      <point x="1443" y="536"/>
      <point x="1443" y="773" type="qcurve"/>
      <point x="1443" y="983"/>
      <point x="1174" y="1186"/>
      <point x="818" y="1197" type="qcurve"/>
      <point x="818" y="1261" type="line"/>
      <point x="1214" y="1253"/>
      <point x="1523" y="994"/>
      <point x="1523" y="784" type="qcurve"/>
      <point x="1523" y="532"/>
      <point x="1187" y="235"/>
    </contour>
  </outline>
</glyph>
<glyph name="Psi" format="2">
  <advance width="1827"/>
  <unicode hex="03A8"/>
  <outline>
    <contour>
      <point x="635" y="0" type="line"/>
      <point x="635" y="48" type="line"/>
      <point x="873" y="83" type="line"/>
      <point x="875" y="754" type="line"/>
      <point x="873" y="1419" type="line"/>
      <point x="665" y="1453" type="line"/>
      <point x="665" y="1500" type="line"/>
      <point x="1161" y="1500" type="line"/>
      <point x="1161" y="1453" type="line"/>
      <point x="953" y="1419" type="line"/>
      <point x="951" y="754" type="line"/>
      <point x="953" y="83" type="line"/>
      <point x="1191" y="48" type="line"/>
      <point x="1191" y="0" type="line"/>
    </contour>
    <contour>
      <point x="895" y="475" type="line"/>
      <point x="595" y="490"/>
      <point x="340" y="719"/>
      <point x="311" y="1022" type="qcurve"/>
      <point x="276" y="1419" type="line"/>
      <point x="58" y="1453" type="line"/>
      <point x="58" y="1500" type="line"/>
      <point x="341" y="1500" type="line"/>
      <point x="344" y="1498" type="line"/>
      <point x="387" y="1023" type="line"/>
      <point x="414.0" y="742.0"/>
      <point x="641.0" y="554.0"/>
      <point x="895" y="542" type="qcurve"/>
    </contour>
    <contour>
      <point x="931" y="475" type="qcurve"/>
      <point x="931" y="542" type="line"/>
      <point x="1185.0" y="554.0"/>
      <point x="1412.0" y="742.0"/>
      <point x="1439" y="1023" type="qcurve"/>
      <point x="1482" y="1498" type="line"/>
      <point x="1485" y="1500" type="line"/>
      <point x="1768" y="1500" type="line"/>
      <point x="1768" y="1453" type="line"/>
      <point x="1550" y="1419" type="line"/>
      <point x="1515" y="1022" type="line"/>
      <point x="1486" y="719"/>
      <point x="1231" y="490"/>
    </contour>
  </outline>
</glyph>
<glyph name="Omega" format="2">
  <advance width="1560"/>
  <unicode hex="03A9"/>
  <anchor x="141" y="1500" name="GRKtopleft"/>
  <outline>
    <contour>
      <point x="75" y="0" type="line"/>
      <point x="30" y="369" type="line"/>
      <point x="81" y="369" type="line"/>
      <point x="164" y="67" type="line"/>
      <point x="564" y="67" type="line"/>
      <point x="578" y="201" type="line"/>
      <point x="359" y="255"/>
      <point x="83" y="598"/>
      <point x="83" y="845" type="qcurve" smooth="yes"/>
      <point x="83" y="1127"/>
      <point x="464" y="1520"/>
      <point x="783" y="1520" type="qcurve"/>
      <point x="1098" y="1520"/>
      <point x="1480" y="1156"/>
      <point x="1480" y="857" type="qcurve"/>
      <point x="1480" y="606"/>
      <point x="1198" y="246"/>
      <point x="982" y="197" type="qcurve"/>
      <point x="997" y="67" type="line"/>
      <point x="1396" y="67" type="line"/>
      <point x="1479" y="369" type="line"/>
      <point x="1530" y="369" type="line"/>
      <point x="1485" y="0" type="line"/>
      <point x="948" y="0" type="line"/>
      <point x="920" y="247" type="line"/>
      <point x="1151" y="286"/>
      <point x="1400" y="603"/>
      <point x="1400" y="853" type="qcurve"/>
      <point x="1400" y="1116"/>
      <point x="1070" y="1459"/>
      <point x="781" y="1459" type="qcurve"/>
      <point x="500" y="1458"/>
      <point x="167" y="1146"/>
      <point x="164" y="864" type="qcurve"/>
      <point x="166" y="628"/>
      <point x="431" y="294"/>
      <point x="642" y="250" type="qcurve"/>
      <point x="612" y="0" type="line"/>
    </contour>
  </outline>
</glyph>
<glyph name="alpha" format="2">
  <advance width="1259"/>
  <unicode hex="03B1"/>
  <anchor x="527.0" y="1000" name="GRKtop"/>
  <outline>
    <contour>
      <point x="1236" y="63" type="line"/>
      <point x="1236" y="26" type="line"/>
      <point x="1092" y="-7" type="line"/>
      <point x="1063" y="-6"/>
      <point x="1031" y="14"/>
      <point x="1011" y="43" type="qcurve"/>
      <point x="997" y="63"/>
      <point x="946" y="262"/>
      <point x="921" y="397" type="qcurve"/>
      <point x="902" y="405" type="line"/>
      <point x="902.0" y="408" name="inserted"/>
      <point x="901.0" y="414.0"/>
      <point x="900" y="418" type="qcurve"/>
      <point x="885" y="413" type="line"/>
      <point x="863" y="422" type="line"/>
      <point x="870.0" y="440" name="inserted"/>
      <point x="882" y="471"/>
      <point x="886" y="484" type="qcurve"/>
      <point x="847" y="659"/>
      <point x="743" y="874"/>
      <point x="671.0" y="925" type="qcurve" smooth="yes" name="inserted"/>
      <point x="635.0" y="950" name="inserted"/>
      <point x="549.0" y="975.0"/>
      <point x="499" y="975" type="qcurve"/>
      <point x="415" y="975"/>
      <point x="280" y="900"/>
      <point x="243" y="834" type="qcurve"/>
      <point x="202" y="763"/>
      <point x="164" y="608"/>
      <point x="164" y="510" type="qcurve"/>
      <point x="164" y="294"/>
      <point x="332" y="62"/>
      <point x="488" y="62" type="qcurve"/>
      <point x="569" y="62"/>
      <point x="708" y="141"/>
      <point x="756" y="214" type="qcurve"/>
      <point x="785.0" y="258" name="inserted"/>
      <point x="838" y="359"/>
      <point x="861" y="416" type="qcurve"/>
      <point x="876" y="409" type="line"/>
      <point x="869" y="407" type="line"/>
      <point x="781" y="189"/>
      <point x="592" y="-8"/>
      <point x="470" y="-8" type="qcurve"/>
      <point x="351" y="-8"/>
      <point x="176" y="112"/>
      <point x="129.0" y="224" type="qcurve" smooth="yes" name="inserted"/>
      <point x="106" y="279" name="inserted"/>
      <point x="82.0" y="412"/>
      <point x="82" y="488" type="qcurve"/>
      <point x="82" y="606"/>
      <point x="145" y="808"/>
      <point x="202" y="875" type="qcurve"/>
      <point x="266" y="952"/>
      <point x="412" y="1020"/>
      <point x="514" y="1020" type="qcurve"/>
      <point x="671" y="1020"/>
      <point x="860" y="780"/>
      <point x="888" y="544" type="qcurve"/>
      <point x="903" y="537" type="line"/>
      <point x="905.0" y="541.0" name="inserted"/>
      <point x="909" y="552.0"/>
      <point x="910" y="559" type="qcurve"/>
      <point x="944" y="559" type="line"/>
      <point x="1099" y="983" type="line"/>
      <point x="1199" y="996" type="line"/>
      <point x="938" y="456" type="line"/>
      <point x="964" y="342"/>
      <point x="1015" y="200"/>
      <point x="1045" y="156" type="qcurve"/>
      <point x="1076" y="112"/>
      <point x="1165" y="63"/>
      <point x="1215" y="63" type="qcurve"/>
    </contour>
    <contour>
      <point x="861" y="423" type="line"/>
      <point x="863" y="422" type="line"/>
      <point x="862.0" y="420.0" name="inserted"/>
      <point x="861.0" y="417.0"/>
      <point x="861" y="416" type="qcurve"/>
      <point x="844" y="423" type="line"/>
    </contour>
    <contour>
      <point x="904" y="397" type="line"/>
      <point x="876" y="409" type="line"/>
      <point x="885" y="413" type="line"/>
      <point x="902" y="405" type="line"/>
    </contour>
  </outline>
</glyph>
<glyph name="beta" format="2">
  <advance width="1179"/>
  <unicode hex="03B2"/>
  <outline>
    <contour>
      <point x="184" y="-480" type="line"/>
      <point x="161" y="-463" type="line"/>
      <point x="172" y="82" type="line"/>
      <point x="176" y="957" type="line"/>
      <point x="176" y="1256"/>
      <point x="407" y="1538"/>
      <point x="616" y="1538" type="qcurve" smooth="yes"/>
      <point x="787" y="1538"/>
      <point x="995" y="1353"/>
      <point x="995" y="1186" type="qcurve" smooth="yes"/>
      <point x="995" y="1033"/>
      <point x="823" y="804"/>
      <point x="582" y="762" type="qcurve" smooth="yes"/>
      <point x="519" y="751" type="line"/>
      <point x="508" y="790" type="line"/>
      <point x="532" y="871" type="line"/>
      <point x="575" y="867" type="line" smooth="yes"/>
      <point x="878" y="839"/>
      <point x="1111" y="614"/>
      <point x="1111" y="418" type="qcurve" smooth="yes"/>
      <point x="1111" y="226"/>
      <point x="855" y="-21"/>
      <point x="643" y="-21" type="qcurve" smooth="yes"/>
      <point x="501" y="-21"/>
      <point x="296" y="71"/>
      <point x="209" y="172" type="qcurve"/>
      <point x="209" y="231" type="line"/>
      <point x="230" y="231" type="line"/>
      <point x="302" y="134"/>
      <point x="501" y="31"/>
      <point x="642" y="31" type="qcurve" smooth="yes"/>
      <point x="813" y="31" name="inserted"/>
      <point x="1023" y="242"/>
      <point x="1023" y="417" type="qcurve" smooth="yes"/>
      <point x="1023.0" y="621"/>
      <point x="802" y="794"/>
      <point x="624" y="800" type="qcurve"/>
      <point x="637" y="838" type="line"/>
      <point x="737" y="834"/>
      <point x="919" y="1027"/>
      <point x="919" y="1185" type="qcurve" smooth="yes"/>
      <point x="919" y="1328"/>
      <point x="746" y="1463"/>
      <point x="617" y="1463" type="qcurve" smooth="yes"/>
      <point x="424" y="1463" name="inserted"/>
      <point x="249" y="1218"/>
      <point x="252" y="954" type="qcurve"/>
      <point x="250" y="157" type="line"/>
      <point x="253" y="-474" type="line"/>
    </contour>
  </outline>
</glyph>
<glyph name="gamma" format="2">
  <advance width="960"/>
  <unicode hex="03B3"/>
  <guideline x="639" y="31" angle="0" identifier="g2zcNzszsg"/>
  <outline>
    <contour>
      <point x="480" y="-46" type="line"/>
      <point x="284" y="496" type="line"/>
      <point x="151" y="862" type="line" smooth="yes"/>
      <point x="141" y="891"/>
      <point x="104" y="921"/>
      <point x="77" y="924" type="qcurve" smooth="yes"/>
      <point x="-37" y="936" type="line"/>
      <point x="-37" y="987" type="line"/>
      <point x="120" y="1005" type="line"/>
      <point x="161" y="1005"/>
      <point x="206" y="974"/>
      <point x="219" y="932" type="qcurve" smooth="yes"/>
      <point x="354" y="518" type="line"/>
      <point x="520" y="83" type="line"/>
      <point x="687" y="523" type="line"/>
      <point x="845" y="994" type="line"/>
      <point x="919" y="1000" type="line"/>
      <point x="942" y="983" type="line"/>
      <point x="741" y="486" type="line"/>
      <point x="537" y="-46" type="line"/>
    </contour>
    <contour>
      <point x="481" y="-480" type="line"/>
      <point x="458" y="-463" type="line"/>
      <point x="475" y="34" type="line"/>
      <point x="543" y="34" type="line"/>
      <point x="555" y="-474" type="line"/>
    </contour>
  </outline>
</glyph>
<glyph name="zeta" format="2">
  <advance width="889"/>
  <unicode hex="03B6"/>
  <outline>
    <contour>
      <point x="768" y="-221" type="line"/>
      <point x="763" y="-154"/>
      <point x="736" y="-79"/>
      <point x="706.0" y="-61.0" type="qcurve" smooth="yes" name="inserted"/>
      <point x="691.0" y="-52.0" name="inserted"/>
      <point x="649" y="-41.0"/>
      <point x="621" y="-39" type="qcurve"/>
      <point x="590" y="-36" type="line"/>
      <point x="417" y="-25"/>
      <point x="199" y="68"/>
      <point x="147" y="154" type="qcurve" smooth="yes" name="inserted"/>
      <point x="120" y="196" name="inserted"/>
      <point x="94.0" y="304.0"/>
      <point x="94" y="369" type="qcurve"/>
      <point x="94" y="452"/>
      <point x="159" y="637"/>
      <point x="221" y="731" type="qcurve"/>
      <point x="299" y="849" name="inserted"/>
      <point x="595" y="1210.0"/>
      <point x="813" y="1454" type="qcurve"/>
      <point x="173" y="1443" type="line"/>
      <point x="167" y="1450" type="line"/>
      <point x="180" y="1564" type="line"/>
      <point x="840" y="1546" type="line"/>
      <point x="840" y="1426" type="line"/>
      <point x="601" y="1154"/>
      <point x="308" y="790"/>
      <point x="263" y="712" type="qcurve"/>
      <point x="211" y="619"/>
      <point x="161" y="457"/>
      <point x="161" y="381" type="qcurve"/>
      <point x="161" y="277"/>
      <point x="263" y="144"/>
      <point x="370.0" y="110" type="qcurve" smooth="yes" name="inserted"/>
      <point x="424" y="92" name="inserted"/>
      <point x="563" y="72"/>
      <point x="648" y="68" type="qcurve"/>
      <point x="726" y="64" type="line"/>
      <point x="784" y="62"/>
      <point x="831" y="16"/>
      <point x="829" y="-38" type="qcurve"/>
      <point x="773" y="-282" type="line"/>
    </contour>
  </outline>
</glyph>
<glyph name="eta" format="2">
	<unicode hex="03B7"/>
	<advance width="1095"/>
	<outline>
		<contour>
			<point x="984" y="-480" type="line"/>
			<point x="961" y="-463" type="line"/>
			<point x="976" y="328" type="line"/>
			<point x="976" y="679" type="line" smooth="yes"/>
			<point x="976" y="822"/>
			<point x="852" y="941"/>
			<point x="740" y="941" type="qcurve"/>
			<point name="inserted" x="607" y="941"/>
			<point x="415" y="812"/>
			<point x="372" y="733" type="qcurve"/>
			<point x="372" y="555" type="line"/>
			<point x="372" y="6" type="line"/>
			<point x="299" y="0" type="line"/>
			<point x="276" y="17" type="line"/>
			<point x="301" y="723" type="line"/>
			<point x="299" y="845"/>
			<point x="254" y="920"/>
			<point x="212" y="924" type="qcurve" smooth="yes"/>
			<point x="98" y="936" type="line"/>
			<point x="98" y="987" type="line"/>
			<point x="255" y="1005" type="line"/>
			<point x="314" y="1007"/>
			<point x="363" y="931"/>
			<point x="370" y="810" type="qcurve"/>
			<point x="371" y="810" type="line"/>
			<point x="418" y="891"/>
			<point x="607" y="1021"/>
			<point x="754" y="1021" type="qcurve" smooth="yes"/>
			<point x="878" y="1021"/>
			<point x="1043" y="874"/>
			<point x="1049" y="680" type="qcurve" smooth="yes"/>
			<point x="1049" y="331" type="line"/>
			<point x="1053" y="-474" type="line"/>
		</contour>
	</outline>
	<anchor name="GRKtop" x="567" y="1000"/>
</glyph>
<glyph name="theta" format="2">
  <advance width="1158"/>
  <unicode hex="03B8"/>
  <outline>
    <contour>
      <point x="573" y="-22" type="qcurve" smooth="yes"/>
      <point x="335" y="-22"/>
      <point x="78" y="344"/>
      <point x="78" y="731" type="qcurve"/>
      <point x="78" y="1116"/>
      <point x="349" y="1538"/>
      <point x="590" y="1538" type="qcurve" smooth="yes"/>
      <point x="823" y="1538"/>
      <point x="1079" y="1164"/>
      <point x="1080" y="790" type="qcurve"/>
      <point x="1080" y="399"/>
      <point x="802" y="-22"/>
    </contour>
    <contour>
      <point x="574" y="30" type="qcurve" smooth="yes"/>
      <point x="769" y="30" name="inserted"/>
      <point x="994" y="414"/>
      <point x="994" y="752" type="qcurve"/>
      <point x="994" y="1113"/>
      <point x="804" y="1478"/>
      <point x="587" y="1478" type="qcurve" smooth="yes"/>
      <point x="390" y="1478" name="inserted"/>
      <point x="162" y="1118"/>
      <point x="162" y="748" type="qcurve"/>
      <point x="162" y="371"/>
      <point x="375" y="30"/>
    </contour>
    <contour>
      <point x="115" y="701" type="line"/>
      <point x="115" y="797" type="line"/>
      <point x="580" y="770" type="line"/>
      <point x="1034" y="797" type="line"/>
      <point x="1034" y="701" type="line"/>
      <point x="580" y="723" type="line"/>
    </contour>
  </outline>
</glyph>
<glyph name="lambda" format="2">
  <advance width="1002"/>
  <unicode hex="03BB"/>
  <outline>
    <contour>
      <point x="887" y="-8" type="line"/>
      <point x="836.0" y="-8"/>
      <point x="762" y="33"/>
      <point x="742" y="91" type="qcurve" smooth="yes"/>
      <point x="433" y="972" type="line"/>
      <point x="332" y="1234" type="line" smooth="yes"/>
      <point x="274" y="1385"/>
      <point x="231" y="1451"/>
      <point x="173" y="1457" type="qcurve" smooth="yes"/>
      <point x="58" y="1469" type="line"/>
      <point x="58" y="1520" type="line"/>
      <point x="206" y="1538" type="line"/>
      <point x="257" y="1538"/>
      <point x="316" y="1476"/>
      <point x="345" y="1394" type="qcurve" smooth="yes"/>
      <point x="467" y="1052" type="line"/>
      <point x="800" y="171" type="line" smooth="yes"/>
      <point x="819" y="120"/>
      <point x="887.0" y="68.0"/>
      <point x="924" y="68" type="qcurve" smooth="yes"/>
      <point x="992" y="68" type="line"/>
      <point x="992" y="23" type="line"/>
    </contour>
    <contour>
      <point x="13" y="0" type="line"/>
      <point x="-10" y="17" type="line"/>
      <point x="173" y="407" type="line"/>
      <point x="441" y="1018" type="line"/>
      <point x="466" y="951" type="line"/>
      <point x="231" y="370" type="line"/>
      <point x="97" y="6" type="line"/>
    </contour>
  </outline>
</glyph>
<glyph name="mu" format="2">
  <advance width="1187"/>
  <unicode hex="03BC"/>
  <outline>
    <contour>
      <point x="194" y="-480" type="line"/>
      <point x="171" y="-463" type="line"/>
      <point x="184" y="376" type="line"/>
      <point x="177" y="994" type="line"/>
      <point x="251" y="1000" type="line"/>
      <point x="274" y="983" type="line"/>
      <point x="259" y="370" type="line"/>
      <point x="259.0" y="207.0"/>
      <point x="399.0" y="62"/>
      <point x="531" y="62" type="qcurve" smooth="yes"/>
      <point x="619" y="62"/>
      <point x="820" y="161"/>
      <point x="879" y="259" type="qcurve"/>
      <point x="876" y="460" type="line"/>
      <point x="867" y="994" type="line"/>
      <point x="941" y="1000" type="line"/>
      <point x="964" y="983" type="line"/>
      <point x="950" y="273" type="line"/>
      <point x="950" y="168"/>
      <point x="994" y="66"/>
      <point x="1085" y="68" type="qcurve"/>
      <point x="1132" y="68" type="line"/>
      <point x="1132" y="23" type="line"/>
      <point x="1027" y="-8" type="line"/>
      <point x="944" y="-5"/>
      <point x="887" y="64"/>
      <point x="881" y="164" type="qcurve"/>
      <point x="879" y="164" type="line"/>
      <point x="823" y="95"/>
      <point x="621" y="-18"/>
      <point x="523" y="-18" type="qcurve"/>
      <point x="432" y="-18"/>
      <point x="287" y="60"/>
      <point x="261" y="110" type="qcurve"/>
      <point x="263" y="-474" type="line"/>
    </contour>
  </outline>
</glyph>
<glyph name="xi" format="2">
  <advance width="945"/>
  <unicode hex="03BE"/>
  <outline>
    <contour>
      <point x="767" y="-293" type="line"/>
      <point x="752" y="-138" type="line" smooth="yes"/>
      <point x="745" y="-66"/>
      <point x="709" y="-18"/>
      <point x="664" y="-15" type="qcurve" smooth="yes"/>
      <point x="638" y="-13" type="line" smooth="yes"/>
      <point x="349" y="9"/>
      <point x="78.0" y="200.0"/>
      <point x="78" y="374" type="qcurve" smooth="yes"/>
      <point x="78" y="539"/>
      <point x="304" y="749"/>
      <point x="454" y="774" type="qcurve"/>
      <point x="454" y="778" type="line"/>
      <point x="309" y="812"/>
      <point x="176" y="987"/>
      <point x="176" y="1084" type="qcurve"/>
      <point x="176" y="1211"/>
      <point x="350" y="1391"/>
      <point x="541" y="1429" type="qcurve"/>
      <point x="170" y="1424" type="line"/>
      <point x="147" y="1441" type="line"/>
      <point x="158" y="1524" type="line"/>
      <point x="897" y="1513" type="line"/>
      <point x="897" y="1452" type="line"/>
      <point x="575" y="1424"/>
      <point x="253" y="1247"/>
      <point x="253" y="1090" type="qcurve" smooth="yes"/>
      <point x="253" y="1005" name="inserted"/>
      <point x="363" y="865"/>
      <point x="551" y="814" type="qcurve"/>
      <point x="753" y="847" type="line"/>
      <point x="764" y="808" type="line"/>
      <point x="740" y="727" type="line"/>
      <point x="542" y="747" type="line"/>
      <point x="394" y="724"/>
      <point x="161" y="546"/>
      <point x="161" y="374" type="qcurve" smooth="yes"/>
      <point x="161.0" y="238.0"/>
      <point x="371" y="90"/>
      <point x="679" y="68" type="qcurve" smooth="yes"/>
      <point x="721" y="65" type="line" smooth="yes"/>
      <point x="785" y="60"/>
      <point x="833" y="16"/>
      <point x="834" y="-38" type="qcurve"/>
      <point x="819" y="-293" type="line"/>
    </contour>
  </outline>
</glyph>
<glyph name="finalsigma" format="2">
	<unicode hex="03C2"/>
	<advance width="929"/>
	<outline>
		<contour>
			<point x="757" y="-293" type="line"/>
			<point x="742" y="-138" type="line" smooth="yes"/>
			<point x="735" y="-66"/>
			<point x="699" y="-18"/>
			<point x="654" y="-15" type="qcurve" smooth="yes"/>
			<point x="628" y="-13" type="line" smooth="yes"/>
			<point x="375" y="6"/>
			<point x="68" y="242"/>
			<point x="68" y="492" type="qcurve" smooth="yes"/>
			<point x="68" y="733"/>
			<point x="323" y="1020"/>
			<point x="547" y="1020" type="qcurve"/>
			<point x="642" y="1020"/>
			<point x="832" y="968"/>
			<point x="884" y="931" type="qcurve"/>
			<point x="892" y="679" type="line"/>
			<point x="840" y="679" type="line"/>
			<point x="777" y="913" type="line"/>
			<point x="747" y="935"/>
			<point x="607" y="964"/>
			<point x="551" y="964" type="qcurve"/>
			<point x="355" y="964"/>
			<point x="151" y="718"/>
			<point x="151" y="490" type="qcurve" smooth="yes"/>
			<point x="151" y="290"/>
			<point x="390" y="88"/>
			<point x="669" y="68" type="qcurve" smooth="yes"/>
			<point x="711" y="65" type="line" smooth="yes"/>
			<point x="775" y="60"/>
			<point x="823" y="16"/>
			<point x="824" y="-38" type="qcurve"/>
			<point x="809" y="-293" type="line"/>
		</contour>
	</outline>
</glyph>
<glyph name="sigma" format="2">
  <advance width="1174"/>
  <unicode hex="03C3"/>
  <outline>
    <contour>
      <point x="538" y="-22" type="qcurve" smooth="yes" identifier="rFrmG5o5uT"/>
      <point x="321" y="-22"/>
      <point x="68" y="245"/>
      <point x="68" y="452" type="qcurve" smooth="yes"/>
      <point x="68" y="679.0"/>
      <point x="339" y="974"/>
      <point x="621" y="987" type="qcurve" smooth="yes"/>
      <point x="1108" y="1010" type="line"/>
      <point x="1131" y="993" type="line"/>
      <point x="1120" y="915" type="line"/>
      <point x="663" y="916" type="line" smooth="yes"/>
      <point x="397" y="917"/>
      <point x="152" y="657.0"/>
      <point x="152" y="452" type="qcurve" smooth="yes"/>
      <point x="152" y="269"/>
      <point x="357" y="31"/>
      <point x="543" y="31" type="qcurve" smooth="yes" identifier="r65XKZqJSi"/>
      <point x="731" y="31"/>
      <point x="933" y="290"/>
      <point x="933" y="478" type="qcurve" smooth="yes"/>
      <point x="933.0" y="630"/>
      <point x="818" y="860"/>
      <point x="700" y="937" type="qcurve"/>
      <point x="700" y="958" type="line"/>
      <point x="727" y="958" type="line"/>
      <point x="867" y="884"/>
      <point x="1015.0" y="634.0"/>
      <point x="1015" y="479" type="qcurve" smooth="yes"/>
      <point x="1015.0" y="270.0"/>
      <point x="752" y="-22"/>
    </contour>
  </outline>
</glyph>
<glyph name="upsilon" format="2">
  <advance width="1111"/>
  <unicode hex="03C5"/>
  <anchor x="574.0" y="1000" name="GRKtop"/>
  <outline>
    <contour>
      <point x="585" y="-18" type="qcurve"/>
      <point x="404" y="-18"/>
      <point x="240" y="190"/>
      <point x="248" y="381" type="qcurve"/>
      <point x="248" y="718" type="line"/>
      <point x="248" y="840.0" name="inserted"/>
      <point x="204" y="920"/>
      <point x="155" y="925" type="qcurve" smooth="yes"/>
      <point x="46" y="936" type="line"/>
      <point x="46" y="987" type="line"/>
      <point x="203" y="1005" type="line"/>
      <point x="271" y="1008"/>
      <point x="323" y="893"/>
      <point x="323" y="810" type="qcurve" smooth="yes"/>
      <point x="322" y="382" type="line" smooth="yes"/>
      <point x="322" y="223"/>
      <point x="445" y="62"/>
      <point x="603" y="62" type="qcurve" smooth="yes"/>
      <point x="782.0" y="62.0"/>
      <point x="950" y="266"/>
      <point x="950" y="508" type="qcurve" smooth="yes"/>
      <point x="950.0" y="639.0"/>
      <point x="846" y="894"/>
      <point x="764" y="975" type="qcurve"/>
      <point x="834" y="1007" type="line"/>
      <point x="930" y="905"/>
      <point x="1033" y="650"/>
      <point x="1033" y="512" type="qcurve" smooth="yes"/>
      <point x="1033" y="253"/>
      <point x="789" y="-18"/>
    </contour>
  </outline>
</glyph>
<glyph name="chi" format="2">
	<unicode hex="03C7"/>
	<advance width="971"/>
	<outline>
		<contour>
			<point x="927" y="-484" type="line"/>
			<point x="868" y="-484"/>
			<point x="813" y="-430"/>
			<point x="791" y="-384" type="qcurve" smooth="yes"/>
			<point x="484" y="249" type="line"/>
			<point x="173" y="873" type="line" smooth="yes"/>
			<point x="158" y="902"/>
			<point x="111" y="924"/>
			<point x="59" y="928" type="qcurve" smooth="yes"/>
			<point x="-27" y="935" type="line"/>
			<point x="-27" y="986" type="line"/>
			<point x="124" y="1004" type="line"/>
			<point x="165" y="1004"/>
			<point x="204" y="973"/>
			<point x="223" y="932" type="qcurve" smooth="yes"/>
			<point x="525" y="305" type="line"/>
			<point x="839" y="-329" type="line" smooth="yes"/>
			<point x="854" y="-359"/>
			<point x="917" y="-408"/>
			<point x="967" y="-408" type="qcurve" smooth="yes"/>
			<point x="1032" y="-408" type="line"/>
			<point x="1032" y="-453" type="line"/>
		</contour>
		<contour>
			<point x="69" y="-480" type="line"/>
			<point x="46" y="-463" type="line"/>
			<point x="274" y="-73" type="line"/>
			<point x="486" y="296" type="line"/>
			<point x="517" y="243" type="line"/>
			<point x="332" y="-110" type="line"/>
			<point x="143" y="-474" type="line"/>
		</contour>
		<contour>
			<point x="532" y="254" type="line"/>
			<point x="503" y="310" type="line"/>
			<point x="670" y="630" type="line"/>
			<point x="859" y="994" type="line"/>
			<point x="933" y="1000" type="line"/>
			<point x="956" y="983" type="line"/>
			<point x="728" y="593" type="line"/>
		</contour>
	</outline>
</glyph>
<glyph name="psi" format="2">
  <advance width="1331"/>
  <unicode hex="03C8"/>
  <outline>
    <contour>
      <point x="725" y="-18" type="line"/>
      <point x="474" y="-18"/>
      <point x="240" y="190"/>
      <point x="248" y="381" type="qcurve"/>
      <point x="248" y="728" type="line"/>
      <point x="248" y="838.0" name="inserted"/>
      <point x="207.0" y="918.0"/>
      <point x="155" y="925" type="qcurve"/>
      <point x="46" y="936" type="line"/>
      <point x="46" y="987" type="line"/>
      <point x="203" y="1005" type="line"/>
      <point x="272" y="1007"/>
      <point x="326" y="893"/>
      <point x="326" y="810" type="qcurve" smooth="yes"/>
      <point x="325" y="382" type="line" smooth="yes"/>
      <point x="325" y="224"/>
      <point x="511" y="64"/>
      <point x="725" y="62" type="qcurve"/>
    </contour>
    <contour>
      <point x="752" y="-18" type="qcurve"/>
      <point x="752" y="62" type="line"/>
      <point x="952" y="63"/>
      <point x="1170" y="266"/>
      <point x="1170" y="508" type="qcurve" smooth="yes"/>
      <point x="1170" y="656"/>
      <point x="1086" y="889"/>
      <point x="1004" y="975" type="qcurve"/>
      <point x="1074" y="1007" type="line"/>
      <point x="1170" y="905"/>
      <point x="1253" y="650"/>
      <point x="1253" y="512" type="qcurve" smooth="yes"/>
      <point x="1253" y="256"/>
      <point x="965" y="-14"/>
    </contour>
    <contour>
      <point x="715" y="-480" type="line"/>
      <point x="692" y="-463" type="line"/>
      <point x="699" y="22" type="line"/>
      <point x="701" y="22" type="line"/>
      <point x="709" y="1438" type="line"/>
      <point x="743" y="1441" type="line"/>
      <point x="766" y="1424" type="line"/>
      <point x="775" y="22" type="line"/>
      <point x="777" y="22" type="line"/>
      <point x="784" y="-474" type="line"/>
    </contour>
  </outline>
</glyph>
<glyph name="omega" format="2">
  <advance width="1493"/>
  <unicode hex="03C9"/>
  <guideline x="720" y="679" angle="0" identifier="6gaxGIYdMm"/>
  <anchor x="756" y="1000" name="GRKtop"/>
  <outline>
    <contour>
      <point x="446" y="-22" type="qcurve"/>
      <point x="259" y="-22"/>
      <point x="78" y="225"/>
      <point x="78" y="419" type="qcurve" smooth="yes"/>
      <point x="78" y="615.0" name="inserted"/>
      <point x="251" y="930"/>
      <point x="385" y="1006" type="qcurve"/>
      <point x="419" y="982" type="line"/>
      <point x="309" y="905"/>
      <point x="161" y="636"/>
      <point x="161" y="417" type="qcurve" smooth="yes"/>
      <point x="161.0" y="240.0"/>
      <point x="305" y="53"/>
      <point x="442" y="53" type="qcurve" smooth="yes"/>
      <point x="563.0" y="53.0"/>
      <point x="688" y="198"/>
      <point x="709" y="309" type="qcurve"/>
      <point x="703" y="717" type="line"/>
      <point x="773" y="727" type="line"/>
      <point x="796" y="710" type="line"/>
      <point x="784" y="309" type="line"/>
      <point x="798" y="200"/>
      <point x="918" y="53"/>
      <point x="1036" y="53" type="qcurve" smooth="yes"/>
      <point x="1177.0" y="53.0"/>
      <point x="1330" y="271"/>
      <point x="1330" y="470" type="qcurve" smooth="yes"/>
      <point x="1330.0" y="626.0"/>
      <point x="1218" y="866"/>
      <point x="1108" y="967" type="qcurve"/>
      <point x="1178" y="1007" type="line"/>
      <point x="1282" y="919" name="inserted"/>
      <point x="1415" y="639"/>
      <point x="1415" y="493" type="qcurve" smooth="yes"/>
      <point x="1415.0" y="255.0"/>
      <point x="1202" y="-22"/>
      <point x="1041" y="-22" type="qcurve" smooth="yes"/>
      <point x="924.0" y="-22" name="inserted"/>
      <point x="769" y="117"/>
      <point x="746" y="240" type="qcurve"/>
      <point x="728" y="133"/>
      <point x="559" y="-22"/>
    </contour>
  </outline>
</glyph>
<glyph name="Kaisymbol" format="2">
	<unicode hex="03CF"/>
	<advance width="1457"/>
	<outline>
		<contour>
			<point x="88" y="0" type="line"/>
			<point x="88" y="48" type="line"/>
			<point x="316" y="83" type="line"/>
			<point x="318" y="754" type="line"/>
			<point x="316" y="1419" type="line"/>
			<point x="88" y="1453" type="line"/>
			<point x="88" y="1500" type="line"/>
			<point x="634" y="1500" type="line"/>
			<point x="634" y="1453" type="line"/>
			<point x="396" y="1419" type="line"/>
			<point x="394" y="754" type="line"/>
			<point x="396" y="83" type="line"/>
			<point x="634" y="48" type="line"/>
			<point x="634" y="0" type="line"/>
		</contour>
		<contour>
			<point x="361" y="519" type="line"/>
			<point x="361" y="599" type="line"/>
			<point x="1127" y="1419" type="line"/>
			<point x="942" y="1453" type="line"/>
			<point x="942" y="1500" type="line"/>
			<point x="1412" y="1500" type="line"/>
			<point x="1412" y="1453" type="line"/>
			<point x="1216" y="1419" type="line"/>
			<point x="676" y="849" type="line"/>
			<point x="662" y="834" type="line"/>
		</contour>
		<contour>
			<point x="1264" y="0" type="line"/>
			<point x="627" y="834" type="line"/>
			<point x="678" y="888" type="line"/>
			<point x="1294" y="83" type="line"/>
			<point x="1504" y="48" type="line"/>
			<point x="1504" y="0" type="line"/>
		</contour>
		<contour>
			<point x="703" y="-500" type="qcurve"/>
			<point x="566" y="-500"/>
			<point x="326" y="-420"/>
			<point x="250" y="-351" type="qcurve"/>
			<point x="280" y="-302" type="line"/>
			<point x="359" y="-361"/>
			<point x="554" y="-436"/>
			<point x="709" y="-436" type="qcurve"/>
			<point x="998" y="-436"/>
			<point x="1364" y="-203"/>
			<point x="1449" y="0" type="qcurve"/>
			<point x="1504" y="0" type="line"/>
			<point x="1442" y="-207"/>
			<point x="1022" y="-500"/>
		</contour>
	</outline>
</glyph>
<glyph name="kaisymbol" format="2">
  <advance width="1119"/>
  <unicode hex="03D7"/>
  <outline>
    <contour>
      <point x="184" y="0" type="line"/>
      <point x="183" y="460" type="line"/>
      <point x="177" y="994" type="line"/>
      <point x="251" y="1000" type="line"/>
      <point x="274" y="983" type="line"/>
      <point x="259" y="460" type="line"/>
      <point x="259" y="0" type="line"/>
    </contour>
    <contour>
      <point x="221" y="189" type="line"/>
      <point x="221" y="267" type="line"/>
      <point x="695" y="860" type="line"/>
      <point x="761" y="939" name="inserted"/>
      <point x="867" y="1004"/>
      <point x="933" y="1010" type="qcurve"/>
      <point x="956" y="993" type="line"/>
      <point x="942" y="877" type="line"/>
      <point x="838" y="874"/>
      <point x="741" y="819"/>
      <point x="700" y="772" type="qcurve"/>
    </contour>
    <contour>
      <point x="503" y="-500" type="qcurve" smooth="yes"/>
      <point x="340" y="-500"/>
      <point x="52" y="-351"/>
      <point x="-33" y="-191" type="qcurve"/>
      <point x="6" y="-164" type="line"/>
      <point x="72" y="-273"/>
      <point x="310" y="-437"/>
      <point x="503" y="-437" type="qcurve" smooth="yes"/>
      <point x="743" y="-437"/>
      <point x="874" y="-296" type="qcurve" smooth="yes"/>
      <point x="990" y="-171"/>
      <point x="1000" y="19" type="qcurve"/>
      <point x="910" y="-8" type="line"/>
      <point x="846" y="-7"/>
      <point x="793" y="27"/>
      <point x="768" y="74" type="qcurve" smooth="yes"/>
      <point x="501" y="570" type="line"/>
      <point x="549" y="630" type="line"/>
      <point x="786" y="217" type="line" smooth="yes"/>
      <point x="837" y="127"/>
      <point x="905" y="68"/>
      <point x="953" y="68" type="qcurve" smooth="yes"/>
      <point x="1054" y="68" type="line"/>
      <point x="1063" y="-184"/>
      <point x="741" y="-500"/>
    </contour>
  </outline>
</glyph>
<glyph name="Nje" format="2">
  <advance width="2104"/>
  <unicode hex="040A"/>
  <outline>
    <contour>
      <point x="88" y="0" type="line"/>
      <point x="88" y="48" type="line"/>
      <point x="316" y="83" type="line"/>
      <point x="318" y="754" type="line"/>
      <point x="316" y="1419" type="line"/>
      <point x="88" y="1453" type="line"/>
      <point x="88" y="1500" type="line"/>
      <point x="634" y="1500" type="line"/>
      <point x="634" y="1453" type="line"/>
      <point x="396" y="1419" type="line"/>
      <point x="394" y="754" type="line"/>
      <point x="396" y="83" type="line"/>
      <point x="634" y="48" type="line"/>
      <point x="634" y="0" type="line"/>
    </contour>
    <contour>
      <point x="356" y="787" type="line"/>
      <point x="356" y="849" type="line"/>
      <point x="876" y="841" type="line"/>
      <point x="1216" y="849" type="line"/>
      <point x="1216" y="787" type="line"/>
      <point x="876" y="787" type="line"/>
    </contour>
    <contour>
      <point x="1967" y="437" type="qcurve" smooth="yes"/>
      <point x="1967" y="612"/>
      <point x="1748" y="787"/>
      <point x="1542" y="787" type="qcurve" smooth="yes"/>
      <point x="1259" y="787" type="line"/>
      <point x="1254" y="776" type="line"/>
      <point x="1255" y="77" type="line"/>
      <point x="1285" y="60" type="line"/>
      <point x="1539" y="59" type="line" smooth="yes"/>
      <point x="1742" y="58"/>
      <point x="1967" y="244"/>
    </contour>
    <contour>
      <point x="948" y="0" type="line"/>
      <point x="948" y="48" type="line"/>
      <point x="1176" y="83" type="line"/>
      <point x="1178" y="754" type="line"/>
      <point x="1176" y="1419" type="line"/>
      <point x="948" y="1453" type="line"/>
      <point x="948" y="1500" type="line"/>
      <point x="1494" y="1500" type="line"/>
      <point x="1494" y="1453" type="line"/>
      <point x="1256" y="1419" type="line"/>
      <point x="1254" y="859" type="line"/>
      <point x="1262" y="848" type="line"/>
      <point x="1546" y="848" type="line" smooth="yes"/>
      <point x="1797" y="848"/>
      <point x="2054" y="637"/>
      <point x="2054" y="437" type="qcurve" smooth="yes"/>
      <point x="2054" y="228"/>
      <point x="1787" y="0"/>
      <point x="1554" y="0" type="qcurve" smooth="yes"/>
    </contour>
  </outline>
</glyph>
<glyph name="Be" format="2">
  <advance width="1288"/>
  <unicode hex="0411"/>
  <outline>
    <contour>
      <point x="1086" y="438" type="qcurve" smooth="yes"/>
      <point x="1086" y="619"/>
      <point x="878" y="784"/>
      <point x="689" y="784" type="qcurve" smooth="yes"/>
      <point x="399" y="784" type="line"/>
      <point x="394" y="773" type="line"/>
      <point x="396" y="77" type="line"/>
      <point x="426" y="60" type="line"/>
      <point x="687" y="59" type="line" smooth="yes"/>
      <point x="878" y="58"/>
      <point x="1086" y="251"/>
    </contour>
    <contour>
      <point x="88" y="0" type="line"/>
      <point x="88" y="48" type="line"/>
      <point x="316" y="83" type="line"/>
      <point x="318" y="754" type="line"/>
      <point x="316" y="1419" type="line"/>
      <point x="88" y="1453" type="line"/>
      <point x="88" y="1500" type="line"/>
      <point x="1082" y="1500" type="line"/>
      <point x="1082" y="1117" type="line"/>
      <point x="1028" y="1117" type="line"/>
      <point x="975" y="1443" type="line"/>
      <point x="422" y="1443" type="line"/>
      <point x="396" y="1431" type="line"/>
      <point x="394" y="851" type="line"/>
      <point x="402" y="840" type="line"/>
      <point x="690" y="840" type="line" smooth="yes"/>
      <point x="910" y="840"/>
      <point x="1173" y="648"/>
      <point x="1173" y="438" type="qcurve" smooth="yes"/>
      <point x="1173" y="240"/>
      <point x="924" y="0"/>
      <point x="701" y="0" type="qcurve" smooth="yes"/>
    </contour>
  </outline>
</glyph>
<glyph name="Zhe" format="2">
  <advance width="2159"/>
  <unicode hex="0416"/>
  <guideline x="480" y="796" angle="90" identifier="vQLQteAbfW"/>
  <anchor x="1079.5" y="0" name="bottom"/>
  <anchor x="1079.5" y="1500" name="top"/>
  <outline>
    <contour>
      <point x="810" y="0" type="line"/>
      <point x="810" y="48" type="line"/>
      <point x="1038" y="83" type="line"/>
      <point x="1040" y="754" type="line"/>
      <point x="1038" y="1419" type="line"/>
      <point x="810" y="1453" type="line"/>
      <point x="810" y="1500" type="line"/>
      <point x="1346" y="1500" type="line"/>
      <point x="1346" y="1453" type="line"/>
      <point x="1118" y="1419" type="line"/>
      <point x="1116" y="754" type="line"/>
      <point x="1118" y="83" type="line"/>
      <point x="1346" y="48" type="line"/>
      <point x="1346" y="0" type="line"/>
    </contour>
    <contour>
      <point x="1078" y="757" type="line"/>
      <point x="1078" y="819" type="line"/>
      <point x="1365" y="815" type="line"/>
      <point x="1829" y="1419" type="line"/>
      <point x="1644" y="1453" type="line"/>
      <point x="1644" y="1500" type="line"/>
      <point x="2114" y="1500" type="line"/>
      <point x="2114" y="1453" type="line"/>
      <point x="1918" y="1419" type="line"/>
      <point x="1421" y="789" type="line"/>
      <point x="1397" y="754" type="line"/>
    </contour>
    <contour>
      <point x="1365" y="760" type="line"/>
      <point x="1417" y="810" type="line"/>
      <point x="1996" y="83" type="line"/>
      <point x="2206" y="48" type="line"/>
      <point x="2206" y="0" type="line"/>
      <point x="1694" y="0" type="line"/>
      <point x="1694" y="48" type="line"/>
      <point x="1904" y="83" type="line"/>
    </contour>
    <contour>
      <point x="1078" y="757" type="line"/>
      <point x="759" y="754" type="line"/>
      <point x="728" y="789" type="line"/>
      <point x="231" y="1419" type="line"/>
      <point x="35" y="1453" type="line"/>
      <point x="35" y="1500" type="line"/>
      <point x="512" y="1500" type="line"/>
      <point x="512" y="1453" type="line"/>
      <point x="327" y="1419" type="line"/>
      <point x="791" y="815" type="line"/>
      <point x="1078" y="819" type="line"/>
    </contour>
    <contour>
      <point x="791" y="760" type="line"/>
      <point x="252" y="83" type="line"/>
      <point x="462" y="48" type="line"/>
      <point x="462" y="0" type="line"/>
      <point x="-47" y="0" type="line"/>
      <point x="-47" y="48" type="line"/>
      <point x="163" y="83" type="line"/>
      <point x="742" y="810" type="line"/>
    </contour>
  </outline>
</glyph>
<glyph name="Ze" format="2">
  <advance width="1283"/>
  <unicode hex="0417"/>
  <outline>
    <contour>
      <point x="687" y="35" type="qcurve" smooth="yes"/>
      <point x="901" y="35"/>
      <point x="1121" y="225"/>
      <point x="1121" y="400" type="qcurve" smooth="yes"/>
      <point x="1121" y="557"/>
      <point x="934" y="754"/>
      <point x="703" y="754" type="qcurve" smooth="yes"/>
      <point x="513" y="754" type="line"/>
      <point x="513" y="810" type="line"/>
      <point x="699" y="810" type="line" smooth="yes"/>
      <point x="862" y="810"/>
      <point x="1050" y="982"/>
      <point x="1050" y="1145" type="qcurve" smooth="yes"/>
      <point x="1050" y="1304"/>
      <point x="842" y="1455"/>
      <point x="683" y="1455" type="qcurve" smooth="yes"/>
      <point x="516" y="1455"/>
      <point x="299" y="1313"/>
      <point x="280" y="1177" type="qcurve" smooth="yes"/>
      <point x="262" y="1051" type="line"/>
      <point x="205" y="1051" type="line"/>
      <point x="205" y="1500" type="line"/>
      <point x="263" y="1500" type="line"/>
      <point x="291" y="1357" type="line"/>
      <point x="352" y="1425"/>
      <point x="555" y="1519"/>
      <point x="683" y="1519" type="qcurve" smooth="yes"/>
      <point x="895" y="1519"/>
      <point x="1135" y="1323"/>
      <point x="1135" y="1145" type="qcurve" smooth="yes"/>
      <point x="1135" y="1013"/>
      <point x="1006" y="837"/>
      <point x="886" y="796" type="qcurve"/>
      <point x="886" y="789" type="line"/>
      <point x="1020" y="763"/>
      <point x="1208" y="578"/>
      <point x="1208" y="400" type="qcurve" smooth="yes"/>
      <point x="1208" y="209"/>
      <point x="935" y="-31"/>
      <point x="687" y="-30" type="qcurve" smooth="yes"/>
      <point x="543" y="-29"/>
      <point x="330" y="40"/>
      <point x="249" y="109" type="qcurve"/>
      <point x="228" y="-11" type="line"/>
      <point x="170" y="-11" type="line"/>
      <point x="170" y="449" type="line"/>
      <point x="227" y="449" type="line"/>
      <point x="248" y="324" type="line" smooth="yes"/>
      <point x="273" y="174"/>
      <point x="504" y="35"/>
    </contour>
  </outline>
</glyph>
<glyph name="Tse" format="2">
  <advance width="1714"/>
  <unicode hex="0426"/>
  <guideline x="1638" y="1367" angle="90" identifier="Ju90KfnAFs"/>
  <outline>
    <contour>
      <point x="1318" y="754" type="line"/>
      <point x="1316" y="1419" type="line"/>
      <point x="1078" y="1453" type="line"/>
      <point x="1078" y="1500" type="line"/>
      <point x="1624" y="1500" type="line"/>
      <point x="1624" y="1453" type="line"/>
      <point x="1396" y="1419" type="line"/>
      <point x="1394" y="754" type="line"/>
      <point x="1396" y="57" type="line"/>
      <point x="1624" y="57" type="line"/>
      <point x="1634" y="-338" type="line"/>
      <point x="1580" y="-338" type="line"/>
      <point x="1517" y="0" type="line"/>
      <point x="88" y="0" type="line"/>
      <point x="88" y="48" type="line"/>
      <point x="316" y="83" type="line"/>
      <point x="318" y="754" type="line"/>
      <point x="316" y="1419" type="line"/>
      <point x="88" y="1453" type="line"/>
      <point x="88" y="1500" type="line"/>
      <point x="634" y="1500" type="line"/>
      <point x="634" y="1453" type="line"/>
      <point x="396" y="1419" type="line"/>
      <point x="394" y="754" type="line"/>
      <point x="394" y="84" type="line"/>
      <point x="419" y="57" type="line"/>
      <point x="1293" y="57" type="line"/>
      <point x="1318" y="84" type="line"/>
    </contour>
  </outline>
</glyph>
<glyph name="Yu" format="2">
  <advance width="2244"/>
  <unicode hex="042E"/>
  <guideline x="732" y="785" angle="90" identifier="6nH5tb4DEh"/>
  <anchor x="889.0" y="0" name="bottom"/>
  <anchor x="889.0" y="1500" name="top"/>
  <outline>
    <contour>
      <point x="88" y="0" type="line"/>
      <point x="88" y="48" type="line"/>
      <point x="316" y="83" type="line"/>
      <point x="318" y="754" type="line"/>
      <point x="316" y="1419" type="line"/>
      <point x="88" y="1453" type="line"/>
      <point x="88" y="1500" type="line"/>
      <point x="634" y="1500" type="line"/>
      <point x="634" y="1453" type="line"/>
      <point x="396" y="1419" type="line"/>
      <point x="394" y="754" type="line"/>
      <point x="396" y="83" type="line"/>
      <point x="634" y="48" type="line"/>
      <point x="634" y="0" type="line"/>
    </contour>
    <contour>
      <point x="356" y="757" type="line"/>
      <point x="356" y="819" type="line"/>
      <point x="725" y="811" type="line"/>
      <point x="725" y="757" type="line"/>
    </contour>
    <contour>
      <point x="685" y="737" type="qcurve" smooth="yes"/>
      <point x="685" y="1068"/>
      <point x="1090" y="1520"/>
      <point x="1422" y="1520" type="qcurve" smooth="yes"/>
      <point x="1754" y="1520"/>
      <point x="2159" y="1097"/>
      <point x="2159" y="752" type="qcurve" smooth="yes"/>
      <point x="2159" y="423"/>
      <point x="1758" y="-31"/>
      <point x="1426" y="-31" type="qcurve" smooth="yes"/>
      <point x="1101" y="-31"/>
      <point x="685" y="396"/>
    </contour>
    <contour>
      <point x="765" y="779" type="qcurve" smooth="yes"/>
      <point x="765" y="452"/>
      <point x="1130" y="33"/>
      <point x="1427" y="33" type="qcurve" smooth="yes"/>
      <point x="1736" y="33"/>
      <point x="2080" y="415"/>
      <point x="2080" y="749" type="qcurve" smooth="yes"/>
      <point x="2080" y="1055"/>
      <point x="1726" y="1456"/>
      <point x="1427" y="1456" type="qcurve" smooth="yes"/>
      <point x="1115" y="1456"/>
      <point x="765" y="1082"/>
    </contour>
  </outline>
</glyph>
<glyph name="be" format="2">
  <advance width="1156"/>
  <unicode hex="0431"/>
  <outline>
    <contour>
      <point x="583" y="30" type="qcurve" smooth="yes"/>
      <point x="784" y="30"/>
      <point x="1002" y="292"/>
      <point x="1002" y="505" type="qcurve" smooth="yes"/>
      <point x="1002" y="698"/>
      <point x="779" y="962"/>
      <point x="585" y="962" type="qcurve" smooth="yes"/>
      <point x="428" y="962"/>
      <point x="203" y="785"/>
      <point x="153" y="663" type="qcurve"/>
      <point x="147" y="745" type="line"/>
      <point x="223" y="878"/>
      <point x="469" y="1022"/>
      <point x="622" y="1022" type="qcurve" smooth="yes"/>
      <point x="828" y="1022"/>
      <point x="1088" y="754"/>
      <point x="1088" y="505" type="qcurve" smooth="yes"/>
      <point x="1088" y="281"/>
      <point x="807" y="-22"/>
      <point x="583" y="-22" type="qcurve" smooth="yes"/>
      <point x="340" y="-22"/>
      <point x="75" y="282"/>
      <point x="75" y="624" type="qcurve" smooth="yes"/>
      <point x="75" y="965"/>
      <point x="338" y="1361"/>
      <point x="650" y="1408" type="qcurve" smooth="yes"/>
      <point x="871" y="1442"/>
      <point x="956" y="1473"/>
      <point x="969" y="1514" type="qcurve"/>
      <point x="1009" y="1514" type="line"/>
      <point x="1000" y="1427"/>
      <point x="864" y="1352"/>
      <point x="661" y="1325" type="qcurve" smooth="yes"/>
      <point x="513" y="1306"/>
      <point x="320" y="1220"/>
      <point x="268" y="1148" type="qcurve" smooth="yes"/>
      <point x="222" y="1083"/>
      <point x="169" y="902"/>
      <point x="159" y="754" type="qcurve"/>
      <point x="173" y="754" type="line"/>
      <point x="165" y="715"/>
      <point x="160" y="619"/>
      <point x="160" y="560" type="qcurve" smooth="yes"/>
      <point x="160" y="323"/>
      <point x="387" y="30"/>
    </contour>
  </outline>
</glyph>
<glyph name="ve" format="2">
  <advance width="991"/>
  <unicode hex="0432"/>
  <guideline x="302" y="625" angle="90" identifier="FqbstdQzDn"/>
  <guideline x="953" y="554" angle="90" identifier="zbbKiP68t3"/>
  <outline>
    <contour>
      <point x="90" y="1000" type="line"/>
      <point x="597" y="1000" type="line" smooth="yes"/>
      <point x="744" y="1000"/>
      <point x="889" y="873"/>
      <point x="889" y="763" type="qcurve" smooth="yes"/>
      <point x="889" y="673"/>
      <point x="809" y="556"/>
      <point x="726" y="521" type="qcurve"/>
      <point x="726" y="517" type="line"/>
      <point x="821.6082539215" y="506.8875885275"/>
      <point x="951" y="381.0158102767"/>
      <point x="951" y="273" type="qcurve" smooth="yes"/>
      <point x="951" y="143.6305970149"/>
      <point x="770" y="0"/>
      <point x="600" y="0" type="qcurve" smooth="yes"/>
      <point x="90" y="0" type="line"/>
      <point x="90" y="40" type="line"/>
      <point x="258" y="67" type="line"/>
      <point x="260" y="500" type="line"/>
      <point x="258" y="933" type="line"/>
      <point x="90" y="960" type="line"/>
    </contour>
    <contour>
      <point x="338" y="58" type="line"/>
      <point x="594" y="58" type="line" smooth="yes"/>
      <point x="736" y="58"/>
      <point x="862" y="164.4761904762"/>
      <point x="862" y="273" type="qcurve" smooth="yes"/>
      <point x="862" y="371.5952380952"/>
      <point x="744" y="479"/>
      <point x="614" y="478" type="qcurve" smooth="yes"/>
      <point x="298" y="476" type="line"/>
      <point x="298" y="536" type="line"/>
      <point x="563" y="534" type="line" smooth="yes"/>
      <point x="683" y="533"/>
      <point x="804" y="644"/>
      <point x="804" y="744" type="qcurve" smooth="yes"/>
      <point x="804" y="850"/>
      <point x="684" y="941"/>
      <point x="570" y="941" type="qcurve" smooth="yes"/>
      <point x="338" y="941" type="line"/>
      <point x="336" y="500" type="line"/>
    </contour>
  </outline>
</glyph>
<glyph name="ghe" format="2">
  <advance width="926"/>
  <unicode hex="0433"/>
  <guideline x="302" y="625" angle="90" identifier="jHuxcyi1x5"/>
  <guideline x="953" y="554" angle="90" identifier="b1mHk7wgTR"/>
  <guideline x="627" y="553" angle="90" identifier="m4aYe0x4PZ"/>
  <outline>
    <contour>
      <point x="776" y="941" type="line"/>
      <point x="338" y="941" type="line"/>
      <point x="336" y="500" type="line"/>
      <point x="338" y="67" type="line"/>
      <point x="524" y="40" type="line"/>
      <point x="524" y="0" type="line"/>
      <point x="90" y="0" type="line"/>
      <point x="90" y="40" type="line"/>
      <point x="258" y="67" type="line"/>
      <point x="260" y="500" type="line"/>
      <point x="258" y="933" type="line"/>
      <point x="90" y="960" type="line"/>
      <point x="90" y="1000" type="line"/>
      <point x="876" y="1000" type="line"/>
      <point x="876" y="740" type="line"/>
      <point x="821" y="740" type="line"/>
    </contour>
  </outline>
</glyph>
<glyph name="te" format="2">
  <advance width="1046"/>
  <unicode hex="0442"/>
  <guideline x="302" y="625" angle="90" identifier="0glbwjr6f1"/>
  <guideline x="953" y="554" angle="90" identifier="41A0uQDzZV"/>
  <guideline x="627" y="553" angle="90" identifier="rA3XBl1QkZ"/>
  <outline>
    <contour>
      <point x="741" y="40" type="line"/>
      <point x="741" y="0" type="line"/>
      <point x="305" y="0" type="line"/>
      <point x="305" y="40" type="line"/>
      <point x="483" y="67" type="line"/>
      <point x="485" y="500" type="line"/>
      <point x="483" y="941" type="line"/>
      <point x="160" y="941" type="line"/>
      <point x="115" y="740" type="line"/>
      <point x="60" y="740" type="line"/>
      <point x="60" y="1000" type="line"/>
      <point x="986" y="1000" type="line"/>
      <point x="986" y="740" type="line"/>
      <point x="931" y="740" type="line"/>
      <point x="886" y="941" type="line"/>
      <point x="563" y="941" type="line"/>
      <point x="561" y="500" type="line"/>
      <point x="563" y="67" type="line"/>
    </contour>
  </outline>
</glyph>
<glyph name="ef" format="2">
  <advance width="1323"/>
  <unicode hex="0444"/>
  <outline>
    <contour>
      <point x="420" y="-480" type="line"/>
      <point x="420" y="-437" type="line"/>
      <point x="620" y="-413" type="line"/>
      <point x="621" y="2" type="line"/>
      <point x="621" y="17" type="line"/>
      <point x="623" y="500" type="line"/>
      <point x="623" y="984" type="line"/>
      <point x="623" y="998" type="line"/>
      <point x="622" y="1428" type="line"/>
      <point x="419" y="1449" type="line"/>
      <point x="419" y="1500" type="line"/>
      <point x="682" y="1514" type="line"/>
      <point x="690" y="1509" type="line"/>
      <point x="699" y="1488" type="line"/>
      <point x="698" y="996" type="line"/>
      <point x="698" y="981" type="line"/>
      <point x="698" y="500" type="line"/>
      <point x="703" y="14" type="line"/>
      <point x="703" y="-4" type="line"/>
      <point x="703" y="-413" type="line"/>
      <point x="903" y="-437" type="line"/>
      <point x="903" y="-480" type="line"/>
    </contour>
    <contour>
      <point x="48" y="475" type="qcurve" smooth="yes"/>
      <point x="48" y="727"/>
      <point x="370" y="1023"/>
      <point x="667" y="1023" type="qcurve"/>
      <point x="667" y="962" type="line"/>
      <point x="398" y="962"/>
      <point x="132" y="717"/>
      <point x="132" y="491" type="qcurve" smooth="yes"/>
      <point x="132" y="274"/>
      <point x="395" y="30"/>
      <point x="667" y="30" type="qcurve"/>
      <point x="667" y="-23" type="line"/>
      <point x="352" y="-15"/>
      <point x="48" y="259"/>
    </contour>
    <contour>
      <point x="1275" y="525" type="qcurve" smooth="yes"/>
      <point x="1275" y="273"/>
      <point x="948" y="-23"/>
      <point x="667" y="-23" type="qcurve"/>
      <point x="667" y="30" type="line"/>
      <point x="915" y="30"/>
      <point x="1189" y="283"/>
      <point x="1189" y="515" type="qcurve" smooth="yes"/>
      <point x="1189" y="725"/>
      <point x="936" y="962"/>
      <point x="667" y="962" type="qcurve"/>
      <point x="667" y="1023" type="line"/>
      <point x="977" y="1015"/>
      <point x="1275" y="741"/>
    </contour>
  </outline>
</glyph>
<glyph name="sha" format="2">
  <advance width="1824"/>
  <unicode hex="0448"/>
  <guideline x="302" y="625" angle="90" identifier="NJObwdl7Zg"/>
  <guideline x="953" y="554" angle="90" identifier="1530lh32tn"/>
  <guideline x="627" y="553" angle="90" identifier="24e3XVDPIE"/>
  <outline>
    <contour>
      <point x="260" y="500" type="line"/>
      <point x="258" y="933" type="line"/>
      <point x="90" y="960" type="line"/>
      <point x="90" y="1000" type="line"/>
      <point x="496" y="1000" type="line"/>
      <point x="496" y="960" type="line"/>
      <point x="338" y="933" type="line"/>
      <point x="336" y="500" type="line"/>
      <point x="338" y="58" type="line"/>
      <point x="872" y="58" type="line"/>
      <point x="874" y="500" type="line"/>
      <point x="872" y="933" type="line"/>
      <point x="714" y="960" type="line"/>
      <point x="714" y="1000" type="line"/>
      <point x="1110" y="1000" type="line"/>
      <point x="1110" y="960" type="line"/>
      <point x="952" y="933" type="line"/>
      <point x="950" y="500" type="line"/>
      <point x="952" y="58" type="line"/>
      <point x="1486" y="58" type="line"/>
      <point x="1488" y="500" type="line"/>
      <point x="1486" y="933" type="line"/>
      <point x="1328" y="960" type="line"/>
      <point x="1328" y="1000" type="line"/>
      <point x="1734" y="1000" type="line"/>
      <point x="1734" y="960" type="line"/>
      <point x="1566" y="933" type="line"/>
      <point x="1564" y="500" type="line"/>
      <point x="1566" y="67" type="line"/>
      <point x="1734" y="40" type="line"/>
      <point x="1734" y="0" type="line"/>
      <point x="90" y="0" type="line"/>
      <point x="90" y="40" type="line"/>
      <point x="258" y="67" type="line"/>
    </contour>
  </outline>
</glyph>
<glyph name="ecyr" format="2">
  <advance width="1043"/>
  <unicode hex="044D"/>
  <guideline x="180" y="548" angle="90" identifier="n4jm0tBg3Y"/>
  <anchor x="521.5" y="0" name="bottom"/>
  <anchor x="521.5" y="1000" name="top"/>
  <outline>
    <contour>
      <point x="213" y="84" type="qcurve"/>
      <point x="172" y="0" type="line"/>
      <point x="120" y="0" type="line"/>
      <point x="120" y="320" type="line"/>
      <point x="176" y="320" type="line"/>
      <point x="185" y="274" type="line" smooth="yes"/>
      <point x="205" y="170"/>
      <point x="364" y="30"/>
      <point x="520" y="30" type="qcurve" smooth="yes"/>
      <point x="695.4704301075" y="30"/>
      <point x="893" y="281"/>
      <point x="893" y="497" type="qcurve" smooth="yes"/>
      <point x="893" y="704"/>
      <point x="693.4650537634" y="966"/>
      <point x="520" y="966" type="qcurve" smooth="yes"/>
      <point x="402.1226415094" y="966"/>
      <point x="228" y="851"/>
      <point x="205" y="734" type="qcurve" smooth="yes"/>
      <point x="197" y="694" type="line"/>
      <point x="141" y="694" type="line"/>
      <point x="141" y="1000" type="line"/>
      <point x="194" y="1000" type="line"/>
      <point x="222" y="920" type="line"/>
      <point x="263" y="963"/>
      <point x="424" y="1022"/>
      <point x="520" y="1022" type="qcurve" smooth="yes"/>
      <point x="741" y="1022"/>
      <point x="975" y="736"/>
      <point x="975" y="480" type="qcurve" smooth="yes"/>
      <point x="975" y="256"/>
      <point x="728" y="-20"/>
      <point x="520" y="-22" type="qcurve" smooth="yes"/>
      <point x="411.0006898385" y="-22.9999936712"/>
      <point x="258.0127770083" y="34.198629693"/>
    </contour>
    <contour>
      <point x="934" y="535" type="line"/>
      <point x="934" y="478" type="line"/>
      <point x="384" y="476" type="line"/>
      <point x="384" y="538" type="line"/>
    </contour>
  </outline>
</glyph>
<glyph name="yu" format="2">
  <advance width="1648"/>
  <unicode hex="044E"/>
  <guideline x="302" y="625" angle="90" identifier="jHuxcyi1x5"/>
  <guideline x="953" y="554" angle="90" identifier="b1mHk7wgTR"/>
  <guideline x="627" y="553" angle="90" identifier="m4aYe0x4PZ"/>
  <anchor x="627.0" y="0" name="bottom"/>
  <anchor x="627.0" y="1000" name="top"/>
  <outline>
    <contour>
      <point x="298" y="536" type="line"/>
      <point x="610" y="533" type="line"/>
      <point x="610" y="478" type="line"/>
      <point x="298" y="476" type="line"/>
    </contour>
    <contour>
      <point x="260" y="500" type="line"/>
      <point x="258" y="933" type="line"/>
      <point x="90" y="960" type="line"/>
      <point x="90" y="1000" type="line"/>
      <point x="506" y="1000" type="line"/>
      <point x="506" y="960" type="line"/>
      <point x="338" y="933" type="line"/>
      <point x="336" y="500" type="line"/>
      <point x="338" y="67" type="line"/>
      <point x="504" y="40" type="line"/>
      <point x="504" y="0" type="line"/>
      <point x="90" y="0" type="line"/>
      <point x="90" y="40" type="line"/>
      <point x="258" y="67" type="line"/>
    </contour>
    <contour>
      <point x="568" y="500" type="qcurve" smooth="yes"/>
      <point x="568" y="717"/>
      <point x="845" y="1022"/>
      <point x="1072" y="1022" type="qcurve" smooth="yes"/>
      <point x="1303" y="1022"/>
      <point x="1580" y="737"/>
      <point x="1580" y="506" type="qcurve" smooth="yes"/>
      <point x="1580" y="290"/>
      <point x="1305" y="-22"/>
      <point x="1078" y="-22" type="qcurve" smooth="yes"/>
      <point x="849" y="-22"/>
      <point x="568" y="267"/>
    </contour>
    <contour>
      <point x="652" y="523" type="qcurve" smooth="yes"/>
      <point x="653" y="316"/>
      <point x="884" y="30"/>
      <point x="1073" y="30" type="qcurve" smooth="yes"/>
      <point x="1274" y="30"/>
      <point x="1494" y="291"/>
      <point x="1494" y="507" type="qcurve" smooth="yes"/>
      <point x="1494" y="706"/>
      <point x="1264" y="962"/>
      <point x="1075" y="962" type="qcurve" smooth="yes"/>
      <point x="870" y="962"/>
      <point x="651" y="728"/>
    </contour>
  </outline>
</glyph>
<glyph name="ya" format="2">
  <advance width="1131"/>
  <unicode hex="044F"/>
  <guideline x="302" y="625" angle="90" identifier="XQgmgmO2xX"/>
  <guideline x="953" y="554" angle="90" identifier="MobSutKfE9"/>
  <guideline x="627" y="553" angle="90" identifier="l2g0Cp9ZiO"/>
  <anchor x="565.5" y="0" name="bottom"/>
  <anchor x="627" y="1000" name="top"/>
  <outline>
    <contour>
      <point x="793" y="941" type="line"/>
      <point x="545" y="941" type="line" smooth="yes"/>
      <point x="397" y="941"/>
      <point x="267" y="825"/>
      <point x="267" y="719" type="qcurve" smooth="yes"/>
      <point x="267" y="613"/>
      <point x="397" y="494"/>
      <point x="545" y="494" type="qcurve" smooth="yes"/>
      <point x="833" y="494" type="line"/>
      <point x="833" y="444" type="line"/>
      <point x="518" y="439" type="line"/>
      <point x="482" y="445" type="line"/>
      <point x="327" y="459"/>
      <point x="182" y="595"/>
      <point x="182" y="719" type="qcurve" smooth="yes"/>
      <point x="182" y="844"/>
      <point x="371" y="1000"/>
      <point x="545" y="1000" type="qcurve" smooth="yes"/>
      <point x="1041" y="1000" type="line"/>
      <point x="1041" y="960" type="line"/>
      <point x="873" y="933" type="line"/>
      <point x="871" y="500" type="line"/>
      <point x="873" y="67" type="line"/>
      <point x="1041" y="40" type="line"/>
      <point x="1041" y="0" type="line"/>
      <point x="625" y="0" type="line"/>
      <point x="625" y="40" type="line"/>
      <point x="793" y="67" type="line"/>
      <point x="795" y="500" type="line"/>
    </contour>
    <contour>
      <point x="553" y="454" type="line"/>
      <point x="264" y="49" type="line"/>
      <point x="304" y="34" type="line"/>
      <point x="294" y="0" type="line"/>
      <point x="30" y="0" type="line"/>
      <point x="30" y="40" type="line"/>
      <point x="183" y="67" type="line"/>
      <point x="477" y="479" type="line"/>
    </contour>
  </outline>
</glyph>
<glyph name="dje" format="2">
  <advance width="1211"/>
  <unicode hex="0452"/>
  <outline>
    <contour>
      <point x="300" y="1220" type="line"/>
      <point x="50" y="1220" type="line"/>
      <point x="57" y="1280" type="line"/>
      <point x="342" y="1280" type="line"/>
      <point x="606" y="1280" type="line"/>
      <point x="606" y="1220" type="line"/>
    </contour>
    <contour>
      <point x="724" y="-478" type="qcurve"/>
      <point x="724" y="-423" type="line"/>
      <point x="832" y="-423"/>
      <point x="950" y="-362"/>
      <point x="950" y="-279" type="qcurve" smooth="yes"/>
      <point x="952" y="527" type="line"/>
      <point x="952" y="735" type="line" smooth="yes"/>
      <point x="952" y="842"/>
      <point x="825" y="941"/>
      <point x="702" y="941" type="qcurve" smooth="yes"/>
      <point x="592" y="941"/>
      <point x="386" y="834"/>
      <point x="330" y="753" type="qcurve"/>
      <point x="330" y="527" type="line"/>
      <point x="338" y="67" type="line"/>
      <point x="499" y="40" type="line"/>
      <point x="499" y="0" type="line"/>
      <point x="86" y="0" type="line"/>
      <point x="86" y="40" type="line"/>
      <point x="254" y="67" type="line"/>
      <point x="256" y="527" type="line"/>
      <point x="254" y="1428" type="line"/>
      <point x="51" y="1449" type="line"/>
      <point x="51" y="1500" type="line"/>
      <point x="312" y="1514" type="line"/>
      <point x="320" y="1509" type="line"/>
      <point x="329" y="1488" type="line"/>
      <point x="330" y="830" type="line"/>
      <point x="391" y="910"/>
      <point x="608" y="1021"/>
      <point x="747" y="1021" type="qcurve" smooth="yes"/>
      <point x="883" y="1021"/>
      <point x="1028" y="885"/>
      <point x="1028" y="742" type="qcurve" smooth="yes"/>
      <point x="1028" y="677"/>
      <point x="1028" y="533"/>
      <point x="1028" y="527" type="qcurve"/>
      <point x="1032" y="-276" type="line" smooth="yes"/>
      <point x="1033" y="-382"/>
      <point x="878" y="-490"/>
    </contour>
  </outline>
</glyph>
<glyph name="kadescender" format="2">
  <advance width="1101"/>
  <unicode hex="049B"/>
  <guideline x="241" y="553" angle="90" identifier="lmgRx0QBdK"/>
  <outline>
    <contour>
      <point x="544" y="484" type="line"/>
      <point x="607" y="530" type="line"/>
      <point x="991" y="17" type="line"/>
      <point x="991" y="0" type="line"/>
      <point x="840" y="0" type="line"/>
      <point x="830" y="34" type="line"/>
      <point x="870" y="49" type="line"/>
    </contour>
    <contour>
      <point x="298" y="537" type="line"/>
      <point x="551" y="534" type="line"/>
      <point x="843" y="933" type="line"/>
      <point x="699" y="955" type="line"/>
      <point x="699" y="1000" type="line"/>
      <point x="1080" y="1000" type="line"/>
      <point x="1080" y="955" type="line"/>
      <point x="922" y="932" type="line"/>
      <point x="576" y="478" type="line"/>
      <point x="298" y="476" type="line"/>
    </contour>
    <contour>
      <point x="260" y="500" type="line"/>
      <point x="258" y="933" type="line"/>
      <point x="90" y="960" type="line"/>
      <point x="90" y="1000" type="line"/>
      <point x="506" y="1000" type="line"/>
      <point x="506" y="960" type="line"/>
      <point x="338" y="933" type="line"/>
      <point x="336" y="500" type="line"/>
      <point x="338" y="67" type="line"/>
      <point x="504" y="40" type="line"/>
      <point x="504" y="0" type="line"/>
      <point x="90" y="0" type="line"/>
      <point x="90" y="40" type="line"/>
      <point x="258" y="67" type="line"/>
    </contour>
    <contour>
      <point x="951" y="58" type="line"/>
      <point x="1091" y="58" type="line"/>
      <point x="1101" y="-318" type="line"/>
      <point x="1046" y="-318" type="line"/>
      <point x="991" y="0" type="line"/>
      <point x="951" y="0" type="line"/>
    </contour>
  </outline>
</glyph>
<glyph name="Kaverticalstrokecyr" format="2">
  <advance width="1567"/>
  <unicode hex="049C"/>
  <guideline x="480" y="796" angle="90" identifier="LxfLwWU0sJ"/>
  <outline>
    <contour>
      <point x="670" y="1185" type="line"/>
      <point x="670" y="329" type="line"/>
      <point x="600" y="329" type="line"/>
      <point x="600" y="1185" type="line"/>
    </contour>
    <contour>
      <point x="88" y="0" type="line"/>
      <point x="88" y="48" type="line"/>
      <point x="316" y="83" type="line"/>
      <point x="318" y="754" type="line"/>
      <point x="316" y="1419" type="line"/>
      <point x="88" y="1453" type="line"/>
      <point x="88" y="1500" type="line"/>
      <point x="634" y="1500" type="line"/>
      <point x="634" y="1453" type="line"/>
      <point x="396" y="1419" type="line"/>
      <point x="394" y="754" type="line"/>
      <point x="396" y="83" type="line"/>
      <point x="634" y="48" type="line"/>
      <point x="634" y="0" type="line"/>
    </contour>
    <contour>
      <point x="635" y="754" type="line"/>
      <point x="635" y="816" type="line"/>
      <point x="793" y="815" type="line"/>
      <point x="1237" y="1419" type="line"/>
      <point x="1052" y="1453" type="line"/>
      <point x="1052" y="1500" type="line"/>
      <point x="1522" y="1500" type="line"/>
      <point x="1522" y="1453" type="line"/>
      <point x="1326" y="1419" type="line"/>
      <point x="849" y="789" type="line"/>
      <point x="825" y="754" type="line"/>
    </contour>
    <contour>
      <point x="793" y="760" type="line"/>
      <point x="848" y="808" type="line"/>
      <point x="1404" y="83" type="line"/>
      <point x="1614" y="48" type="line"/>
      <point x="1614" y="0" type="line"/>
      <point x="1102" y="0" type="line"/>
      <point x="1102" y="48" type="line"/>
      <point x="1312" y="83" type="line"/>
    </contour>
  </outline>
</glyph>
<glyph name="kaverticalstrokecyr" format="2">
  <advance width="1188"/>
  <unicode hex="049D"/>
  <guideline x="241" y="553" angle="90" identifier="lmgRx0QBdK"/>
  <outline>
    <contour>
      <point x="565" y="227" type="line"/>
      <point x="509" y="227" type="line"/>
      <point x="509" y="792" type="line"/>
      <point x="565" y="792" type="line"/>
    </contour>
    <contour>
      <point x="664" y="484" type="line"/>
      <point x="728" y="530" type="line"/>
      <point x="1054" y="67" type="line"/>
      <point x="1207" y="40" type="line"/>
      <point x="1207" y="0" type="line"/>
      <point x="940" y="0" type="line"/>
      <point x="930" y="34" type="line"/>
      <point x="970" y="49" type="line"/>
    </contour>
    <contour>
      <point x="537" y="537" type="line"/>
      <point x="671" y="534" type="line"/>
      <point x="943" y="933" type="line"/>
      <point x="799" y="955" type="line"/>
      <point x="799" y="1000" type="line"/>
      <point x="1180" y="1000" type="line"/>
      <point x="1180" y="955" type="line"/>
      <point x="1022" y="932" type="line"/>
      <point x="696" y="478" type="line"/>
      <point x="537" y="476" type="line"/>
    </contour>
    <contour>
      <point x="260" y="500" type="line"/>
      <point x="258" y="933" type="line"/>
      <point x="90" y="960" type="line"/>
      <point x="90" y="1000" type="line"/>
      <point x="506" y="1000" type="line"/>
      <point x="506" y="960" type="line"/>
      <point x="338" y="933" type="line"/>
      <point x="336" y="500" type="line"/>
      <point x="338" y="67" type="line"/>
      <point x="506" y="40" type="line"/>
      <point x="506" y="0" type="line"/>
      <point x="90" y="0" type="line"/>
      <point x="90" y="40" type="line"/>
      <point x="258" y="67" type="line"/>
    </contour>
  </outline>
</glyph>
<glyph name="Kabashkircyr" format="2">
  <advance width="1677"/>
  <unicode hex="04A0"/>
  <guideline x="480" y="796" angle="90" identifier="UonMLy8RzJ"/>
  <outline>
    <contour>
      <point x="576" y="757" type="line"/>
      <point x="576" y="819" type="line"/>
      <point x="863" y="815" type="line"/>
      <point x="1347" y="1419" type="line"/>
      <point x="1162" y="1453" type="line"/>
      <point x="1162" y="1500" type="line"/>
      <point x="1632" y="1500" type="line"/>
      <point x="1632" y="1453" type="line"/>
      <point x="1436" y="1419" type="line"/>
      <point x="919" y="789" type="line"/>
      <point x="895" y="754" type="line"/>
    </contour>
    <contour>
      <point x="863" y="760" type="line"/>
      <point x="914" y="810" type="line"/>
      <point x="1514" y="83" type="line"/>
      <point x="1724" y="48" type="line"/>
      <point x="1724" y="0" type="line"/>
      <point x="1212" y="0" type="line"/>
      <point x="1212" y="48" type="line"/>
      <point x="1422" y="83" type="line"/>
    </contour>
    <contour>
      <point x="536" y="1443" type="line"/>
      <point x="136" y="1443" type="line"/>
      <point x="92" y="1117" type="line"/>
      <point x="37" y="1117" type="line"/>
      <point x="37" y="1500" type="line"/>
      <point x="854" y="1500" type="line"/>
      <point x="854" y="1453" type="line"/>
      <point x="616" y="1419" type="line"/>
      <point x="614" y="754" type="line"/>
      <point x="616" y="83" type="line"/>
      <point x="854" y="48" type="line"/>
      <point x="854" y="0" type="line"/>
      <point x="308" y="0" type="line"/>
      <point x="308" y="48" type="line"/>
      <point x="536" y="83" type="line"/>
      <point x="538" y="754" type="line"/>
    </contour>
  </outline>
</glyph>
<glyph name="Endescender" format="2">
  <advance width="1734"/>
  <unicode hex="04A2"/>
  <outline>
    <contour>
      <point x="1338" y="754" type="line"/>
      <point x="1336" y="1419" type="line"/>
      <point x="1098" y="1453" type="line"/>
      <point x="1098" y="1500" type="line"/>
      <point x="1644" y="1500" type="line"/>
      <point x="1644" y="1453" type="line"/>
      <point x="1416" y="1419" type="line"/>
      <point x="1414" y="754" type="line"/>
      <point x="1416" y="57" type="line"/>
      <point x="1644" y="57" type="line"/>
      <point x="1654" y="-338" type="line"/>
      <point x="1600" y="-338" type="line"/>
      <point x="1537" y="0" type="line"/>
      <point x="1098" y="0" type="line"/>
      <point x="1098" y="48" type="line"/>
      <point x="1336" y="83" type="line"/>
    </contour>
    <contour>
      <point x="88" y="0" type="line"/>
      <point x="88" y="48" type="line"/>
      <point x="316" y="83" type="line"/>
      <point x="318" y="754" type="line"/>
      <point x="316" y="1419" type="line"/>
      <point x="88" y="1453" type="line"/>
      <point x="88" y="1500" type="line"/>
      <point x="634" y="1500" type="line"/>
      <point x="634" y="1453" type="line"/>
      <point x="396" y="1419" type="line"/>
      <point x="394" y="754" type="line"/>
      <point x="396" y="83" type="line"/>
      <point x="634" y="48" type="line"/>
      <point x="634" y="0" type="line"/>
    </contour>
    <contour>
      <point x="356" y="757" type="line"/>
      <point x="356" y="819" type="line"/>
      <point x="876" y="811" type="line"/>
      <point x="1376" y="819" type="line"/>
      <point x="1376" y="757" type="line"/>
      <point x="876" y="757" type="line"/>
    </contour>
  </outline>
</glyph>
<glyph name="cheverticalstroke-cy" format="2">
  <advance width="1205"/>
  <unicode hex="04B9"/>
  <guideline x="302" y="625" angle="90" identifier="ghzYOvRP0g"/>
  <guideline x="953" y="554" angle="90" identifier="yWzP0ZeDvZ"/>
  <guideline x="627" y="553" angle="90" identifier="2rptuWkdhO"/>
  <outline>
    <contour>
      <point x="616" y="762" type="line"/>
      <point x="616" y="170" type="line"/>
      <point x="556" y="170" type="line"/>
      <point x="556" y="762" type="line"/>
    </contour>
    <contour>
      <point x="297" y="711" type="line" smooth="yes"/>
      <point x="296" y="591"/>
      <point x="420" y="493"/>
      <point x="568" y="493" type="qcurve" smooth="yes"/>
      <point x="661" y="493"/>
      <point x="827" y="514"/>
      <point x="907" y="546" type="qcurve"/>
      <point x="907" y="488" type="line"/>
      <point x="827" y="461"/>
      <point x="669" y="433"/>
      <point x="561" y="433" type="qcurve" smooth="yes"/>
      <point x="381" y="433"/>
      <point x="220" y="566"/>
      <point x="219" y="711" type="qcurve" smooth="yes"/>
      <point x="218" y="933" type="line"/>
      <point x="50" y="960" type="line"/>
      <point x="50" y="1000" type="line"/>
      <point x="466" y="1000" type="line"/>
      <point x="466" y="960" type="line"/>
      <point x="298" y="933" type="line"/>
    </contour>
    <contour>
      <point x="945" y="500" type="line"/>
      <point x="947" y="67" type="line"/>
      <point x="1115" y="40" type="line"/>
      <point x="1115" y="0" type="line"/>
      <point x="679" y="0" type="line"/>
      <point x="679" y="40" type="line"/>
      <point x="867" y="67" type="line"/>
      <point x="869" y="500" type="line"/>
      <point x="867" y="933" type="line"/>
      <point x="699" y="960" type="line"/>
      <point x="699" y="1000" type="line"/>
      <point x="1115" y="1000" type="line"/>
      <point x="1115" y="960" type="line"/>
      <point x="947" y="933" type="line"/>
    </contour>
  </outline>
</glyph>
<glyph name="Schwacyr" format="2">
  <advance width="1664"/>
  <unicode hex="04D8"/>
  <guideline x="212" y="786" angle="90" identifier="UtNSclIhRG"/>
  <guideline x="1248" y="730" angle="90" identifier="hwb5F7EShy"/>
  <guideline x="176" y="804" angle="90" identifier="CC6biuYdY2"/>
  <guideline x="1489" y="880" angle="90" identifier="5SLpVGRhqp"/>
  <outline>
    <contour>
      <point x="133" y="731" type="line"/>
      <point x="90" y="793" type="line"/>
      <point x="774" y="785" type="line"/>
      <point x="1540" y="793" type="line"/>
      <point x="1540" y="731" type="line"/>
      <point x="774" y="731" type="line"/>
    </contour>
    <contour>
      <point x="215" y="1500" type="line"/>
      <point x="273" y="1500" type="line"/>
      <point x="299" y="1393" type="line"/>
      <point x="380" y="1450"/>
      <point x="653" y="1520"/>
      <point x="809" y="1520" type="qcurve" smooth="yes"/>
      <point x="1183" y="1520"/>
      <point x="1579" y="1097"/>
      <point x="1579" y="752" type="qcurve" smooth="yes"/>
      <point x="1579" y="403"/>
      <point x="1172" y="-31"/>
      <point x="836" y="-31" type="qcurve" smooth="yes"/>
      <point x="506" y="-31"/>
      <point x="85" y="354"/>
      <point x="85" y="697" type="qcurve" smooth="yes"/>
      <point x="85" y="721"/>
      <point x="87" y="770"/>
      <point x="90" y="793" type="qcurve"/>
      <point x="167" y="789" type="line"/>
      <point x="166" y="775"/>
      <point x="165" y="745"/>
      <point x="165" y="731" type="qcurve" smooth="yes"/>
      <point x="165" y="405"/>
      <point x="530" y="33"/>
      <point x="837" y="33" type="qcurve" smooth="yes"/>
      <point x="1156" y="33"/>
      <point x="1501" y="403"/>
      <point x="1501" y="745" type="qcurve" smooth="yes"/>
      <point x="1501" y="1053"/>
      <point x="1147" y="1456"/>
      <point x="809" y="1456" type="qcurve" smooth="yes"/>
      <point x="624" y="1456"/>
      <point x="315" y="1349"/>
      <point x="292" y="1187" type="qcurve" smooth="yes"/>
      <point x="273" y="1051" type="line"/>
      <point x="215" y="1051" type="line"/>
    </contour>
  </outline>
</glyph>
<glyph name="Germandbls" format="2">
  <advance width="1463"/>
  <unicode hex="1E9E"/>
  <outline>
    <contour>
      <point x="156" y="710" type="line"/>
      <point x="154" y="1022" type="line" smooth="yes"/>
      <point x="152" y="1265"/>
      <point x="368" y="1521"/>
      <point x="562" y="1521" type="qcurve" smooth="yes"/>
      <point x="673" y="1521"/>
      <point x="852" y="1506"/>
      <point x="939" y="1500" type="qcurve"/>
      <point x="941" y="1456" type="line"/>
      <point x="805" y="1448"/>
      <point x="649" y="1281"/>
      <point x="649" y="1171" type="qcurve" smooth="yes"/>
      <point x="649" y="1045"/>
      <point x="795" y="916"/>
      <point x="984" y="836" type="qcurve" smooth="yes"/>
      <point x="1187" y="750"/>
      <point x="1347" y="562"/>
      <point x="1347" y="397" type="qcurve" smooth="yes"/>
      <point x="1347" y="204"/>
      <point x="1087" y="-20"/>
      <point x="901" y="-20" type="qcurve" smooth="yes"/>
      <point x="772" y="-20"/>
      <point x="597" y="54"/>
      <point x="537" y="119" type="qcurve"/>
      <point x="490" y="0" type="line"/>
      <point x="456" y="0" type="line"/>
      <point x="456" y="484" type="line"/>
      <point x="502" y="484" type="line"/>
      <point x="530" y="320" type="line" smooth="yes"/>
      <point x="554" y="177"/>
      <point x="745" y="38"/>
      <point x="898" y="38" type="qcurve" smooth="yes"/>
      <point x="1064" y="38"/>
      <point x="1275" y="227"/>
      <point x="1275" y="385" type="qcurve" smooth="yes"/>
      <point x="1275" y="521"/>
      <point x="1139" y="694"/>
      <point x="943" y="773" type="qcurve" smooth="yes"/>
      <point x="760" y="847"/>
      <point x="574" y="1009"/>
      <point x="574" y="1154" type="qcurve" smooth="yes"/>
      <point x="574" y="1247"/>
      <point x="673" y="1407"/>
      <point x="767" y="1452" type="qcurve"/>
      <point x="567" y="1453" type="line" smooth="yes"/>
      <point x="404" y="1454"/>
      <point x="235" y="1248"/>
      <point x="234" y="1039" type="qcurve" smooth="yes"/>
      <point x="232" y="710" type="line"/>
      <point x="234" y="-417" type="line"/>
      <point x="462" y="-452" type="line"/>
      <point x="462" y="-500" type="line"/>
      <point x="-64" y="-500" type="line"/>
      <point x="-64" y="-452" type="line"/>
      <point x="154" y="-417" type="line"/>
    </contour>
  </outline>
</glyph>
<glyph name="horizontalbar" format="2">
	<unicode hex="2015"/>
	<advance width="686"/>
	<outline>
		<contour>
			<point x="306" y="727" type="line"/>
			<point x="13" y="727" type="line"/>
			<point x="21" y="782" type="line"/>
			<point x="329" y="782" type="line"/>
			<point x="657" y="782" type="line"/>
			<point x="656" y="727" type="line"/>
		</contour>
	</outline>
</glyph>
<glyph name="guilsinglleft" format="2">
	<unicode hex="2039"/>
	<advance width="847"/>
	<outline>
		<contour>
			<point x="95" y="619" type="line"/>
			<point x="95" y="619"/>
			<point x="622" y="968"/>
			<point x="683" y="1014" type="qcurve" smooth="yes"/>
			<point x="745" y="1060"/>
			<point x="782" y="998"/>
			<point x="720" y="955" type="qcurve" smooth="yes"/>
			<point x="580" y="858"/>
			<point x="200" y="602"/>
			<point x="200" y="602" type="qcurve"/>
			<point x="200" y="602"/>
			<point x="644" y="308"/>
			<point x="734" y="244" type="qcurve"/>
			<point x="781" y="211"/>
			<point x="748" y="157"/>
			<point x="700" y="184" type="qcurve" smooth="yes"/>
			<point x="639" y="218"/>
			<point x="162" y="541"/>
			<point x="95" y="589" type="qcurve"/>
		</contour>
	</outline>
</glyph>
<glyph name="guilsinglright" format="2">
	<unicode hex="203A"/>
	<advance width="847"/>
	<outline>
		<contour>
			<point x="752" y="589" type="line"/>
			<point x="685" y="541"/>
			<point x="208" y="219"/>
			<point x="147" y="184" type="qcurve" smooth="yes"/>
			<point x="99" y="157"/>
			<point x="65" y="211"/>
			<point x="113" y="244" type="qcurve" smooth="yes"/>
			<point x="174" y="286"/>
			<point x="620" y="583"/>
			<point x="647" y="602" type="qcurve"/>
			<point x="617" y="622"/>
			<point x="182" y="919"/>
			<point x="127" y="955" type="qcurve" smooth="yes"/>
			<point x="65" y="995"/>
			<point x="101" y="1058"/>
			<point x="164" y="1014" type="qcurve" smooth="yes"/>
			<point x="221" y="974"/>
			<point x="700" y="654"/>
			<point x="752" y="619" type="qcurve"/>
		</contour>
	</outline>
</glyph>
<glyph name="franc" format="2">
  <advance width="1035"/>
  <unicode hex="20A3"/>
  <outline>
    <contour>
      <point x="39" y="0" type="line"/>
      <point x="39" y="48" type="line"/>
      <point x="268" y="76" type="line"/>
      <point x="269" y="763" type="line"/>
      <point x="268" y="1424" type="line"/>
      <point x="39" y="1453" type="line"/>
      <point x="39" y="1500" type="line"/>
      <point x="978" y="1500" type="line"/>
      <point x="978" y="1150" type="line"/>
      <point x="924" y="1150" type="line"/>
      <point x="891" y="1443" type="line"/>
      <point x="372" y="1443" type="line"/>
      <point x="345" y="1417" type="line"/>
      <point x="344" y="763" type="line"/>
      <point x="345" y="76" type="line"/>
      <point x="611" y="48" type="line"/>
      <point x="611" y="0" type="line"/>
    </contour>
    <contour>
      <point x="306" y="743" type="line"/>
      <point x="306" y="797" type="line"/>
      <point x="777" y="798" type="line"/>
      <point x="806" y="987" type="line"/>
      <point x="860" y="987" type="line"/>
      <point x="860" y="533" type="line"/>
      <point x="806" y="533" type="line"/>
      <point x="777" y="743" type="line"/>
    </contour>
    <contour>
      <point x="40" y="361" type="line"/>
      <point x="26" y="413" type="line"/>
      <point x="717" y="413" type="line"/>
      <point x="700" y="361" type="line"/>
    </contour>
  </outline>
</glyph>
<glyph name="tenge" format="2">
  <advance width="1295"/>
  <unicode hex="20B8"/>
  <outline>
    <contour>
      <point x="40" y="1440" type="line"/>
      <point x="64" y="1500" type="line"/>
      <point x="1225" y="1500" type="line"/>
      <point x="1255" y="1440" type="line"/>
    </contour>
    <contour>
      <point x="40" y="866" type="line"/>
      <point x="40" y="1249" type="line"/>
      <point x="1255" y="1249" type="line"/>
      <point x="1255" y="866" type="line"/>
      <point x="1201" y="866" type="line"/>
      <point x="1148" y="1192" type="line"/>
      <point x="714" y="1192" type="line"/>
      <point x="688" y="1180" type="line"/>
      <point x="686" y="802" type="line"/>
      <point x="688" y="83" type="line"/>
      <point x="946" y="48" type="line"/>
      <point x="946" y="0" type="line"/>
      <point x="350" y="0" type="line"/>
      <point x="350" y="48" type="line"/>
      <point x="608" y="83" type="line"/>
      <point x="610" y="802" type="line"/>
      <point x="608" y="1178" type="line"/>
      <point x="583" y="1192" type="line"/>
      <point x="139" y="1192" type="line"/>
      <point x="95" y="866" type="line"/>
    </contour>
  </outline>
</glyph>
<glyph name="greaterequal" format="2">
	<unicode hex="2265"/>
	<advance width="986"/>
	<outline>
		<contour>
			<point x="147" y="47" type="line"/>
			<point x="147" y="117" type="line"/>
			<point x="839" y="117" type="line"/>
			<point x="839" y="47" type="line"/>
		</contour>
		<contour>
			<point x="810" y="664" type="qcurve"/>
			<point x="810" y="664"/>
			<point x="335" y="305"/>
			<point x="261" y="244" type="qcurve" smooth="yes"/>
			<point x="234" y="223"/>
			<point x="204" y="271"/>
			<point x="232" y="294" type="qcurve" smooth="yes"/>
			<point x="374" y="411"/>
			<point x="711" y="665"/>
			<point x="711" y="665" type="qcurve"/>
			<point x="711" y="665"/>
			<point x="372" y="924"/>
			<point x="230" y="1038" type="qcurve" smooth="yes"/>
			<point x="202" y="1061"/>
			<point x="235" y="1109"/>
			<point x="262" y="1087" type="qcurve" smooth="yes"/>
			<point x="336" y="1027"/>
			<point x="810" y="664"/>
		</contour>
	</outline>
</glyph>
<glyph name="f_f" format="2">
  <advance width="1193"/>
  <unicode hex="FB00"/>
  <outline>
    <contour>
      <point x="50" y="0" type="line"/>
      <point x="50" y="40" type="line"/>
      <point x="258" y="67" type="line"/>
      <point x="263" y="527" type="line"/>
      <point x="263" y="918" type="line"/>
      <point x="64" y="935" type="line"/>
      <point x="60" y="978" type="line"/>
      <point x="264" y="991" type="line"/>
      <point x="263" y="1277" type="line" smooth="yes"/>
      <point x="263" y="1372"/>
      <point x="383" y="1484"/>
      <point x="463" y="1484" type="qcurve" smooth="yes"/>
      <point x="499" y="1484"/>
      <point x="566" y="1461"/>
      <point x="589" y="1443" type="qcurve" smooth="yes"/>
      <point x="599" y="1435" type="line"/>
      <point x="588" y="1389" type="line"/>
      <point x="578" y="1393" type="line" smooth="yes"/>
      <point x="559" y="1401"/>
      <point x="502" y="1412"/>
      <point x="469" y="1412" type="qcurve" smooth="yes"/>
      <point x="401" y="1412"/>
      <point x="338" y="1328"/>
      <point x="338" y="1268" type="qcurve" smooth="yes"/>
      <point x="338" y="985" type="line"/>
      <point x="852" y="985" type="line"/>
      <point x="851" y="1322" type="line" smooth="yes"/>
      <point x="851" y="1407"/>
      <point x="951" y="1514"/>
      <point x="1031" y="1514" type="qcurve" smooth="yes"/>
      <point x="1067" y="1514"/>
      <point x="1134" y="1492"/>
      <point x="1157" y="1473" type="qcurve" smooth="yes"/>
      <point x="1167" y="1465" type="line"/>
      <point x="1156" y="1419" type="line"/>
      <point x="1146" y="1423" type="line" smooth="yes"/>
      <point x="1127" y="1431"/>
      <point x="1080" y="1442"/>
      <point x="1047" y="1442" type="qcurve" smooth="yes"/>
      <point x="979" y="1442"/>
      <point x="926" y="1368"/>
      <point x="926" y="1308" type="qcurve" smooth="yes"/>
      <point x="926" y="985" type="line"/>
      <point x="1159" y="985" type="line"/>
      <point x="1159" y="925" type="line"/>
      <point x="926" y="925" type="line"/>
      <point x="925" y="527" type="line"/>
      <point x="929" y="67" type="line"/>
      <point x="1151" y="40" type="line"/>
      <point x="1151" y="0" type="line"/>
      <point x="638" y="0" type="line"/>
      <point x="638" y="40" type="line"/>
      <point x="846" y="67" type="line"/>
      <point x="851" y="527" type="line"/>
      <point x="851" y="915" type="line"/>
      <point x="840" y="925" type="line"/>
      <point x="338" y="925" type="line"/>
      <point x="337" y="527" type="line"/>
      <point x="341" y="67" type="line"/>
      <point x="543" y="40" type="line"/>
      <point x="543" y="0" type="line"/>
    </contour>
  </outline>
</glyph>
<glyph name="De" format="2">
	<advance width="1648"/>
	<outline>
		<contour>
			<point x="1514" y="-338" type="line"/>
			<point x="1451" y="0" type="line"/>
			<point x="157" y="0" type="line"/>
			<point x="94" y="-338" type="line"/>
			<point x="40" y="-338" type="line"/>
			<point x="50" y="57" type="line"/>
			<point x="1558" y="57" type="line"/>
			<point x="1568" y="-338" type="line"/>
		</contour>
		<contour>
			<point x="380" y="794" type="qcurve" smooth="yes"/>
			<point x="429" y="1419" type="line"/>
			<point x="202" y="1453" type="line"/>
			<point x="202" y="1500" type="line"/>
			<point x="1558" y="1500" type="line"/>
			<point x="1558" y="1453" type="line"/>
			<point x="1330" y="1419" type="line"/>
			<point x="1328" y="754" type="line"/>
			<point x="1330" y="0" type="line"/>
			<point x="1250" y="0" type="line"/>
			<point x="1252" y="754" type="line"/>
			<point x="1250" y="1417" type="line"/>
			<point x="1223" y="1443" type="line"/>
			<point x="531" y="1443" type="line"/>
			<point x="494" y="1417" type="line"/>
			<point x="445" y="793" type="line" smooth="yes"/>
			<point x="426" y="553"/>
			<point x="354" y="186"/>
			<point x="297" y="57" type="qcurve"/>
			<point x="206" y="57" type="line"/>
			<point x="278" y="190"/>
			<point x="361" y="558"/>
		</contour>
	</outline>
</glyph>
<glyph name="Ecyr" format="2">
	<advance width="1496"/>
	<outline>
		<contour>
			<point x="657" y="-33" type="qcurve" smooth="yes"/>
			<point x="508" y="-33"/>
			<point x="278" y="49"/>
			<point x="219" y="109" type="qcurve"/>
			<point x="198" y="-11" type="line"/>
			<point x="140" y="-11" type="line"/>
			<point x="140" y="449" type="line"/>
			<point x="197" y="449" type="line"/>
			<point x="217" y="328" type="line" smooth="yes"/>
			<point x="243" y="169"/>
			<point x="479" y="31"/>
			<point x="667" y="31" type="qcurve" smooth="yes"/>
			<point x="984" y="31"/>
			<point x="1332" y="410"/>
			<point x="1332" y="741" type="qcurve" smooth="yes"/>
			<point x="1332" y="1060"/>
			<point x="968" y="1455"/>
			<point x="663" y="1455" type="qcurve" smooth="yes"/>
			<point x="497" y="1455"/>
			<point x="256" y="1353"/>
			<point x="237" y="1221" type="qcurve" smooth="yes"/>
			<point x="213" y="1051" type="line"/>
			<point x="155" y="1051" type="line"/>
			<point x="155" y="1500" type="line"/>
			<point x="213" y="1500" type="line"/>
			<point x="234" y="1411" type="line"/>
			<point x="301" y="1455"/>
			<point x="519" y="1520"/>
			<point x="660" y="1520" type="qcurve" smooth="yes"/>
			<point x="995" y="1520"/>
			<point x="1411" y="1100"/>
			<point x="1411" y="754" type="qcurve" smooth="yes"/>
			<point x="1411" y="420"/>
			<point x="1006" y="-33"/>
		</contour>
		<contour>
			<point x="1371" y="736" type="line"/>
			<point x="636" y="734" type="line"/>
			<point x="607" y="543" type="line"/>
			<point x="554" y="543" type="line"/>
			<point x="554" y="975" type="line"/>
			<point x="607" y="975" type="line"/>
			<point x="636" y="789" type="line"/>
			<point x="1371" y="784" type="line"/>
		</contour>
	</outline>
	<guideline x="1147" y="753" angle="90" identifier="Ovo68woMtl"/>
	<guideline x="211" y="787" angle="90" identifier="BltxzGcBtl"/>
</glyph>
<glyph name="Ef" format="2">
	<advance width="1719"/>
	<outline>
		<contour>
			<point x="859" y="215" type="qcurve"/>
			<point x="859" y="279" type="line"/>
			<point x="1231" y="281"/>
			<point x="1564" y="549"/>
			<point x="1564" y="769" type="qcurve" smooth="yes"/>
			<point x="1564" y="988"/>
			<point x="1231" y="1229"/>
			<point x="859" y="1229" type="qcurve"/>
			<point x="859" y="1293" type="line"/>
			<point x="1276" y="1293"/>
			<point x="1644" y="1002"/>
			<point x="1644" y="780" type="qcurve" smooth="yes"/>
			<point x="1644" y="526"/>
			<point x="1252" y="225"/>
		</contour>
		<contour>
			<point x="859" y="215" type="line"/>
			<point x="442" y="215"/>
			<point x="74" y="506"/>
			<point x="74" y="728" type="qcurve" smooth="yes"/>
			<point x="74" y="982"/>
			<point x="466" y="1283"/>
			<point x="859" y="1293" type="qcurve"/>
			<point x="859" y="1229" type="line"/>
			<point x="487" y="1227"/>
			<point x="154" y="959"/>
			<point x="154" y="739" type="qcurve" smooth="yes"/>
			<point x="154" y="520"/>
			<point x="487" y="279"/>
			<point x="859" y="279" type="qcurve"/>
		</contour>
		<contour>
			<point x="581" y="-24" type="line"/>
			<point x="581" y="24" type="line"/>
			<point x="819" y="59" type="line"/>
			<point x="820" y="260" type="line"/>
			<point x="820" y="260" type="line"/>
			<point x="821" y="745" type="line"/>
			<point x="897" y="745" type="line"/>
			<point x="898" y="261" type="line"/>
			<point x="898" y="261" type="line"/>
			<point x="899" y="59" type="line"/>
			<point x="1137" y="24" type="line"/>
			<point x="1137" y="-24" type="line"/>
		</contour>
		<contour>
			<point x="821" y="745" type="line"/>
			<point x="820" y="1246" type="line"/>
			<point x="820" y="1246" type="line"/>
			<point x="819" y="1439" type="line"/>
			<point x="581" y="1473" type="line"/>
			<point x="581" y="1520" type="line"/>
			<point x="1137" y="1520" type="line"/>
			<point x="1137" y="1473" type="line"/>
			<point x="899" y="1439" type="line"/>
			<point x="898" y="1246" type="line"/>
			<point x="898" y="1246" type="line"/>
			<point x="897" y="745" type="line"/>
		</contour>
	</outline>
</glyph>
<glyph name="El.bgr" format="2">
  <advance width="1471"/>
  <outline>
    <contour>
      <point x="-37" y="0" type="line"/>
      <point x="-37" y="47" type="line"/>
      <point x="172" y="81" type="line"/>
      <point x="403" y="730" type="line"/>
      <point x="684" y="1507" type="line"/>
      <point x="771" y="1507" type="line"/>
      <point x="1047" y="748" type="line"/>
      <point x="1290" y="81" type="line"/>
      <point x="1508" y="47" type="line"/>
      <point x="1508" y="0" type="line"/>
      <point x="969" y="0" type="line"/>
      <point x="969" y="47" type="line"/>
      <point x="1201" y="81" type="line"/>
      <point x="971" y="723" type="line"/>
      <point x="720" y="1418" type="line"/>
      <point x="465" y="706" type="line"/>
      <point x="247" y="81" type="line"/>
      <point x="474" y="47" type="line"/>
      <point x="474" y="0" type="line"/>
    </contour>
  </outline>
</glyph>
<glyph name="Hastroke-cy" format="2">
	<advance width="1373"/>
	<outline>
		<contour>
			<point x="253" y="771" type="line"/>
			<point x="253" y="837" type="line"/>
			<point x="670" y="834" type="line"/>
			<point x="1074" y="837" type="line"/>
			<point x="1074" y="771" type="line"/>
			<point x="663" y="774" type="line"/>
		</contour>
		<component base="X"/>
	</outline>
</glyph>
<glyph name="Icyr" format="2">
	<advance width="1742"/>
	<outline>
		<contour>
			<point x="1108" y="0" type="line"/>
			<point x="1108" y="48" type="line"/>
			<point x="1346" y="83" type="line"/>
			<point x="1348" y="754" type="line"/>
			<point x="1346" y="1419" type="line"/>
			<point x="1108" y="1453" type="line"/>
			<point x="1108" y="1500" type="line"/>
			<point x="1654" y="1500" type="line"/>
			<point x="1654" y="1453" type="line"/>
			<point x="1426" y="1419" type="line"/>
			<point x="1424" y="754" type="line"/>
			<point x="1426" y="83" type="line"/>
			<point x="1654" y="48" type="line"/>
			<point x="1654" y="0" type="line"/>
		</contour>
		<contour>
			<point x="88" y="0" type="line"/>
			<point x="88" y="48" type="line"/>
			<point x="316" y="83" type="line"/>
			<point x="318" y="754" type="line"/>
			<point x="316" y="1419" type="line"/>
			<point x="88" y="1453" type="line"/>
			<point x="88" y="1500" type="line"/>
			<point x="634" y="1500" type="line"/>
			<point x="634" y="1453" type="line"/>
			<point x="396" y="1419" type="line"/>
			<point x="394" y="754" type="line"/>
			<point x="396" y="83" type="line"/>
			<point x="634" y="48" type="line"/>
			<point x="634" y="0" type="line"/>
		</contour>
		<contour>
			<point x="395" y="245" type="line"/>
			<point x="336" y="267" type="line"/>
			<point x="860" y="763" type="line"/>
			<point x="1347" y="1242" type="line"/>
			<point x="1406" y="1220" type="line"/>
			<point x="910" y="747" type="line"/>
		</contour>
	</outline>
	<guideline x="739" y="930" angle="90" identifier="jpSOnFR6u4"/>
	<guideline x="880" y="783" angle="90" identifier="3fHus3tMSg"/>
	<guideline x="953" y="742" angle="0" identifier="rmoGi5h6UR"/>
</glyph>
<glyph name="Ka" format="2">
	<advance width="1457"/>
	<outline>
		<contour>
			<point x="88" y="0" type="line"/>
			<point x="88" y="48" type="line"/>
			<point x="316" y="83" type="line"/>
			<point x="318" y="754" type="line"/>
			<point x="316" y="1419" type="line"/>
			<point x="88" y="1453" type="line"/>
			<point x="88" y="1500" type="line"/>
			<point x="634" y="1500" type="line"/>
			<point x="634" y="1453" type="line"/>
			<point x="396" y="1419" type="line"/>
			<point x="394" y="754" type="line"/>
			<point x="396" y="83" type="line"/>
			<point x="634" y="48" type="line"/>
			<point x="634" y="0" type="line"/>
		</contour>
		<contour>
			<point x="356" y="757" type="line"/>
			<point x="356" y="819" type="line"/>
			<point x="643" y="815" type="line"/>
			<point x="1127" y="1419" type="line"/>
			<point x="942" y="1453" type="line"/>
			<point x="942" y="1500" type="line"/>
			<point x="1412" y="1500" type="line"/>
			<point x="1412" y="1453" type="line"/>
			<point x="1216" y="1419" type="line"/>
			<point x="699" y="789" type="line"/>
			<point x="675" y="754" type="line"/>
		</contour>
		<contour>
			<point x="643" y="760" type="line"/>
			<point x="694" y="810" type="line"/>
			<point x="1294" y="83" type="line"/>
			<point x="1504" y="48" type="line"/>
			<point x="1504" y="0" type="line"/>
			<point x="992" y="0" type="line"/>
			<point x="992" y="48" type="line"/>
			<point x="1202" y="83" type="line"/>
		</contour>
	</outline>
	<guideline x="480" y="796" angle="90" identifier="LxfLwWU0sJ"/>
</glyph>
<glyph name="Lje" format="2">
	<advance width="1954"/>
	<outline>
		<contour>
			<point x="798" y="0" type="line"/>
			<point x="798" y="48" type="line"/>
			<point x="1026" y="83" type="line"/>
			<point x="1028" y="754" type="line"/>
			<point x="1026" y="1417" type="line"/>
			<point x="999" y="1443" type="line"/>
			<point x="556" y="1443" type="line"/>
			<point x="519" y="1417" type="line"/>
			<point x="467" y="754" type="line" smooth="yes"/>
			<point x="433" y="323"/>
			<point x="307" y="-17"/>
			<point x="139" y="-17" type="qcurve" smooth="yes"/>
			<point x="115" y="-17"/>
			<point x="72" y="-9"/>
			<point x="50" y="0" type="qcurve"/>
			<point x="50" y="103" type="line"/>
			<point x="74" y="95"/>
			<point x="114" y="90"/>
			<point x="135" y="90" type="qcurve" smooth="yes"/>
			<point x="276" y="90"/>
			<point x="376.3605233481" y="426.1105389713"/>
			<point x="402" y="754" type="qcurve" smooth="yes"/>
			<point x="454" y="1419" type="line"/>
			<point x="226" y="1453" type="line"/>
			<point x="226" y="1500" type="line"/>
			<point x="1334" y="1500" type="line"/>
			<point x="1334" y="1453" type="line"/>
			<point x="1106" y="1419" type="line"/>
			<point x="1104" y="892" type="line"/>
			<point x="1112" y="881" type="line"/>
			<point x="1396" y="881" type="line" smooth="yes"/>
			<point x="1647" y="881"/>
			<point x="1904" y="658"/>
			<point x="1904" y="447" type="qcurve" smooth="yes"/>
			<point x="1904" y="233"/>
			<point x="1637" y="0"/>
			<point x="1404" y="0" type="qcurve" smooth="yes"/>
		</contour>
		<contour>
			<point x="1104" y="809" type="line"/>
			<point x="1105" y="77" type="line"/>
			<point x="1135" y="60" type="line"/>
			<point x="1389" y="59" type="line" smooth="yes"/>
			<point x="1592" y="58"/>
			<point x="1817" y="249"/>
			<point x="1817" y="447" type="qcurve" smooth="yes"/>
			<point x="1817" y="634"/>
			<point x="1598" y="820"/>
			<point x="1392" y="820" type="qcurve" smooth="yes"/>
			<point x="1109" y="820" type="line"/>
		</contour>
	</outline>
</glyph>
<glyph name="Obarcyr" format="2">
	<advance width="1664"/>
	<outline>
		<contour>
			<point x="125" y="743" type="line"/>
			<point x="125" y="805" type="line"/>
			<point x="834" y="797" type="line"/>
			<point x="1540" y="805" type="line"/>
			<point x="1540" y="742" type="line"/>
			<point x="834" y="742" type="line"/>
		</contour>
		<contour>
			<point x="85" y="737" type="qcurve" smooth="yes"/>
			<point x="85" y="1068"/>
			<point x="495" y="1520"/>
			<point x="832" y="1520" type="qcurve" smooth="yes"/>
			<point x="1169" y="1520"/>
			<point x="1579" y="1097"/>
			<point x="1579" y="752" type="qcurve" smooth="yes"/>
			<point x="1579" y="423"/>
			<point x="1173" y="-31"/>
			<point x="836" y="-31" type="qcurve" smooth="yes"/>
			<point x="507" y="-31"/>
			<point x="85" y="396"/>
		</contour>
		<contour>
			<point x="164" y="779" type="qcurve" smooth="yes"/>
			<point x="164" y="452"/>
			<point x="535.5520833333" y="33"/>
			<point x="837" y="33" type="qcurve" smooth="yes"/>
			<point x="1151.4736048265" y="33"/>
			<point x="1501" y="415"/>
			<point x="1501" y="749" type="qcurve" smooth="yes"/>
			<point x="1501" y="1055"/>
			<point x="1141.4585218703" y="1456"/>
			<point x="837" y="1456" type="qcurve" smooth="yes"/>
			<point x="519.5282738095" y="1456"/>
			<point x="164" y="1082"/>
		</contour>
	</outline>
	<guideline x="212" y="786" angle="90" identifier="UtNSclIhRG"/>
	<guideline x="1248" y="730" angle="90" identifier="hwb5F7EShy"/>
	<guideline x="176" y="804" angle="90" identifier="CC6biuYdY2"/>
	<guideline x="1489" y="880" angle="90" identifier="5SLpVGRhqp"/>
</glyph>
<glyph name="Pe" format="2">
	<advance width="1712"/>
	<outline>
		<contour>
			<point x="1316" y="1417" type="line"/>
			<point x="1289" y="1443" type="line"/>
			<point x="433" y="1443" type="line"/>
			<point x="396" y="1417" type="line"/>
			<point x="394" y="754" type="line"/>
			<point x="396" y="83" type="line"/>
			<point x="634" y="48" type="line"/>
			<point x="634" y="0" type="line"/>
			<point x="88" y="0" type="line"/>
			<point x="88" y="48" type="line"/>
			<point x="316" y="83" type="line"/>
			<point x="318" y="754" type="line"/>
			<point x="316" y="1419" type="line"/>
			<point x="88" y="1453" type="line"/>
			<point x="88" y="1500" type="line"/>
			<point x="1624" y="1500" type="line"/>
			<point x="1624" y="1453" type="line"/>
			<point x="1396" y="1419" type="line"/>
			<point x="1393" y="754" type="line"/>
			<point x="1396" y="83" type="line"/>
			<point x="1624" y="48" type="line"/>
			<point x="1624" y="0" type="line"/>
			<point x="1078" y="0" type="line"/>
			<point x="1078" y="48" type="line"/>
			<point x="1316" y="83" type="line"/>
			<point x="1318" y="754" type="line"/>
		</contour>
	</outline>
</glyph>
<glyph name="Soft" format="2">
	<advance width="1244"/>
	<outline>
		<contour>
			<point x="682" y="820" type="line" smooth="yes"/>
			<point x="888.3995215311" y="820"/>
			<point x="1107" y="634"/>
			<point x="1107" y="447" type="qcurve" smooth="yes"/>
			<point x="1107" y="249"/>
			<point x="882.3262989984" y="58.1995027598"/>
			<point x="679" y="59" type="qcurve" smooth="yes"/>
			<point x="425" y="60" type="line"/>
			<point x="395" y="77" type="line"/>
			<point x="394" y="754" type="line"/>
			<point x="396" y="1419" type="line"/>
			<point x="634" y="1453" type="line"/>
			<point x="634" y="1500" type="line"/>
			<point x="88" y="1500" type="line"/>
			<point x="88" y="1453" type="line"/>
			<point x="316" y="1419" type="line"/>
			<point x="318" y="754" type="line"/>
			<point x="316" y="83" type="line"/>
			<point x="88" y="48" type="line"/>
			<point x="88" y="0" type="line"/>
			<point x="694" y="0" type="line" smooth="yes"/>
			<point x="927.2657200811" y="0"/>
			<point x="1194" y="233"/>
			<point x="1194" y="447" type="qcurve" smooth="yes"/>
			<point x="1194" y="658"/>
			<point x="937.4650698603" y="881"/>
			<point x="686" y="881" type="qcurve" smooth="yes"/>
			<point x="356" y="881" type="line"/>
			<point x="356" y="820" type="line"/>
		</contour>
	</outline>
</glyph>
<glyph name="Ucyr" format="2">
	<advance width="1323"/>
	<outline>
		<contour>
			<point x="651" y="390" type="qcurve" smooth="yes"/>
			<point x="855" y="869" type="line"/>
			<point x="1076" y="1419" type="line"/>
			<point x="849" y="1453" type="line"/>
			<point x="849" y="1500" type="line"/>
			<point x="1360" y="1500" type="line"/>
			<point x="1360" y="1453" type="line"/>
			<point x="1151" y="1419" type="line"/>
			<point x="903" y="845" type="line"/>
			<point x="696" y="337" type="line" smooth="yes"/>
			<point x="621" y="152"/>
			<point x="460" y="-17"/>
			<point x="323" y="-17" type="qcurve" smooth="yes"/>
			<point x="290" y="-17"/>
			<point x="249" y="-10"/>
			<point x="220" y="0" type="qcurve"/>
			<point x="220" y="103" type="line"/>
			<point x="244" y="95"/>
			<point x="284" y="90"/>
			<point x="321" y="90" type="qcurve" smooth="yes"/>
			<point x="449" y="90"/>
			<point x="579.9863227419" y="223.257100948"/>
		</contour>
		<contour>
			<point x="634" y="275" type="line"/>
			<point x="397" y="888" type="line"/>
			<point x="181" y="1419" type="line"/>
			<point x="-37" y="1453" type="line"/>
			<point x="-37" y="1500" type="line"/>
			<point x="502" y="1500" type="line"/>
			<point x="502" y="1453" type="line"/>
			<point x="270" y="1419" type="line"/>
			<point x="460" y="930" type="line"/>
			<point x="685" y="374" type="line"/>
		</contour>
	</outline>
</glyph>
<glyph name="Ya" format="2">
	<advance width="1436"/>
	<outline>
		<contour>
			<point x="684" y="750" type="line"/>
			<point x="376" y="242" type="line" smooth="yes"/>
			<point x="288" y="107"/>
			<point x="163" y="49"/>
			<point x="40" y="48" type="qcurve"/>
			<point x="40" y="0" type="line"/>
			<point x="312" y="0" type="line"/>
			<point x="335" y="13" type="line"/>
			<point x="764" y="741" type="line"/>
		</contour>
		<contour>
			<point x="754" y="782" type="line" smooth="yes"/>
			<point x="583" y="780"/>
			<point x="380" y="951"/>
			<point x="380" y="1110" type="qcurve" smooth="yes"/>
			<point x="380" y="1265"/>
			<point x="576" y="1441"/>
			<point x="741" y="1441" type="qcurve" smooth="yes"/>
			<point x="989" y="1441" type="line"/>
			<point x="1023" y="1421" type="line"/>
			<point x="1025" y="788" type="line"/>
			<point x="1023" y="83" type="line"/>
			<point x="770" y="48" type="line"/>
			<point x="770" y="0" type="line"/>
			<point x="1348" y="0" type="line"/>
			<point x="1348" y="48" type="line"/>
			<point x="1102" y="83" type="line"/>
			<point x="1100" y="754" type="line"/>
			<point x="1101" y="1419" type="line"/>
			<point x="1330" y="1453" type="line"/>
			<point x="1330" y="1500" type="line"/>
			<point x="742" y="1500" type="line" smooth="yes"/>
			<point x="529" y="1500"/>
			<point x="297" y="1290"/>
			<point x="297" y="1113" type="qcurve" smooth="yes"/>
			<point x="297" y="945"/>
			<point x="495" y="752"/>
			<point x="679" y="732" type="qcurve"/>
			<point x="703" y="730" type="line"/>
			<point x="1039" y="735" type="line"/>
			<point x="1039" y="785" type="line"/>
		</contour>
	</outline>
</glyph>
<glyph name="acutecomb.case" format="2">
  <advance width="1024"/>
  <anchor x="512.0" y="1500" name="_top"/>
  <anchor x="512.0" y="1912.0" name="top"/>
  <outline>
    <contour>
      <point x="735.0" y="1869.0" type="qcurve" smooth="yes"/>
      <point x="735.0" y="1853.0"/>
      <point x="712.0" y="1824.0"/>
      <point x="695.0" y="1812.0" type="qcurve" smooth="yes"/>
      <point x="442.0" y="1640.0" type="line"/>
      <point x="422.0" y="1667.0" type="line"/>
      <point x="623.0" y="1874.0" type="line" smooth="yes"/>
      <point x="641.0" y="1893.0"/>
      <point x="674.0" y="1912.0"/>
      <point x="692.0" y="1912.0" type="qcurve" smooth="yes"/>
      <point x="711.0" y="1912.0"/>
      <point x="735.0" y="1887.0"/>
    </contour>
  </outline>
</glyph>
<glyph name="be.locl" format="2">
  <advance width="1168"/>
  <outline>
    <contour>
      <point x="152" y="523" type="qcurve" smooth="yes"/>
      <point x="153" y="317"/>
      <point x="388.7774480712" y="30"/>
      <point x="581" y="30" type="qcurve" smooth="yes"/>
      <point x="789.1483679525" y="30"/>
      <point x="1014" y="288"/>
      <point x="1014" y="500" type="qcurve" smooth="yes"/>
      <point x="1014" y="706"/>
      <point x="779" y="962"/>
      <point x="584" y="962" type="qcurve" smooth="yes"/>
      <point x="392" y="962"/>
      <point x="150.853790046" y="728.1715817644"/>
    </contour>
    <contour>
      <point x="68" y="500" type="qcurve" smooth="yes"/>
      <point x="68" y="671.8912133891"/>
      <point x="288" y="968"/>
      <point x="524" y="1001" type="qcurve"/>
      <point x="524" y="1005" type="line"/>
      <point x="338.9639744804" y="1033.0054525111"/>
      <point x="165" y="1140.1652173913"/>
      <point x="165" y="1237" type="qcurve" smooth="yes"/>
      <point x="165" y="1326"/>
      <point x="300" y="1435"/>
      <point x="448" y="1435" type="qcurve" smooth="yes"/>
      <point x="703" y="1435" type="line" smooth="yes"/>
      <point x="838" y="1435"/>
      <point x="955.8035771288" y="1458.575023941"/>
      <point x="969" y="1514" type="qcurve"/>
      <point x="1009" y="1514" type="line"/>
      <point x="999.7130403563" y="1429.573094148"/>
      <point x="871" y="1352"/>
      <point x="715" y="1352" type="qcurve" smooth="yes"/>
      <point x="448" y="1352" type="line" smooth="yes"/>
      <point x="315" y="1352"/>
      <point x="219" y="1300"/>
      <point x="219" y="1237" type="qcurve" smooth="yes"/>
      <point x="219" y="1147"/>
      <point x="422.9449578947" y="1057.8506080466"/>
      <point x="636" y="1022" type="qcurve" smooth="yes"/>
      <point x="873" y="982"/>
      <point x="1100" y="710"/>
      <point x="1100" y="506" type="qcurve" smooth="yes"/>
      <point x="1100" y="290"/>
      <point x="818.2015503876" y="-22"/>
      <point x="588" y="-22" type="qcurve" smooth="yes"/>
      <point x="356.7786259542" y="-22"/>
      <point x="68" y="267"/>
    </contour>
  </outline>
</glyph>
<glyph name="breve.cyr.case" format="2">
  <advance width="1024"/>
  <anchor x="512.0" y="1500" name="_top"/>
  <anchor x="512.0" y="1500" name="top"/>
  <outline>
    <contour>
      <point x="512" y="1668" type="qcurve" smooth="yes"/>
      <point x="610" y="1668"/>
      <point x="731" y="1770"/>
      <point x="758" y="1886" type="qcurve"/>
      <point x="864" y="1829" type="line"/>
      <point x="822" y="1725"/>
      <point x="636" y="1620"/>
      <point x="512" y="1620" type="qcurve" smooth="yes"/>
      <point x="388" y="1620"/>
      <point x="201" y="1724"/>
      <point x="160" y="1829" type="qcurve"/>
      <point x="266" y="1886" type="line"/>
      <point x="293" y="1771"/>
      <point x="414" y="1668"/>
    </contour>
  </outline>
</glyph>
<glyph name="breve.cyr" format="2">
  <advance width="1022"/>
  <anchor x="511.0" y="1000" name="_top"/>
  <outline>
    <contour>
      <point x="511" y="1205" type="qcurve" smooth="yes"/>
      <point x="610.5893719807" y="1205"/>
      <point x="711.9883688156" y="1312.904769678"/>
      <point x="728" y="1444" type="qcurve"/>
      <point x="845" y="1415" type="line"/>
      <point x="806" y="1270"/>
      <point x="640" y="1151"/>
      <point x="511" y="1151" type="qcurve" smooth="yes"/>
      <point x="382" y="1151"/>
      <point x="215" y="1270"/>
      <point x="177" y="1415" type="qcurve"/>
      <point x="294" y="1444" type="line"/>
      <point x="311.0139241496" y="1312.8927021412"/>
      <point x="411.4106280193" y="1205"/>
    </contour>
  </outline>
</glyph>
<glyph name="breveacutecomb.case" format="2">
  <advance width="1024"/>
  <anchor x="512.0" y="1500" name="_top"/>
  <outline>
    <contour>
      <point x="735" y="1855" type="qcurve"/>
      <point x="775" y="1846" type="line"/>
      <point x="759" y="1766"/>
      <point x="617" y="1630"/>
      <point x="513" y="1630" type="qcurve" smooth="yes"/>
      <point x="408" y="1630"/>
      <point x="267" y="1755"/>
      <point x="249" y="1844" type="qcurve"/>
      <point x="292" y="1856" type="line"/>
      <point x="318" y="1800"/>
      <point x="425" y="1712"/>
      <point x="514" y="1712" type="qcurve" smooth="yes"/>
      <point x="604" y="1712"/>
      <point x="714" y="1801"/>
    </contour>
    <contour>
      <point x="752.3999999999069" y="2134.8000000000466" type="qcurve" smooth="yes"/>
      <point x="752.3999999999069" y="2118.8000000000466"/>
      <point x="729.3999999999069" y="2089.8000000000466"/>
      <point x="712.3999999999069" y="2077.8000000000466" type="qcurve" smooth="yes"/>
      <point x="459.39999999990687" y="1905.8000000000466" type="line"/>
      <point x="439.39999999990687" y="1932.8000000000466" type="line"/>
      <point x="640.3999999999069" y="2139.8000000000466" type="line" smooth="yes"/>
      <point x="658.3999999999069" y="2158.8000000000466"/>
      <point x="691.3999999999069" y="2177.8000000000466"/>
      <point x="709.3999999999069" y="2177.8000000000466" type="qcurve" smooth="yes"/>
      <point x="728.3999999999069" y="2177.8000000000466"/>
      <point x="752.3999999999069" y="2152.8000000000466"/>
    </contour>
  </outline>
</glyph>
<glyph name="breveacutecomb" format="2">
  <advance width="1024"/>
  <anchor x="512.0" y="1000" name="_top"/>
  <outline>
    <contour>
      <point x="735" y="1368" type="qcurve"/>
      <point x="775" y="1359" type="line"/>
      <point x="759" y="1279"/>
      <point x="617" y="1143"/>
      <point x="513" y="1143" type="qcurve" smooth="yes"/>
      <point x="408" y="1143"/>
      <point x="267" y="1268"/>
      <point x="249" y="1357" type="qcurve"/>
      <point x="292" y="1369" type="line"/>
      <point x="318" y="1313"/>
      <point x="425" y="1225"/>
      <point x="514" y="1225" type="qcurve" smooth="yes"/>
      <point x="604" y="1225"/>
      <point x="714" y="1314"/>
    </contour>
    <contour>
      <point x="751.1999999999534" y="1689.2000000000698" type="qcurve" smooth="yes"/>
      <point x="751.1999999999534" y="1674.2000000000698"/>
      <point x="730.1999999999534" y="1643.2000000000698"/>
      <point x="713.1999999999534" y="1629.2000000000698" type="qcurve" smooth="yes"/>
      <point x="463.19999999995343" y="1422.2000000000698" type="line"/>
      <point x="440.19999999995343" y="1448.2000000000698" type="line"/>
      <point x="639.1999999999534" y="1684.2000000000698" type="line" smooth="yes"/>
      <point x="657.1999999999534" y="1705.2000000000698"/>
      <point x="688.1999999999534" y="1728.2000000000698"/>
      <point x="707.1999999999534" y="1728.2000000000698" type="qcurve" smooth="yes"/>
      <point x="726.1999999999534" y="1728.2000000000698"/>
      <point x="751.1999999999534" y="1703.2000000000698"/>
    </contour>
  </outline>
</glyph>
<glyph name="brevecomb.case" format="2">
  <advance width="1024"/>
  <anchor x="512.0" y="1500" name="_top"/>
  <anchor x="512.0" y="1866.0" name="top"/>
  <outline>
    <contour>
      <point x="735.0" y="1865.0" type="qcurve"/>
      <point x="775.0" y="1856.0" type="line"/>
      <point x="759.0" y="1776.0"/>
      <point x="617.0" y="1640.0"/>
      <point x="513.0" y="1640.0" type="qcurve" smooth="yes"/>
      <point x="408.0" y="1640.0"/>
      <point x="267.0" y="1765.0"/>
      <point x="249.0" y="1854.0" type="qcurve"/>
      <point x="292.0" y="1866.0" type="line"/>
      <point x="318.0" y="1810.0"/>
      <point x="425.0" y="1722.0"/>
      <point x="514.0" y="1722.0" type="qcurve" smooth="yes"/>
      <point x="604.0" y="1722.0"/>
      <point x="714.0" y="1811.0"/>
    </contour>
  </outline>
</glyph>
<glyph name="brevegravecomb.case" format="2">
  <advance width="1024"/>
  <anchor x="512.0" y="1500" name="_top"/>
  <outline>
    <contour>
      <point x="735" y="1855" type="qcurve"/>
      <point x="775" y="1846" type="line"/>
      <point x="759" y="1766"/>
      <point x="617" y="1630"/>
      <point x="513" y="1630" type="qcurve" smooth="yes"/>
      <point x="408" y="1630"/>
      <point x="267" y="1755"/>
      <point x="249" y="1844" type="qcurve"/>
      <point x="292" y="1856" type="line"/>
      <point x="318" y="1800"/>
      <point x="425" y="1712"/>
      <point x="514" y="1712" type="qcurve" smooth="yes"/>
      <point x="604" y="1712"/>
      <point x="714" y="1801"/>
    </contour>
    <contour>
      <point x="271.5999999999767" y="2134.800000000105" type="qcurve" smooth="yes"/>
      <point x="271.5999999999767" y="2152.800000000105"/>
      <point x="295.5999999999767" y="2177.800000000105"/>
      <point x="314.5999999999767" y="2177.800000000105" type="qcurve" smooth="yes"/>
      <point x="332.5999999999767" y="2177.800000000105"/>
      <point x="365.5999999999767" y="2158.800000000105"/>
      <point x="383.5999999999767" y="2139.800000000105" type="qcurve" smooth="yes"/>
      <point x="584.5999999999767" y="1932.8000000001048" type="line"/>
      <point x="564.5999999999767" y="1905.8000000001048" type="line"/>
      <point x="311.5999999999767" y="2077.800000000105" type="line" smooth="yes"/>
      <point x="294.5999999999767" y="2089.800000000105"/>
      <point x="271.5999999999767" y="2118.800000000105"/>
    </contour>
  </outline>
</glyph>
<glyph name="brevegravecomb" format="2">
  <advance width="1024"/>
  <anchor x="512.0" y="1000" name="_top"/>
  <outline>
    <contour>
      <point x="735" y="1368" type="qcurve"/>
      <point x="775" y="1359" type="line"/>
      <point x="759" y="1279"/>
      <point x="617" y="1143"/>
      <point x="513" y="1143" type="qcurve" smooth="yes"/>
      <point x="408" y="1143"/>
      <point x="267" y="1268"/>
      <point x="249" y="1357" type="qcurve"/>
      <point x="292" y="1369" type="line"/>
      <point x="318" y="1313"/>
      <point x="425" y="1225"/>
      <point x="514" y="1225" type="qcurve" smooth="yes"/>
      <point x="604" y="1225"/>
      <point x="714" y="1314"/>
    </contour>
    <contour>
      <point x="272.79999999993015" y="1689.2000000000698" type="qcurve" smooth="yes"/>
      <point x="272.79999999993015" y="1703.2000000000698"/>
      <point x="297.79999999993015" y="1728.2000000000698"/>
      <point x="316.79999999993015" y="1728.2000000000698" type="qcurve" smooth="yes"/>
      <point x="335.79999999993015" y="1728.2000000000698"/>
      <point x="366.79999999993015" y="1705.2000000000698"/>
      <point x="384.79999999993015" y="1684.2000000000698" type="qcurve" smooth="yes"/>
      <point x="583.7999999999302" y="1448.2000000000698" type="line"/>
      <point x="560.7999999999302" y="1422.2000000000698" type="line"/>
      <point x="310.79999999993015" y="1629.2000000000698" type="line" smooth="yes"/>
      <point x="293.79999999993015" y="1643.2000000000698"/>
      <point x="272.79999999993015" y="1674.2000000000698"/>
    </contour>
  </outline>
</glyph>
<glyph name="brevehookabovecomb.case" format="2">
  <advance width="1024"/>
  <anchor x="512.0" y="1500" name="_top"/>
  <outline>
    <contour>
      <point x="735" y="1855" type="qcurve"/>
      <point x="775" y="1846" type="line"/>
      <point x="759" y="1766"/>
      <point x="617" y="1630"/>
      <point x="513" y="1630" type="qcurve" smooth="yes"/>
      <point x="408" y="1630"/>
      <point x="267" y="1755"/>
      <point x="249" y="1844" type="qcurve"/>
      <point x="292" y="1856" type="line"/>
      <point x="318" y="1800"/>
      <point x="425" y="1712"/>
      <point x="514" y="1712" type="qcurve" smooth="yes"/>
      <point x="604" y="1712"/>
      <point x="714" y="1801"/>
    </contour>
    <contour>
      <point x="391.5" y="1920.7000000000698" type="line"/>
      <point x="391.5" y="2054.70000000007" type="line"/>
      <point x="419.5" y="2078.70000000007" type="line"/>
      <point x="435.5" y="2073.70000000007"/>
      <point x="486.5" y="2067.70000000007"/>
      <point x="518.5" y="2067.70000000007" type="qcurve" smooth="yes"/>
      <point x="586.5" y="2067.70000000007"/>
      <point x="647.5" y="2132.70000000007"/>
      <point x="647.5" y="2178.70000000007" type="qcurve" smooth="yes"/>
      <point x="647.5" y="2238.70000000007"/>
      <point x="553.5" y="2283.70000000007"/>
      <point x="490.5" y="2283.70000000007" type="qcurve" smooth="yes"/>
      <point x="446.5" y="2283.70000000007"/>
      <point x="351.5" y="2262.70000000007"/>
      <point x="314.5" y="2246.70000000007" type="qcurve"/>
      <point x="296.5" y="2296.70000000007" type="line"/>
      <point x="340.5" y="2316.70000000007"/>
      <point x="444.5" y="2341.70000000007"/>
      <point x="504.5" y="2341.70000000007" type="qcurve" smooth="yes"/>
      <point x="611.5" y="2341.70000000007"/>
      <point x="727.5" y="2268.70000000007"/>
      <point x="727.5" y="2180.70000000007" type="qcurve" smooth="yes"/>
      <point x="727.5" y="2097.70000000007"/>
      <point x="609.5" y="2011.7000000000698"/>
      <point x="530.5" y="2011.7000000000698" type="qcurve" smooth="yes"/>
      <point x="504.5" y="2011.7000000000698"/>
      <point x="467.5" y="2015.7000000000698"/>
      <point x="454.5" y="2019.7000000000698" type="qcurve"/>
      <point x="454.5" y="1920.7000000000698" type="line"/>
    </contour>
  </outline>
</glyph>
<glyph name="brevehookabovecomb" format="2">
  <advance width="1024"/>
  <anchor x="512.0" y="1000" name="_top"/>
  <outline>
    <contour>
      <point x="735" y="1368" type="qcurve"/>
      <point x="775" y="1359" type="line"/>
      <point x="759" y="1279"/>
      <point x="617" y="1143"/>
      <point x="513" y="1143" type="qcurve" smooth="yes"/>
      <point x="408" y="1143"/>
      <point x="267" y="1268"/>
      <point x="249" y="1357" type="qcurve"/>
      <point x="292" y="1369" type="line"/>
      <point x="318" y="1313"/>
      <point x="425" y="1225"/>
      <point x="514" y="1225" type="qcurve" smooth="yes"/>
      <point x="604" y="1225"/>
      <point x="714" y="1314"/>
    </contour>
    <contour>
      <point x="391.5" y="1433.7000000000698" type="line"/>
      <point x="391.5" y="1567.7000000000698" type="line"/>
      <point x="419.5" y="1591.7000000000698" type="line"/>
      <point x="435.5" y="1586.7000000000698"/>
      <point x="486.5" y="1580.7000000000698"/>
      <point x="518.5" y="1580.7000000000698" type="qcurve" smooth="yes"/>
      <point x="586.5" y="1580.7000000000698"/>
      <point x="647.5" y="1645.7000000000698"/>
      <point x="647.5" y="1691.7000000000698" type="qcurve" smooth="yes"/>
      <point x="647.5" y="1751.7000000000698"/>
      <point x="553.5" y="1796.7000000000698"/>
      <point x="490.5" y="1796.7000000000698" type="qcurve" smooth="yes"/>
      <point x="446.5" y="1796.7000000000698"/>
      <point x="351.5" y="1775.7000000000698"/>
      <point x="314.5" y="1759.7000000000698" type="qcurve"/>
      <point x="296.5" y="1809.7000000000698" type="line"/>
      <point x="340.5" y="1829.7000000000698"/>
      <point x="444.5" y="1854.7000000000698"/>
      <point x="504.5" y="1854.7000000000698" type="qcurve" smooth="yes"/>
      <point x="611.5" y="1854.7000000000698"/>
      <point x="727.5" y="1781.7000000000698"/>
      <point x="727.5" y="1693.7000000000698" type="qcurve" smooth="yes"/>
      <point x="727.5" y="1610.7000000000698"/>
      <point x="609.5" y="1524.7000000000698"/>
      <point x="530.5" y="1524.7000000000698" type="qcurve" smooth="yes"/>
      <point x="504.5" y="1524.7000000000698"/>
      <point x="467.5" y="1528.7000000000698"/>
      <point x="454.5" y="1532.7000000000698" type="qcurve"/>
      <point x="454.5" y="1433.7000000000698" type="line"/>
    </contour>
  </outline>
</glyph>
<glyph name="breveinvertedcomb.case" format="2">
  <advance width="1024"/>
  <anchor x="512.0" y="1500" name="_top"/>
  <anchor x="512.0" y="1866.0" name="top"/>
  <outline>
    <contour>
      <point x="289.0" y="1641.0" type="qcurve"/>
      <point x="249.0" y="1650.0" type="line"/>
      <point x="265.0" y="1730.0"/>
      <point x="407.0" y="1866.0"/>
      <point x="511.0" y="1866.0" type="qcurve" smooth="yes"/>
      <point x="616.0" y="1866.0"/>
      <point x="757.0" y="1741.0"/>
      <point x="775.0" y="1652.0" type="qcurve"/>
      <point x="732.0" y="1640.0" type="line"/>
      <point x="706.0" y="1696.0"/>
      <point x="599.0" y="1784.0"/>
      <point x="510.0" y="1784.0" type="qcurve" smooth="yes"/>
      <point x="420.0" y="1784.0"/>
      <point x="310.0" y="1695.0"/>
    </contour>
  </outline>
</glyph>
<glyph name="brevetildecomb.case" format="2">
  <advance width="1024"/>
  <anchor x="512.0" y="1500" name="_top"/>
  <outline>
    <contour>
      <point x="735" y="1855" type="qcurve"/>
      <point x="775" y="1846" type="line"/>
      <point x="759" y="1766"/>
      <point x="617" y="1630"/>
      <point x="513" y="1630" type="qcurve" smooth="yes"/>
      <point x="408" y="1630"/>
      <point x="267" y="1755"/>
      <point x="249" y="1844" type="qcurve"/>
      <point x="292" y="1856" type="line"/>
      <point x="318" y="1800"/>
      <point x="425" y="1712"/>
      <point x="514" y="1712" type="qcurve" smooth="yes"/>
      <point x="604" y="1712"/>
      <point x="714" y="1801"/>
    </contour>
    <contour>
      <point x="237" y="2047" type="line"/>
      <point x="263" y="2092"/>
      <point x="349" y="2169"/>
      <point x="404" y="2169" type="qcurve" smooth="yes"/>
      <point x="437" y="2169"/>
      <point x="494" y="2148"/>
      <point x="525" y="2130" type="qcurve" smooth="yes"/>
      <point x="546" y="2117"/>
      <point x="615" y="2079"/>
      <point x="649" y="2079" type="qcurve" smooth="yes"/>
      <point x="680" y="2079"/>
      <point x="741" y="2118"/>
      <point x="760" y="2145" type="qcurve"/>
      <point x="787" y="2117" type="line"/>
      <point x="758" y="2062"/>
      <point x="679" y="2002"/>
      <point x="636" y="2002" type="qcurve" smooth="yes"/>
      <point x="597" y="2002"/>
      <point x="521" y="2034"/>
      <point x="499" y="2049" type="qcurve" smooth="yes"/>
      <point x="473" y="2066"/>
      <point x="414" y="2092"/>
      <point x="391" y="2092" type="qcurve" smooth="yes"/>
      <point x="353" y="2092"/>
      <point x="284" y="2039"/>
      <point x="269" y="2019" type="qcurve"/>
    </contour>
  </outline>
</glyph>
<glyph name="brevetildecomb" format="2">
  <advance width="1024"/>
  <anchor x="512.0" y="1000" name="_top"/>
  <outline>
    <contour>
      <point x="735" y="1368" type="qcurve"/>
      <point x="775" y="1359" type="line"/>
      <point x="759" y="1279"/>
      <point x="617" y="1143"/>
      <point x="513" y="1143" type="qcurve" smooth="yes"/>
      <point x="408" y="1143"/>
      <point x="267" y="1268"/>
      <point x="249" y="1357" type="qcurve"/>
      <point x="292" y="1369" type="line"/>
      <point x="318" y="1313"/>
      <point x="425" y="1225"/>
      <point x="514" y="1225" type="qcurve" smooth="yes"/>
      <point x="604" y="1225"/>
      <point x="714" y="1314"/>
    </contour>
    <contour>
      <point x="237.0" y="1564.0" type="line"/>
      <point x="263.0" y="1609.0"/>
      <point x="349.0" y="1686.0"/>
      <point x="404.0" y="1686.0" type="qcurve" smooth="yes"/>
      <point x="437.0" y="1686.0"/>
      <point x="494.0" y="1665.0"/>
      <point x="525.0" y="1647.0" type="qcurve" smooth="yes"/>
      <point x="546.0" y="1634.0"/>
      <point x="615.0" y="1596.0"/>
      <point x="649.0" y="1596.0" type="qcurve" smooth="yes"/>
      <point x="680.0" y="1596.0"/>
      <point x="741.0" y="1635.0"/>
      <point x="760.0" y="1662.0" type="qcurve"/>
      <point x="787.0" y="1634.0" type="line"/>
      <point x="758.0" y="1579.0"/>
      <point x="679.0" y="1519.0"/>
      <point x="636.0" y="1519.0" type="qcurve" smooth="yes"/>
      <point x="597.0" y="1519.0"/>
      <point x="521.0" y="1551.0"/>
      <point x="499.0" y="1566.0" type="qcurve" smooth="yes"/>
      <point x="473.0" y="1583.0"/>
      <point x="414.0" y="1609.0"/>
      <point x="391.0" y="1609.0" type="qcurve" smooth="yes"/>
      <point x="353.0" y="1609.0"/>
      <point x="284.0" y="1556.0"/>
      <point x="269.0" y="1536.0" type="qcurve"/>
    </contour>
  </outline>
</glyph>
<glyph name="caroncomb.alt" format="2">
  <advance width="1024"/>
  <anchor x="219.0" y="1000" name="_topright"/>
  <outline>
    <contour>
      <point x="438" y="1112" type="line"/>
      <point x="512" y="1407" type="line" smooth="yes"/>
      <point x="526" y="1463"/>
      <point x="565" y="1520"/>
      <point x="590" y="1520" type="qcurve" smooth="yes"/>
      <point x="613" y="1520"/>
      <point x="634" y="1497"/>
      <point x="634" y="1475" type="qcurve" smooth="yes"/>
      <point x="634" y="1453"/>
      <point x="610" y="1390"/>
      <point x="593" y="1355" type="qcurve" smooth="yes"/>
      <point x="472" y="1099" type="line"/>
    </contour>
  </outline>
</glyph>
<glyph name="caroncomb.case" format="2">
  <advance width="1024"/>
  <anchor x="512.0" y="1500" name="_top"/>
  <anchor x="512.0" y="1954.0" name="top"/>
  <outline>
    <contour>
      <point x="512.0" y="1640.0" type="qcurve" smooth="yes"/>
      <point x="488.0" y="1640.0"/>
      <point x="455.0" y="1672.0"/>
      <point x="422.0" y="1713.0" type="qcurve" smooth="yes"/>
      <point x="249.0" y="1925.0" type="line"/>
      <point x="277.0" y="1954.0" type="line"/>
      <point x="512.0" y="1739.0" type="line"/>
      <point x="747.0" y="1954.0" type="line"/>
      <point x="775.0" y="1925.0" type="line"/>
      <point x="602.0" y="1713.0" type="line" smooth="yes"/>
      <point x="562.0" y="1664.0"/>
      <point x="536.0" y="1640.0"/>
    </contour>
  </outline>
</glyph>
<glyph name="cedillacomb.case" format="2">
  <advance width="1024"/>
  <anchor x="512.0" y="0" name="_bottom"/>
  <anchor x="512.0" y="-423" name="bottom"/>
  <outline>
    <contour>
      <point x="542" y="0" type="line"/>
      <point x="478" y="-122" type="line"/>
      <point x="493" y="-117"/>
      <point x="549" y="-109"/>
      <point x="576" y="-109" type="qcurve" smooth="yes"/>
      <point x="644" y="-109"/>
      <point x="744" y="-173"/>
      <point x="744" y="-253" type="qcurve" smooth="yes"/>
      <point x="744" y="-334"/>
      <point x="617" y="-423"/>
      <point x="525" y="-423" type="qcurve" smooth="yes"/>
      <point x="466" y="-423"/>
      <point x="354" y="-387"/>
      <point x="311" y="-349" type="qcurve"/>
      <point x="335" y="-299" type="line"/>
      <point x="370" y="-331"/>
      <point x="463" y="-366"/>
      <point x="521" y="-366" type="qcurve" smooth="yes"/>
      <point x="584" y="-366"/>
      <point x="662" y="-311"/>
      <point x="662" y="-262" type="qcurve" smooth="yes"/>
      <point x="662" y="-206"/>
      <point x="592" y="-165"/>
      <point x="541" y="-165" type="qcurve" smooth="yes"/>
      <point x="502" y="-165"/>
      <point x="444" y="-173"/>
      <point x="429" y="-178" type="qcurve"/>
      <point x="402" y="-149" type="line"/>
      <point x="488" y="15" type="line"/>
    </contour>
  </outline>
</glyph>
<glyph name="che.bgr" format="2">
  <advance width="1185"/>
  <outline>
    <contour>
      <point x="659" y="0" type="line"/>
      <point x="659" y="40" type="line"/>
      <point x="847" y="67" type="line"/>
      <point x="849" y="500" type="line"/>
      <point x="847" y="915" type="line"/>
      <point x="669" y="935" type="line"/>
      <point x="669" y="986" type="line"/>
      <point x="910" y="1000" type="line"/>
      <point x="921" y="994" type="line"/>
      <point x="927" y="967" type="line"/>
      <point x="925" y="500" type="line"/>
      <point x="927" y="67" type="line"/>
      <point x="1095" y="40" type="line"/>
      <point x="1095" y="0" type="line"/>
    </contour>
    <contour>
      <point x="298" y="968" type="line"/>
      <point x="297" y="711" type="line" smooth="yes"/>
      <point x="297" y="591"/>
      <point x="415" y="493"/>
      <point x="558" y="493" type="qcurve" smooth="yes"/>
      <point x="648" y="493"/>
      <point x="809" y="515"/>
      <point x="887" y="546" type="qcurve"/>
      <point x="887" y="488" type="line"/>
      <point x="809" y="462"/>
      <point x="656" y="433"/>
      <point x="551" y="433" type="qcurve" smooth="yes"/>
      <point x="376" y="433"/>
      <point x="220" y="566"/>
      <point x="219" y="711" type="qcurve" smooth="yes"/>
      <point x="218" y="915" type="line"/>
      <point x="29" y="935" type="line"/>
      <point x="29" y="986" type="line"/>
      <point x="277" y="1000" type="line"/>
      <point x="292" y="994" type="line"/>
    </contour>
  </outline>
</glyph>
<glyph name="circumflexacutecomb.case" format="2">
  <advance width="1024"/>
  <anchor x="512.0" y="1500" name="_top"/>
  <outline>
    <contour>
      <point x="512" y="1890" type="qcurve" smooth="yes"/>
      <point x="536" y="1890"/>
      <point x="569" y="1858"/>
      <point x="602" y="1817" type="qcurve" smooth="yes"/>
      <point x="775" y="1605" type="line"/>
      <point x="747" y="1576" type="line"/>
      <point x="512" y="1791" type="line"/>
      <point x="277" y="1576" type="line"/>
      <point x="249" y="1605" type="line"/>
      <point x="422" y="1817" type="line" smooth="yes"/>
      <point x="462" y="1866"/>
      <point x="488" y="1890"/>
    </contour>
    <contour>
      <point x="1004.0999999998603" y="2060.3999999997905" type="qcurve" smooth="yes"/>
      <point x="1004.0999999998603" y="2044.3999999997905"/>
      <point x="981.0999999998603" y="2015.3999999997905"/>
      <point x="964.0999999998603" y="2003.3999999997905" type="qcurve" smooth="yes"/>
      <point x="711.0999999998603" y="1831.3999999997905" type="line"/>
      <point x="691.0999999998603" y="1858.3999999997905" type="line"/>
      <point x="892.0999999998603" y="2065.3999999997905" type="line" smooth="yes"/>
      <point x="910.0999999998603" y="2084.3999999997905"/>
      <point x="943.0999999998603" y="2103.3999999997905"/>
      <point x="961.0999999998603" y="2103.3999999997905" type="qcurve" smooth="yes"/>
      <point x="980.0999999998603" y="2103.3999999997905"/>
      <point x="1004.0999999998603" y="2078.3999999997905"/>
    </contour>
  </outline>
</glyph>
<glyph name="circumflexacutecomb" format="2">
  <advance width="1024"/>
  <anchor x="512.0" y="1000" name="_top"/>
  <outline>
    <contour>
      <point x="512" y="1464" type="qcurve" smooth="yes"/>
      <point x="536" y="1464"/>
      <point x="569" y="1432"/>
      <point x="602" y="1391" type="qcurve" smooth="yes"/>
      <point x="775" y="1179" type="line"/>
      <point x="747" y="1150" type="line"/>
      <point x="512" y="1365" type="line"/>
      <point x="277" y="1150" type="line"/>
      <point x="249" y="1179" type="line"/>
      <point x="422" y="1391" type="line" smooth="yes"/>
      <point x="462" y="1440"/>
      <point x="488" y="1464"/>
    </contour>
    <contour>
      <point x="1002.2999999999302" y="1669.0" type="qcurve" smooth="yes"/>
      <point x="1002.2999999999302" y="1654.0"/>
      <point x="981.2999999999302" y="1623.0"/>
      <point x="964.2999999999302" y="1609.0" type="qcurve" smooth="yes"/>
      <point x="714.2999999999302" y="1402.0" type="line"/>
      <point x="691.2999999999302" y="1428.0" type="line"/>
      <point x="890.2999999999302" y="1664.0" type="line" smooth="yes"/>
      <point x="908.2999999999302" y="1685.0"/>
      <point x="939.2999999999302" y="1708.0"/>
      <point x="958.2999999999302" y="1708.0" type="qcurve" smooth="yes"/>
      <point x="977.2999999999302" y="1708.0"/>
      <point x="1002.2999999999302" y="1683.0"/>
    </contour>
  </outline>
</glyph>
<glyph name="circumflexcomb.case" format="2">
  <advance width="1024"/>
  <anchor x="512.0" y="1500" name="_top"/>
  <anchor x="512.0" y="1954.0" name="top"/>
  <outline>
    <contour>
      <point x="512.0" y="1954.0" type="qcurve" smooth="yes"/>
      <point x="536.0" y="1954.0"/>
      <point x="569.0" y="1922.0"/>
      <point x="602.0" y="1881.0" type="qcurve" smooth="yes"/>
      <point x="775.0" y="1669.0" type="line"/>
      <point x="747.0" y="1640.0" type="line"/>
      <point x="512.0" y="1855.0" type="line"/>
      <point x="277.0" y="1640.0" type="line"/>
      <point x="249.0" y="1669.0" type="line"/>
      <point x="422.0" y="1881.0" type="line" smooth="yes"/>
      <point x="462.0" y="1930.0"/>
      <point x="488.0" y="1954.0"/>
    </contour>
  </outline>
</glyph>
<glyph name="circumflexgravecomb.case" format="2">
  <advance width="1024"/>
  <anchor x="512.0" y="1500" name="_top"/>
  <outline>
    <contour>
      <point x="512" y="1890" type="qcurve" smooth="yes"/>
      <point x="536" y="1890"/>
      <point x="569" y="1858"/>
      <point x="602" y="1817" type="qcurve" smooth="yes"/>
      <point x="775" y="1605" type="line"/>
      <point x="747" y="1576" type="line"/>
      <point x="512" y="1791" type="line"/>
      <point x="277" y="1576" type="line"/>
      <point x="249" y="1605" type="line"/>
      <point x="422" y="1817" type="line" smooth="yes"/>
      <point x="462" y="1866"/>
      <point x="488" y="1890"/>
    </contour>
    <contour>
      <point x="541" y="2060" type="qcurve" smooth="yes"/>
      <point x="541" y="2078"/>
      <point x="565" y="2103"/>
      <point x="584" y="2103" type="qcurve" smooth="yes"/>
      <point x="602" y="2103"/>
      <point x="635" y="2084"/>
      <point x="653" y="2065" type="qcurve" smooth="yes"/>
      <point x="854" y="1858" type="line"/>
      <point x="834" y="1831" type="line"/>
      <point x="581" y="2003" type="line" smooth="yes"/>
      <point x="564" y="2015"/>
      <point x="541" y="2044"/>
    </contour>
  </outline>
</glyph>
<glyph name="circumflexgravecomb" format="2">
  <advance width="1024"/>
  <anchor x="512.0" y="1000" name="_top"/>
  <outline>
    <contour>
      <point x="512" y="1464" type="qcurve" smooth="yes"/>
      <point x="536" y="1464"/>
      <point x="569" y="1432"/>
      <point x="602" y="1391" type="qcurve" smooth="yes"/>
      <point x="775" y="1179" type="line"/>
      <point x="747" y="1150" type="line"/>
      <point x="512" y="1365" type="line"/>
      <point x="277" y="1150" type="line"/>
      <point x="249" y="1179" type="line"/>
      <point x="422" y="1391" type="line" smooth="yes"/>
      <point x="462" y="1440"/>
      <point x="488" y="1464"/>
    </contour>
    <contour>
      <point x="551" y="1669" type="qcurve" smooth="yes"/>
      <point x="551" y="1683"/>
      <point x="576" y="1708"/>
      <point x="595" y="1708" type="qcurve" smooth="yes"/>
      <point x="614" y="1708"/>
      <point x="645" y="1685"/>
      <point x="663" y="1664" type="qcurve" smooth="yes"/>
      <point x="862" y="1428" type="line"/>
      <point x="839" y="1402" type="line"/>
      <point x="589" y="1609" type="line" smooth="yes"/>
      <point x="572" y="1623"/>
      <point x="551" y="1654"/>
    </contour>
  </outline>
</glyph>
<glyph name="circumflexhookabovecomb.case" format="2">
  <advance width="1024"/>
  <anchor x="512.0" y="1500" name="_top"/>
  <outline>
    <contour>
      <point x="512" y="1890" type="qcurve" smooth="yes"/>
      <point x="536" y="1890"/>
      <point x="569" y="1858"/>
      <point x="602" y="1817" type="qcurve" smooth="yes"/>
      <point x="775" y="1605" type="line"/>
      <point x="747" y="1576" type="line"/>
      <point x="512" y="1791" type="line"/>
      <point x="277" y="1576" type="line"/>
      <point x="249" y="1605" type="line"/>
      <point x="422" y="1817" type="line" smooth="yes"/>
      <point x="462" y="1866"/>
      <point x="488" y="1890"/>
    </contour>
    <contour>
      <point x="774.2999999999302" y="1816.4999999998836" type="line"/>
      <point x="774.2999999999302" y="1950.4999999998836" type="line"/>
      <point x="802.2999999999302" y="1974.4999999998836" type="line"/>
      <point x="818.2999999999302" y="1969.4999999998836"/>
      <point x="869.2999999999302" y="1963.4999999998836"/>
      <point x="901.2999999999302" y="1963.4999999998836" type="qcurve" smooth="yes"/>
      <point x="969.2999999999302" y="1963.4999999998836"/>
      <point x="1030.2999999999302" y="2028.4999999998836"/>
      <point x="1030.2999999999302" y="2074.4999999998836" type="qcurve" smooth="yes"/>
      <point x="1030.2999999999302" y="2134.4999999998836"/>
      <point x="936.2999999999302" y="2179.4999999998836"/>
      <point x="873.2999999999302" y="2179.4999999998836" type="qcurve" smooth="yes"/>
      <point x="829.2999999999302" y="2179.4999999998836"/>
      <point x="734.2999999999302" y="2158.4999999998836"/>
      <point x="697.2999999999302" y="2142.4999999998836" type="qcurve"/>
      <point x="679.2999999999302" y="2192.4999999998836" type="line"/>
      <point x="723.2999999999302" y="2212.4999999998836"/>
      <point x="827.2999999999302" y="2237.4999999998836"/>
      <point x="887.2999999999302" y="2237.4999999998836" type="qcurve" smooth="yes"/>
      <point x="994.2999999999302" y="2237.4999999998836"/>
      <point x="1110.2999999999302" y="2164.4999999998836"/>
      <point x="1110.2999999999302" y="2076.4999999998836" type="qcurve" smooth="yes"/>
      <point x="1110.2999999999302" y="1993.4999999998836"/>
      <point x="992.2999999999302" y="1907.4999999998836"/>
      <point x="913.2999999999302" y="1907.4999999998836" type="qcurve" smooth="yes"/>
      <point x="887.2999999999302" y="1907.4999999998836"/>
      <point x="850.2999999999302" y="1911.4999999998836"/>
      <point x="837.2999999999302" y="1915.4999999998836" type="qcurve"/>
      <point x="837.2999999999302" y="1816.4999999998836" type="line"/>
    </contour>
  </outline>
</glyph>
<glyph name="circumflexhookabovecomb" format="2">
  <advance width="1024"/>
  <anchor x="512.0" y="1000" name="_top"/>
  <outline>
    <contour>
      <point x="512" y="1464" type="qcurve" smooth="yes"/>
      <point x="536" y="1464"/>
      <point x="569" y="1432"/>
      <point x="602" y="1391" type="qcurve" smooth="yes"/>
      <point x="775" y="1179" type="line"/>
      <point x="747" y="1150" type="line"/>
      <point x="512" y="1365" type="line"/>
      <point x="277" y="1150" type="line"/>
      <point x="249" y="1179" type="line"/>
      <point x="422" y="1391" type="line" smooth="yes"/>
      <point x="462" y="1440"/>
      <point x="488" y="1464"/>
    </contour>
    <contour>
      <point x="774.2999999999302" y="1390.5" type="line"/>
      <point x="774.2999999999302" y="1524.5" type="line"/>
      <point x="802.2999999999302" y="1548.5" type="line"/>
      <point x="818.2999999999302" y="1543.5"/>
      <point x="869.2999999999302" y="1537.5"/>
      <point x="901.2999999999302" y="1537.5" type="qcurve" smooth="yes"/>
      <point x="969.2999999999302" y="1537.5"/>
      <point x="1030.2999999999302" y="1602.5"/>
      <point x="1030.2999999999302" y="1648.5" type="qcurve" smooth="yes"/>
      <point x="1030.2999999999302" y="1708.5"/>
      <point x="936.2999999999302" y="1753.5"/>
      <point x="873.2999999999302" y="1753.5" type="qcurve" smooth="yes"/>
      <point x="829.2999999999302" y="1753.5"/>
      <point x="734.2999999999302" y="1732.5"/>
      <point x="697.2999999999302" y="1716.5" type="qcurve"/>
      <point x="679.2999999999302" y="1766.5" type="line"/>
      <point x="723.2999999999302" y="1786.5"/>
      <point x="827.2999999999302" y="1811.5"/>
      <point x="887.2999999999302" y="1811.5" type="qcurve" smooth="yes"/>
      <point x="994.2999999999302" y="1811.5"/>
      <point x="1110.2999999999302" y="1738.5"/>
      <point x="1110.2999999999302" y="1650.5" type="qcurve" smooth="yes"/>
      <point x="1110.2999999999302" y="1567.5"/>
      <point x="992.2999999999302" y="1481.5"/>
      <point x="913.2999999999302" y="1481.5" type="qcurve" smooth="yes"/>
      <point x="887.2999999999302" y="1481.5"/>
      <point x="850.2999999999302" y="1485.5"/>
      <point x="837.2999999999302" y="1489.5" type="qcurve"/>
      <point x="837.2999999999302" y="1390.5" type="line"/>
    </contour>
  </outline>
</glyph>
<glyph name="circumflextildecomb.case" format="2">
  <advance width="1024"/>
  <anchor x="512.0" y="1500" name="_top"/>
  <outline>
    <contour>
      <point x="512" y="1890" type="qcurve" smooth="yes"/>
      <point x="536" y="1890"/>
      <point x="569" y="1858"/>
      <point x="602" y="1817" type="qcurve" smooth="yes"/>
      <point x="775" y="1605" type="line"/>
      <point x="747" y="1576" type="line"/>
      <point x="512" y="1791" type="line"/>
      <point x="277" y="1576" type="line"/>
      <point x="249" y="1605" type="line"/>
      <point x="422" y="1817" type="line" smooth="yes"/>
      <point x="462" y="1866"/>
      <point x="488" y="1890"/>
    </contour>
    <contour>
      <point x="237" y="2031.2000000000407" type="line"/>
      <point x="263" y="2076.2000000000407"/>
      <point x="349" y="2153.2000000000407"/>
      <point x="404" y="2153.2000000000407" type="qcurve" smooth="yes"/>
      <point x="437" y="2153.2000000000407"/>
      <point x="494" y="2132.2000000000407"/>
      <point x="525" y="2114.2000000000407" type="qcurve" smooth="yes"/>
      <point x="546" y="2101.2000000000407"/>
      <point x="615" y="2063.2000000000407"/>
      <point x="649" y="2063.2000000000407" type="qcurve" smooth="yes"/>
      <point x="680" y="2063.2000000000407"/>
      <point x="741" y="2102.2000000000407"/>
      <point x="760" y="2129.2000000000407" type="qcurve"/>
      <point x="787" y="2101.2000000000407" type="line"/>
      <point x="758" y="2046.2000000000407"/>
      <point x="679" y="1986.2000000000407"/>
      <point x="636" y="1986.2000000000407" type="qcurve" smooth="yes"/>
      <point x="597" y="1986.2000000000407"/>
      <point x="521" y="2018.2000000000407"/>
      <point x="499" y="2033.2000000000407" type="qcurve" smooth="yes"/>
      <point x="473" y="2050.2000000000407"/>
      <point x="414" y="2076.2000000000407"/>
      <point x="391" y="2076.2000000000407" type="qcurve" smooth="yes"/>
      <point x="353" y="2076.2000000000407"/>
      <point x="284" y="2023.2000000000407"/>
      <point x="269" y="2003.2000000000407" type="qcurve"/>
    </contour>
  </outline>
</glyph>
<glyph name="circumflextildecomb" format="2">
  <advance width="1024"/>
  <anchor x="512.0" y="1000" name="_top"/>
  <outline>
    <contour>
      <point x="512" y="1464" type="qcurve" smooth="yes"/>
      <point x="536" y="1464"/>
      <point x="569" y="1432"/>
      <point x="602" y="1391" type="qcurve" smooth="yes"/>
      <point x="775" y="1179" type="line"/>
      <point x="747" y="1150" type="line"/>
      <point x="512" y="1365" type="line"/>
      <point x="277" y="1150" type="line"/>
      <point x="249" y="1179" type="line"/>
      <point x="422" y="1391" type="line" smooth="yes"/>
      <point x="462" y="1440"/>
      <point x="488" y="1464"/>
    </contour>
    <contour>
      <point x="237.0" y="1605.2000000000407" type="line"/>
      <point x="263.0" y="1650.2000000000407"/>
      <point x="349.0" y="1727.2000000000407"/>
      <point x="404.0" y="1727.2000000000407" type="qcurve" smooth="yes"/>
      <point x="437.0" y="1727.2000000000407"/>
      <point x="494.0" y="1706.2000000000407"/>
      <point x="525.0" y="1688.2000000000407" type="qcurve" smooth="yes"/>
      <point x="546.0" y="1675.2000000000407"/>
      <point x="615.0" y="1637.2000000000407"/>
      <point x="649.0" y="1637.2000000000407" type="qcurve" smooth="yes"/>
      <point x="680.0" y="1637.2000000000407"/>
      <point x="741.0" y="1676.2000000000407"/>
      <point x="760.0" y="1703.2000000000407" type="qcurve"/>
      <point x="787.0" y="1675.2000000000407" type="line"/>
      <point x="758.0" y="1620.2000000000407"/>
      <point x="679.0" y="1560.2000000000407"/>
      <point x="636.0" y="1560.2000000000407" type="qcurve" smooth="yes"/>
      <point x="597.0" y="1560.2000000000407"/>
      <point x="521.0" y="1592.2000000000407"/>
      <point x="499.0" y="1607.2000000000407" type="qcurve" smooth="yes"/>
      <point x="473.0" y="1624.2000000000407"/>
      <point x="414.0" y="1650.2000000000407"/>
      <point x="391.0" y="1650.2000000000407" type="qcurve" smooth="yes"/>
      <point x="353.0" y="1650.2000000000407"/>
      <point x="284.0" y="1597.2000000000407"/>
      <point x="269.0" y="1577.2000000000407" type="qcurve"/>
    </contour>
  </outline>
</glyph>
